<?xml version="1.0" standalone="no"?>
<!DOCTYPE svg PUBLIC "-//W3C//DTD SVG 1.1//EN" "http://www.w3.org/Graphics/SVG/1.1/DTD/svg11.dtd" >
<svg xmlns="http://www.w3.org/2000/svg" xmlns:xlink="http://www.w3.org/1999/xlink" version="1.1">
<metadata></metadata>
<defs>
<font id="jennifer_lynnebold" horiz-adv-x="921" >
<font-face units-per-em="2048" ascent="1536" descent="-512" />
<missing-glyph horiz-adv-x="387" />
<glyph horiz-adv-x="0" />
<glyph horiz-adv-x="682" />
<glyph unicode=" "  horiz-adv-x="387" />
<glyph unicode="&#x09;" horiz-adv-x="387" />
<glyph unicode="&#xa0;" horiz-adv-x="387" />
<glyph unicode="!" horiz-adv-x="342" d="M57 973q0 170 6 334q0 4 1.5 8t1.5 6q8 12 21 17t25.5 3t21.5 -11t9 -25v-54q0 -2 -1 -4t-1 -8q-2 -66 -3 -134.5t-1 -135.5q0 -115 4 -227.5t15 -225.5q0 -20 -11.5 -31.5t-25 -12.5t-26.5 8t-15 28q-12 115 -16.5 231.5t-4.5 233.5zM119.5 104q7.5 27 42.5 27 q39 -6 47 -47v-4q0 -18 -8 -28.5t-20.5 -13.5t-25 2t-20.5 19q-23 18 -15.5 45z" />
<glyph unicode="&#x22;" horiz-adv-x="358" d="M63 1430v2q2 20 14.5 29t27 8t25.5 -12t11 -32q0 -53 1 -107t3 -108q2 -53 4.5 -106t2.5 -107q0 -20 -11.5 -30.5t-26 -10.5t-27.5 9.5t-15 27.5q0 53 -2 110.5t-4 110.5q-2 49 -2.5 107.5t-0.5 108.5zM201 1419v2q2 20 15 29.5t26.5 8.5t25 -12t11.5 -32q0 -47 1 -94 t3 -94t4 -94.5t2 -94.5q0 -20 -11.5 -31.5t-25.5 -11.5t-26.5 9.5t-14.5 27.5q0 49 -2 99.5t-4 97.5t-3 95t-1 95z" />
<glyph unicode="#" horiz-adv-x="870" d="M-6 491.5q-4 12.5 2 26.5t22 23q59 23 119 39t115 32q10 96 14 190.5t8 192.5q2 20 14.5 29.5t27 8.5t25.5 -12t11 -32q-4 -98 -8 -179t-12 -177q41 10 85 19.5t87 19.5l61 14q4 31 8.5 63.5t8.5 61.5q4 35 5 67.5t5 67.5q2 27 3 55.5t5 55.5q12 31 41 30.5t39 -30.5h-2 q4 -10 4 -23q0 -10 -6 -22l-37 -312q18 4 36.5 11.5t39.5 11.5l24 6q39 0 45.5 -28.5t-26.5 -51.5l-125 -31q-8 -59 -14.5 -103t-12.5 -103q35 10 67 16t66 12q39 0 45.5 -28.5t-26.5 -49.5l-81 -18l-81 -18q-10 -96 -13 -189.5t-5 -189.5q-16 -33 -45 -32t-35 36 q2 88 7 177t15 175q-59 -16 -108.5 -25.5t-108.5 -19.5q-2 -33 -2 -64.5v-64.5q-8 -16 -20.5 -23.5t-24.5 -7.5t-21.5 9.5t-11.5 25.5v113l-73 -4h-11q-35 6 -36 34.5t32 45.5q29 2 47.5 2t44.5 4q2 39 5.5 73.5t7.5 73.5l4 53q-57 -16 -108.5 -31.5t-92.5 -29.5 q-20 -4 -32.5 4t-16.5 20.5zM309 340q59 10 111.5 22.5t109.5 26.5l25 211q-57 -12 -114.5 -24.5t-114.5 -28.5q-6 -55 -9.5 -101.5t-7.5 -105.5zM313 543q4 0 13 4v14z" />
<glyph unicode="$" horiz-adv-x="532" d="M-7 686q-13 43 17 76l-2 -2l23 24q16 18 32.5 36t38.5 28l103 45q2 59 3 121.5t1 122.5v2q2 20 15.5 29.5t27.5 8.5t25.5 -12.5t11.5 -31.5q0 -53 -1 -103.5t-3 -101.5q37 14 77.5 18t79.5 6q20 0 31.5 -11t13.5 -24.5t-7 -26.5t-29 -16q-31 -2 -74 -10t-92 -20v-177 t4 -180q43 -27 81 -58.5t60 -78.5q10 -16 14.5 -33.5t4.5 -33.5q0 -53 -39 -87t-99 -30q8 -59 19.5 -120.5t23.5 -123.5q0 -18 -8 -29.5t-20.5 -14.5t-25.5 3t-21 21q-18 76 -29.5 147.5t-20.5 138.5q-23 10 -43 22.5t-39 27.5q-29 29 -12 54t51 15l15 -14l-2 2q8 -6 9 -8 l1 -2l1 -1t11 -5q-4 41 -6 81.5t-4 81.5q-37 29 -84 70t-84 86t-50 88zM76 674q16 -45 52 -77t79 -60q-2 59 -2 137v143q-63 -27 -104 -62.5t-25 -80.5zM293 383q2 -35 4 -67.5t6 -67.5q16 -2 31.5 1t24 11t9 21.5t-9.5 33.5q-10 23 -26.5 37.5t-38.5 30.5z" />
<glyph unicode="%" horiz-adv-x="765" d="M-12 45q106 309 238.5 602t308.5 557q12 18 28.5 23.5t29.5 0.5t19 -19.5t-4 -34.5q-180 -272 -311 -561t-236 -588q-8 -18 -21 -24.5t-25.5 -3.5t-21.5 15.5t-5 32.5zM4 834q0 35 23 96q10 29 27.5 65.5t54.5 46.5h4q16 0 24 -6h6l23 -16q31 -18 57.5 -41t30.5 -64v3 q4 -27 -13.5 -55.5t-45 -52.5t-60.5 -39t-59 -15q-31 0 -51.5 18.5t-20.5 59.5zM86 842q16 2 36.5 10t35 19.5t17.5 25.5t-11 31l-25 18l-6 2q-6 -2 -18 -2q-10 -23 -18.5 -52.5t-10.5 -51.5zM360 455q0 39 13.5 78.5t37 74.5t53.5 59.5t64 30.5h4q27 0 37.5 -16t-0.5 -37 q16 0 25 -2q20 -8 31 -10q18 -4 34.5 -11.5t32.5 -23.5t23.5 -35.5t7.5 -36.5q0 -41 -30.5 -82t-74 -71.5t-89.5 -47t-74 -6.5v-2q-49 14 -72 52.5t-23 85.5zM449 434.5q0 -10.5 4 -24.5q16 -8 36 -9q27 0 55.5 12.5t50 32t33 45t5.5 52.5l-70 28q-33 18 -24 47 q-53 -14 -71.5 -60t-18.5 -99v-24.5z" />
<glyph unicode="&#x26;" horiz-adv-x="911" d="M-2 45q0 43 23.5 89t48.5 75q31 37 83 77t107 79l-20 32q-35 55 -66 121t-53 127q0 2 -2 6q-10 25 -19.5 55.5t-15.5 64.5t-7 65.5t9 56.5q27 66 83 96.5t122 30.5q63 0 129.5 -23.5t120 -65.5t88.5 -96.5t35 -115.5q0 -55 -39 -123q-43 -66 -114 -123t-146 -115l-3 -2 q37 -47 78 -78.5t95 -60.5q53 37 101 74t95 74l41 30q16 8 29.5 5t19.5 -14t5 -26.5t-13 -27.5q-55 -43 -99 -77t-106 -75q45 -16 92.5 -26.5t106.5 -16.5h4q16 -4 24.5 -15t8.5 -24.5t-10.5 -25t-28.5 -13.5q-78 10 -147.5 24.5t-131.5 43.5l-53 -35q-39 -23 -79 -47.5 t-95 -46.5q-16 -8 -45 -20.5t-60.5 -22.5t-63.5 -15.5t-54 3.5q-43 16 -60.5 41.5t-17.5 60.5zM80 48.5q8 -17.5 24 -30.5l2 -2q8 -8 46 3.5t90.5 34t110 53t104.5 59.5l-37 29q-33 27 -61.5 56.5t-57.5 61.5q-74 -53 -135.5 -110.5t-83.5 -116.5q-10 -20 -2 -37.5zM156 817 q0 -33 9 -68.5t21.5 -71.5t28 -68.5t27.5 -57.5q39 -80 82 -139q47 35 92 72.5t80.5 76.5t57 80t21.5 82q0 31 -16 70q-18 41 -55 71.5t-78 46.5q-37 16 -81 24.5t-89 -1.5q-55 -10 -77.5 -43t-22.5 -74z" />
<glyph unicode="'" horiz-adv-x="266" d="M82 1419v2q2 20 14.5 29.5t26.5 8.5t25.5 -12t11.5 -32q0 -47 1 -94t3 -94t4 -94.5t2 -94.5q0 -20 -11.5 -31.5t-25.5 -11.5t-27.5 9.5t-15.5 27.5q0 49 -1 99.5t-3 97.5t-3 95t-1 95z" />
<glyph unicode="(" horiz-adv-x="444" d="M4 633q0 137 33 278.5t83 277.5t111.5 261t116.5 227l2 2q12 16 27.5 20.5t28 -1.5t17.5 -21.5t-3 -34.5q-53 -102 -111.5 -226t-110 -258t-84 -271t-32.5 -264q0 -160 62.5 -298.5t217.5 -240.5q23 -29 1.5 -50.5t-54.5 -6.5q-84 57 -142 125.5t-94 145.5t-52.5 162 t-16.5 173z" />
<glyph unicode=")" horiz-adv-x="425" d="M-9 1637.5q1 15.5 10 25.5t24.5 11t31.5 -11q84 -88 138.5 -227.5t101.5 -305.5q10 -35 19.5 -78.5t17.5 -86.5t13 -81t9 -63q8 -59 14.5 -131t6.5 -149q0 -82 -12.5 -166t-45 -161t-92 -142.5t-151.5 -108.5q-20 -4 -32.5 5t-15.5 21.5t3 27t24 22.5q70 31 118 83 t75.5 119.5t40 145.5t12.5 162q0 70 -7 144.5t-18.5 146t-25.5 139.5t-29 127q-12 57 -32.5 122.5t-48 132t-62.5 129.5t-74 116q-14 16 -13 31.5z" />
<glyph unicode="*" horiz-adv-x="628" d="M-21.5 837.5q-1.5 14.5 5 24.5t19.5 15.5t30 1.5q59 -39 106 -83t90 -91q-10 72 -16 146.5t-10 154.5q2 18 13 28t23.5 10t24.5 -8t17 -24q4 -82 13 -167t21 -159q16 63 26.5 106.5t18 73t13.5 47t14 31.5q23 33 50.5 26t27.5 -50q-4 -8 -5 -13.5t-5 -9.5 q-14 -45 -24.5 -92t-27.5 -96q23 20 48.5 39.5t52.5 39.5q16 8 28.5 4t19.5 -16t6 -27.5t-13 -27.5q-49 -37 -94 -71t-93 -72l-2 -5q41 -41 84 -75.5t97 -63.5q16 -14 19 -29.5t-3 -27.5t-20.5 -17.5t-32.5 5.5q-43 23 -81 50t-73 56q2 -14 5 -26.5t5 -22.5 q8 -59 17.5 -112.5t17.5 -110.5q10 -16 -4 -45q-16 -20 -35.5 -17.5t-36.5 27.5q-4 43 -9 87t-9 87q-2 8 -2 10v4q0 2 -1 5t-1 8q-12 -47 -18.5 -90.5t-10.5 -92.5q-14 -33 -42.5 -30.5t-35.5 36.5q4 80 18.5 152t37.5 141l-154 -123q-8 -6 -20.5 0.5t-21.5 16.5t-13 22.5 t2 18.5l137 110q20 14 33.5 26.5t34.5 29.5q-4 4 -10.5 10t-10.5 10q-49 53 -103.5 107.5t-119.5 99.5l-2 2q-14 12 -15.5 26.5z" />
<glyph unicode="+" horiz-adv-x="655" d="M-2 565.5q0 12.5 7 24.5t24 20q53 0 106 5.5t105 11.5q4 66 4 131v131q2 20 15 29.5t27.5 8.5t26 -12.5t11.5 -31.5q0 -47 -1 -91t-4 -90q0 -10 -1 -30.5t-1 -36.5l220 29q20 0 31.5 -11.5t13.5 -26t-7.5 -26.5t-29.5 -14l-228 -31q-2 -53 -3 -108.5t-1 -110.5 q0 -20 -11 -30.5t-25.5 -11.5t-27.5 9t-16 29v105t3 106q-47 -4 -98.5 -7.5t-100.5 -3.5h-4q-16 2 -25.5 11.5t-9.5 22z" />
<glyph unicode="," horiz-adv-x="423" d="M72 -195q53 78 66.5 154t13.5 170v2q2 20 15 29.5t27.5 8.5t25.5 -11.5t11 -30.5q0 -109 -17 -191.5t-79 -173.5q-6 -8 -18.5 -6t-24.5 10.5t-19 19.5t-1 19z" />
<glyph unicode="-" horiz-adv-x="458" d="M-7 458.5q-1 28.5 34 43.5q49 4 104 11t109 15l133 15q20 0 31.5 -11.5t13.5 -24.5t-7.5 -26.5t-29.5 -15.5l-84 -12q-68 -10 -132.5 -17.5t-129.5 -11.5h-6q-35 6 -36 34.5z" />
<glyph unicode="." horiz-adv-x="286" d="M58.5 123.5q-5.5 17.5 11.5 42.5q10 10 18 16t25 11q47 0 47 -43q0 -10 -3 -18.5t-7 -18.5q-14 -27 -36 -29t-34 16q-16 6 -21.5 23.5z" />
<glyph unicode="/" horiz-adv-x="505" d="M-2 -37q80 401 169 800.5t228 792.5l2 5q18 31 46 23.5t28 -44.5q-133 -385 -223 -786.5t-170 -806.5q-10 -18 -24.5 -25.5t-28 -4.5t-22.5 14.5t-5 31.5z" />
<glyph unicode="0" horiz-adv-x="595" d="M-12 428q-2 102 13 220t40 216q8 31 24.5 80t41 101.5t53 97.5t61.5 65q23 16 47.5 25.5t50.5 19.5l29 11l8 2q37 0 44.5 -28t-27.5 -48q-20 -12 -41 -16l-36 -13.5t-32 -15.5h2q-14 -12 -26.5 -27.5t-24.5 -32.5q8 6 27 7l55 -13q25 -4 50.5 -10t51.5 -20 q86 -41 119 -125t33 -185q0 -66 -12.5 -134t-31 -131.5t-41 -116t-44.5 -87.5q-16 -27 -36.5 -52t-37.5 -44l-26 -33q-12 -12 -29 -28.5t-35 -28.5t-38.5 -18.5t-39.5 0.5l-37 10q-33 2 -69 24q-29 20 -45.5 66.5t-25.5 97.5t-12 97.5t-3 66.5zM66 446q0 -113 18 -188 q4 -18 11 -33.5t16 -31.5l14 -27l55 -16q10 6 20.5 13t20.5 11h-2q23 12 39 22.5t31.5 23.5t31 33.5t35.5 55.5q20 33 41 82t38.5 104.5t27.5 116t10 117.5q0 82 -25.5 148.5t-87.5 101.5q-20 12 -41.5 16t-44.5 9q-10 2 -21.5 4t-31.5 6q-27 16 -22 43q-33 -57 -57.5 -132 t-42 -156t-25.5 -164t-8 -159z" />
<glyph unicode="1" horiz-adv-x="260" d="M43 944q0 78 3 159t7 163q0 10 13.5 14t28 3t26.5 -6t12 -15q-4 -90 -7 -179.5t-3 -181.5q0 -217 14.5 -434t48.5 -440q0 -14 -9 -23.5t-21.5 -11.5t-26.5 3t-23 19q-29 229 -46 460t-17 470z" />
<glyph unicode="2" horiz-adv-x="671" d="M-12 981q12 57 39.5 110.5t62.5 94.5t73 65.5t70 24.5q37 0 60.5 -31t23.5 -100q0 -31 -6 -74q-16 -106 -49 -213.5t-69 -218.5q-35 -100 -66 -207.5t-47 -220.5q-6 -66 19.5 -95.5t64.5 -29.5q29 0 58.5 10t56.5 23h-3q51 31 102.5 68.5t98.5 72.5l113 82q16 8 28.5 4 t18.5 -15.5t5 -26.5t-13 -28q-27 -20 -53.5 -39.5t-51.5 -41.5q-47 -39 -97 -77t-110 -67q-109 -51 -174 -51q-76 0 -108.5 49t-32.5 131q0 55 12.5 118.5t34.5 135.5q20 57 37.5 115.5t36.5 118.5l18 65q14 41 26.5 81t22.5 81q2 4 4.5 14.5t6.5 20.5l-2 -2q14 45 25.5 94 t11.5 94q0 43 -13 78q-33 2 -58.5 -23.5t-46 -62.5t-32.5 -78t-18 -65l-2 -4q-10 -16 -24.5 -23.5t-27 -4.5t-21.5 15.5t-5 32.5z" />
<glyph unicode="3" horiz-adv-x="722" d="M6 1099.5q6 28.5 27.5 59.5t52.5 61.5t55 55.5l25 24q29 29 53.5 41.5t40.5 12.5q41 0 58.5 -41t23.5 -103q6 -78 -14.5 -156.5t-44.5 -150.5q-10 -33 -20.5 -63.5t-18.5 -65.5q16 -6 42.5 -7t61.5 -1t74 -1t76 -8t72.5 -22.5t64.5 -44.5q31 -31 31 -88q0 -43 -16.5 -91 t-31.5 -83q0 2 -1 1t-5 -19q-18 -49 -63 -120t-105.5 -135.5t-127 -109.5t-128.5 -45q-78 0 -133 76q-14 33 9.5 52t52.5 -3q27 -49 65 -49q16 0 47 10q61 25 121 79t108 121.5t80.5 140.5t43.5 134v-2q6 47 -16.5 77t-67.5 42q-23 6 -52.5 7t-60.5 1q-59 0 -117.5 5 t-95.5 40q-14 16 -10 37q4 16 14 50t23 73q25 70 47 149.5t22 149.5q0 49 -14 80q-47 -31 -90 -79t-80 -93l-35 -41l-26 -4q-23 18 -17 46.5z" />
<glyph unicode="4" horiz-adv-x="438" d="M4 809q2 16 2 37.5v48.5v69.5t3 71.5t7 64.5t15 50.5q12 18 27.5 22.5t27.5 -2t17.5 -21.5t-5.5 -34v2q-6 -14 -9 -64t-3 -110q0 -39 1 -77t2 -68.5t3 -52t4 -23.5q4 -4 17.5 -6t31.5 -2q39 0 88 6q4 59 4.5 114.5t2.5 112.5q4 78 7 157t9 165q2 10 14.5 14t26.5 2 t26.5 -8t12.5 -16q-4 -68 -6 -137.5t-6 -135.5q-4 -72 -6.5 -129t-6.5 -129l68 8q20 0 31.5 -11t13.5 -25.5t-7 -27.5t-30 -16q-8 0 -16.5 -1t-18.5 -1h-23.5t-23.5 -2q-4 -57 -6 -141t-4 -173t-4 -171t-2 -135q-14 -33 -43 -32t-35 36q0 51 2 134t4 170t4 169t6 135 q-4 0 -8 -1t-8 -1q-41 -6 -80 -6q-61 0 -95 33t-32 137z" />
<glyph unicode="5" horiz-adv-x="534" d="M-8 797q-2 66 11 129t43 118.5t74 100.5t103 76q23 12 59.5 20t77.5 8t80 -13t56 -48l2 -2q6 -18 -1.5 -32.5t-19.5 -22t-26.5 -4.5t-24.5 22l-70 20h2q-16 4 -49 0t-67 -26q-84 -57 -130 -145.5t-42 -192.5q0 -18 2 -43t8 -47.5t16 -42t29 -25.5v2q29 -8 53.5 -3 t48.5 16q35 14 71 21t75 -15q20 -12 30.5 -34t15.5 -47.5t6 -51t1 -43.5v-9q2 -57 -18.5 -129.5t-57.5 -141.5t-87 -122t-107 -70q-16 -4 -41 11q-16 18 -24.5 29.5t-12.5 20.5t-5 19.5t-1 26.5q0 20 -6 57q2 18 13 28.5t24.5 11.5t25.5 -7t16 -24q0 -4 1 -10.5t1 -10.5 q2 -18 4.5 -35.5t8.5 -32.5q33 12 67.5 56.5t63 105t46 127t17.5 121.5q0 29 -6 53.5t-22 36.5q-10 8 -33 2t-51 -16q-25 -6 -50.5 -13.5t-54.5 -7.5q-43 0 -77.5 24.5t-55.5 96.5q-6 23 -8 53.5t-4 53.5z" />
<glyph unicode="6" horiz-adv-x="512" d="M-10 324q0 41 2 83t6 82q8 92 18.5 161t22.5 149l8 69q12 74 28.5 146.5t33.5 144.5q8 31 14 59.5t12 57.5l6 29l13 26q23 23 45 14.5t22 -47.5l-6 -24q0 -4 -1 -6t-1 -6l-2 -7l-16 -71q-16 -82 -35 -163t-33 -165q-16 -86 -28.5 -186.5t-20.5 -186.5q-4 -41 -6 -81 t-2 -80q2 -94 18 -134.5t43 -40.5q29 0 64.5 37t70.5 97l2 2q-6 57 3.5 128.5t25.5 142.5t36.5 129t41.5 89q33 43 69 2q23 -33 23 -82q0 -25 -5 -51.5t-9 -48.5q0 -4 -1 -8t-1 -6q-12 -78 -36 -159t-65 -153q10 -18 45 -24q20 -6 27.5 -19.5t4.5 -28t-16.5 -24.5t-33.5 -6 q-2 0 -5 1t-5 1q-16 4 -33 7t-33 17q-8 -10 -17.5 -22t-19.5 -23q-39 -41 -72.5 -58t-62.5 -17q-35 0 -60.5 20.5t-43 55t-26.5 80.5t-9 98zM287 221q0 -4 2 -6q-2 2 -2 6z" />
<glyph unicode="7" horiz-adv-x="454" d="M-57 1151q20 29 48.5 51.5t53.5 38.5q96 66 176 66q59 0 97 -40t38 -128q0 -23 -2 -43.5t-6 -42.5q-29 -172 -59.5 -308.5t-65.5 -265.5v2q-29 -113 -56.5 -227.5t-51.5 -247.5q-14 -33 -43 -29.5t-35 37.5q27 139 52.5 249t53.5 216q23 90 46.5 186.5t50.5 217.5 q2 12 8 38.5t12 60.5t10 71t4 71q0 39 -8 67t-24 38q-27 0 -62 -11.5t-69.5 -27.5t-63.5 -38t-41 -44l-2 -2q-6 -8 -18.5 -5t-23.5 11t-18 19.5t-1 19.5z" />
<glyph unicode="8" horiz-adv-x="471" d="M-18 926q0 47 33.5 123.5t87 151.5t118 132.5t125.5 69.5h4q37 0 42 -28.5t-27 -51.5q-55 -8 -113.5 -63.5t-105 -127t-70 -145.5t-4.5 -119q16 -41 45.5 -70.5t68.5 -56.5q37 100 72 210t57 223q4 20 16.5 28t27 6t24.5 -14t10 -33q-18 -117 -56 -231.5t-81 -233.5 l25 -14q18 -14 34.5 -29.5t28.5 -29.5l21 -23q29 -33 42 -78t13 -98t-11.5 -110.5t-30 -108.5t-43 -93t-50.5 -67q-20 -18 -48 -35.5t-61 -13.5q-20 4 -29 4q-16 2 -30.5 3t-32.5 13q-35 23 -47 61t-12 83q0 53 12 106t24 94q2 10 5.5 18.5t5.5 18.5q10 39 22 74t25 72 q2 8 5 17t5 18q8 25 13 39t16 38q-31 18 -60.5 43t-54.5 66l2 -2l-14 22q-23 35 -36 64t-13 78zM109 182q0 -25 5 -48t19 -52q2 0 5 -1t5 -1q8 -4 19.5 -4h17.5q39 10 69 46t49 84t28.5 101t9.5 99q0 16 -1 31.5t-3 31.5q-12 55 -41 91t-64 61q-20 -57 -40.5 -123 t-36.5 -123q-2 -8 -6.5 -19.5t-6.5 -19.5q-10 -41 -19 -78t-9 -76z" />
<glyph unicode="9" horiz-adv-x="456" d="M-8 762q0 45 14 90q6 23 23.5 63.5t41 90t53.5 101.5t59.5 96t60 75t57.5 39q18 4 45 -2t31 -33q2 -16 6 -32.5t8 -32.5v-5q0 -41 -23.5 -45t-43.5 31q-6 20 -8.5 27.5t-2.5 11.5q-16 -4 -42.5 -32.5t-56.5 -73t-59.5 -97.5t-52 -105t-34 -98.5t-5.5 -72.5q51 14 88 67.5 t70 106.5q23 43 49.5 80t57.5 37q41 0 47 -31q2 -23 2 -49.5v-48.5q0 -92 -6 -179l-9 -131q-4 -135 -8 -279.5t-4 -279.5v-12l-2 -12q-10 -27 -31 -27h-20l-6 4q-6 2 -17 21q-2 2 -2 4v10q0 162 5.5 324.5t15.5 324.5q4 49 6 99.5t2 101.5v6v10q-4 -4 -6 -8l-4 -8 q-10 -23 -24.5 -41.5t-28.5 -40.5q-41 -59 -90.5 -96t-86.5 -37q-31 0 -50 20.5t-19 67.5z" />
<glyph unicode=":" horiz-adv-x="272" d="M35 483q0 23 17.5 43.5t58.5 28.5h4q16 0 28.5 -10t14.5 -23q23 -10 22 -43q-8 -43 -26.5 -61.5t-40.5 -18.5q-29 0 -53.5 26t-24.5 58zM47 133q0 29 9.5 54.5t31.5 41.5h2q23 12 39 1t16 -31q20 -4 25.5 -24.5t-14.5 -47.5q-18 -16 -39 -27.5t-54 4.5q-10 10 -11 14.5 t-5 14.5zM100 473l15 6q4 0 9 -1t3 -1l-27 15v-19zM133 166l2 2q-2 0 -2 -2z" />
<glyph unicode=";" horiz-adv-x="423" d="M134 481.5q3 26.5 18.5 48t42.5 25.5h2q23 0 33 -12.5t8 -28.5q12 -12 11 -29.5t-10.5 -33t-24.5 -26.5t-34 -11q-29 0 -39 20.5t-7 47zM135 160q0 23 20.5 46t41.5 30q16 0 24 -3.5t15 -11.5q8 -18 13 -52t8 -74t4 -80t1 -70q0 -16 1 -25.5t1 -15.5q0 -20 -11 -31.5 t-25.5 -11.5t-28 9t-15.5 28v4q0 10 -1 24.5t-1 30.5q-2 41 -1 78t-3 78q-18 0 -37 24l-4 8q-2 4 -2 15z" />
<glyph unicode="&#x3c;" horiz-adv-x="546" d="M-2 211q0 53 29.5 116.5t72.5 127t89.5 119t78.5 90.5l2 2q16 12 31.5 11t25 -11.5t9.5 -25.5t-12 -32q-27 -29 -68 -75t-81 -100t-68.5 -108.5t-28.5 -97.5q0 -41 39 -63.5t137 -16.5q33 2 64.5 7.5t64.5 11.5l66 12q20 0 32.5 -11t13.5 -25.5t-7.5 -28t-28.5 -15.5 l-70 -12q-29 -6 -62.5 -10t-68.5 -8q-72 -4 -122 5t-80.5 28.5t-44 47t-13.5 62.5z" />
<glyph unicode="=" horiz-adv-x="512" d="M-2 549q0 14 11 25.5t32 11.5h401q20 0 31.5 -11.5t12.5 -25.5t-8 -27.5t-29 -15.5h-414q-18 2 -27.5 15.5t-9.5 27.5zM-1 731q1 14 12.5 25.5t31.5 11.5q86 -10 171 -11t173 -1h43q20 0 31.5 -11.5t12.5 -24.5t-8 -26.5t-30 -15.5h-45q-88 0 -177 1t-177 11h-2 q-18 2 -27.5 14.5t-8.5 26.5z" />
<glyph unicode="&#x3e;" horiz-adv-x="382" d="M35 638.5q0 16.5 9 27t24.5 12.5t31.5 -10q25 -25 50.5 -46.5t48.5 -39.5h-2q59 -51 97 -92t38 -95q0 -37 -23.5 -81t-79.5 -101l-94 -94q-14 -10 -27.5 -8t-22.5 11t-11 22.5t6 29.5l94 94q35 37 58.5 63.5t23.5 51.5q0 29 -51 78q-25 23 -48.5 44t-45.5 44l-62 59 q-14 14 -14 30.5z" />
<glyph unicode="?" horiz-adv-x="368" d="M10 1090q6 45 23.5 86t41 71.5t50.5 48t53 17.5q39 0 68.5 -39t40.5 -125q4 -23 4 -45.5v-44.5q0 -88 -15.5 -184.5t-31.5 -182.5q-16 -74 -29.5 -152.5t-17.5 -154.5q-16 -33 -45 -31t-35 37q4 86 17 165t28 157q16 86 29.5 170t17.5 166q4 92 -11.5 138t-37.5 46 q-18 0 -39 -38t-31 -110l-2 -6q-16 -31 -44 -27.5t-34 38.5zM168 76v18q2 20 15.5 29.5t27.5 8.5t25.5 -12t11.5 -32v-8q0 -20 -11.5 -30.5t-25.5 -11.5t-27.5 9t-15.5 29z" />
<glyph unicode="@" horiz-adv-x="704" d="M-6 375q0 66 5 123t11 90l15 74q10 61 26.5 132.5t44 138t71.5 119t109 70.5q43 12 89 13q59 0 106 -26t83 -68t59.5 -97t33.5 -113q4 -18 4 -43.5v-54.5q0 -47 -5 -100t-19.5 -106.5t-37 -101.5t-54.5 -85q-31 -37 -58.5 -52.5t-50.5 -15.5q-39 0 -64.5 28t-42.5 62 q-10 -16 -19 -26t-19 -27q-41 -53 -80 -53t-57.5 43t-20.5 92t7 118t34.5 129t68.5 97t109 25q33 -8 59.5 -44t36.5 -63q16 -35 21.5 -62.5t9.5 -62.5q0 -4 1 -11t1 -11q0 -20 -11 -30.5t-24.5 -11.5t-27 8t-15.5 28q-2 4 -2 13v15q-4 27 -7 46.5t-17 48.5q-16 37 -30.5 52 t-27.5 15q-23 0 -43 -31.5t-35.5 -77.5t-23.5 -97.5t-8 -92.5q0 -35 6 -49q29 18 52.5 60t37.5 77l4 6q23 35 51.5 31t28.5 -41q0 -20 2 -41.5t7 -40t13.5 -30t20.5 -11.5q16 0 51 37q49 57 77 154.5t28 197.5q0 59 -12.5 114.5t-37.5 96.5q-16 27 -35.5 48.5t-48.5 31.5 q-27 10 -47 14.5t-43 4.5q-43 0 -75.5 -21.5t-59 -56.5t-46 -79t-34.5 -89q-16 -57 -28.5 -118.5t-22.5 -117.5q-6 -49 -11 -108.5t-5 -120.5q0 -51 5 -102.5t16 -96.5t29.5 -81.5t47.5 -57.5q16 -6 33.5 -11t32.5 -5q47 0 91 29.5t87 64.5q16 14 32.5 27.5t34.5 23.5 q16 8 28.5 5t20 -14t6.5 -26.5t-14 -27.5l2 2q-27 -31 -58.5 -62t-68.5 -55.5t-75.5 -38.5t-79.5 -14q-31 0 -60.5 8t-58.5 29q-37 27 -62.5 75.5t-40 108t-20.5 126t-6 128.5z" />
<glyph unicode="A" horiz-adv-x="845" d="M-6 176q0 43 22.5 94.5t52 99.5t57.5 85t38 49q80 84 170 145q18 78 32.5 160t30.5 162q29 164 68 334q8 29 27.5 84t49 107t68.5 90q34 33 72 33q6 0 12 -1q10 -4 14.5 -6t12.5 -13q4 -10 7 -19l7 -21q8 -18 16.5 -40t10.5 -44q4 -74 5 -123t1 -90q0 -31 -1 -61 t-3 -65.5t-5 -81.5t-7 -108q-4 -35 -6.5 -55.5t-4.5 -54.5q68 20 136.5 31.5t140.5 19.5h2q20 0 31.5 -11.5t12.5 -25.5t-9.5 -27.5t-30.5 -15.5q-68 -8 -142.5 -20.5t-146.5 -34.5l-14 -215q-14 -156 -26.5 -309.5t-18.5 -309.5q0 -14 -1 -30.5t-3 -32.5q-2 -33 -4 -73 t-2 -77q0 -47 5 -91t18 -81t37 -61.5t60 -28.5q14 -12 19.5 -26.5t2.5 -27t-14.5 -19.5t-29.5 -5q-55 18 -90 51t-53.5 77t-25.5 96.5t-7 107.5q0 37 1 76t3 77q0 16 2 37t2 37q6 150 17.5 298.5t25.5 297.5l18 207q-66 -27 -129 -57.5t-120 -65.5q-10 -43 -20.5 -84 t-22.5 -82q-12 -39 -37 -109.5t-64 -134t-92 -100.5q-30 -21 -65 -21q-27 0 -58 13q-55 27 -55 90zM69 164q1 -8 7 -6h2l26 6q10 4 25.5 7t24.5 7q23 25 43 63t36.5 78.5t30 79.5t21.5 64q4 14 6 20t4 10.5t3 11.5t5 23q-23 -20 -42 -38.5t-38 -38.5q-31 -31 -49 -53.5 t-31.5 -44t-25 -46t-23.5 -55.5q-4 -4 -8 -15.5t-6 -17.5q-2 -4 -5 -14t-5 -21.5t-1 -19.5zM432 711q55 31 112.5 55.5t117.5 46.5l10 141l8 105q4 55 8 111.5t4 109.5q0 66 -6 127t-24 121q-29 -27 -52.5 -73t-41 -98t-30 -105.5t-20.5 -96.5q-2 -12 -5 -24.5t-5 -22.5 l-27 -139q-12 -63 -23.5 -128t-25.5 -130z" />
<glyph unicode="B" horiz-adv-x="991" d="M-8 492q0 186 39 366t116 344q18 37 45 82t61 85t75 70.5t88 43.5q41 10 76 10q51 0 97 -24.5t95 -79.5q39 -47 54.5 -128t15.5 -163q0 -70 -7.5 -133.5t-15.5 -102.5q-12 -59 -29.5 -122.5t-44.5 -123.5q-4 -8 -6 -14t-6 -16q20 8 42 16t40 12q29 9 54 9q16 0 32 -4 q39 -9 68.5 -33.5t49 -61.5t25.5 -73v2q3 -22 3 -45q0 -37 -8 -78q-13 -66 -46 -131.5t-80 -127t-104 -107.5t-120.5 -73.5t-127.5 -27.5q-39 0 -76 10q-55 16 -88 67.5t-33 106.5q0 39 17.5 74t54.5 57q45 29 94.5 40t100.5 11q66 0 131 -15t125 -38q39 55 60.5 116.5 t21.5 117.5q0 51 -25 94q-12 23 -31.5 30t-42.5 7q-39 0 -81 -15.5t-74 -31.5l-9 -2q-6 -2 -18 -15q-10 -10 -22.5 -14t-34.5 2q-17 10 -21 17q-7 10 -6 23q0 27 20 59q22 34 33 59q10 16 11 16q18 41 36.5 95t32 115.5t22.5 127t9 127.5q0 68 -13.5 128t-43.5 103 q-33 45 -65 63.5t-66 18.5q-41 0 -80 -24.5t-75 -61.5t-66.5 -81t-51.5 -81q-66 -152 -111 -333t-45 -357q0 -86 11.5 -170t36.5 -162v-6q0 -35 -31 -40t-49 24q-20 88 -29.5 179t-9.5 188zM354 57q0 -41 33 -76.5t74 -39.5q8 -1 15 -1q64 0 134 45q78 50 142 121 q-47 18 -100.5 32t-106.5 14q-84 0 -158 -43q-33 -18 -33 -52z" />
<glyph unicode="C" horiz-adv-x="1206" d="M0 444q0 129 47 261q18 55 41 98t45 86q12 23 24.5 47.5t24.5 46.5q25 47 87.5 120t161.5 149.5t234.5 145t301.5 109.5h4q37 0 42 -28.5t-28 -51.5q-152 -31 -288 -99t-248.5 -166.5t-195.5 -220.5t-130 -259q-18 -49 -32.5 -117.5t-14.5 -140.5q0 -47 10 -93t37 -81 q45 -59 103.5 -82t119.5 -23q55 0 113.5 12.5t109.5 26.5q70 20 159 57.5t178 82.5t171 94t142 92q16 8 29.5 4t20.5 -15.5t6 -27.5t-13 -29q-94 -72 -194.5 -132t-213.5 -109q-53 -23 -115.5 -47.5t-128 -44t-133 -31.5t-129.5 -12q-92 0 -169 32.5t-130 118.5 q-27 53 -38 109.5t-11 117.5z" />
<glyph unicode="D" horiz-adv-x="1144" d="M-2 850q0 23 1 50.5t3 68.5l6 170q4 68 17.5 140.5t35.5 137.5q47 133 121 188.5t154 55.5q55 0 111.5 -20.5t110.5 -56.5t104.5 -81t91.5 -94q170 -201 258 -412t88 -442q0 -240 -105 -510q-10 -25 -31.5 -74t-52 -108.5t-67.5 -122t-77 -112.5t-81 -82.5t-80 -32.5 q-16 0 -27.5 9t-21.5 15h-2q-14 14 -16 29.5t4 27t18 16.5t31 1l20 -14q49 18 97.5 79.5t89.5 135t72.5 145.5t48.5 115q49 127 74.5 247.5t25.5 239.5q0 211 -84 411.5t-244 387.5q-23 25 -63.5 63.5t-86.5 75.5t-91 63q-39 22 -66 22q-4 0 -8 -1q-94 -12 -151.5 -57 t-90.5 -131q-31 -98 -47 -224.5t-16 -265.5q0 -131 13 -269t35.5 -269.5t52.5 -249t65 -209.5q10 -23 25.5 -52.5t31.5 -56.5l31 -55l2 -4q4 -16 -1 -29.5t-15.5 -19.5t-26 -4t-29.5 16q-51 94 -89 185t-65.5 184.5t-46 191.5t-28.5 209l-17 205q-6 66 -9 99.5t-3 74.5z" />
<glyph unicode="E" horiz-adv-x="915" d="M-2 721q-2 24 -2 49q0 64 14 136q20 102 70.5 210.5t132.5 223t195 227.5q59 59 133.5 99t146.5 40q61 0 110.5 -35t78.5 -121q6 -18 -1.5 -32.5t-20.5 -20.5t-28.5 -1t-25.5 26q-16 37 -29.5 59.5t-24 33.5t-18.5 13t-16 2q-33 -2 -67 -14t-66.5 -29.5t-63.5 -39 t-55 -40.5q-63 -57 -132 -144t-126.5 -188.5t-95 -210t-37.5 -206.5q0 -92 36 -166q29 -59 85.5 -83t127.5 -24q59 0 126 12.5t133 26.5q72 14 138 24q42 7 76 7q20 0 37 -2q20 -8 30.5 -17.5t10.5 -29.5q-16 -84 -63 -147.5t-98 -125.5q-41 -49 -82 -104t-64 -115 q-5 -14 -5 -30t5 -34q10 -34 39 -48q18 -6 48 -9t59 -6l63 -6q16 -4 24.5 -16t8.5 -25.5t-10.5 -25t-30.5 -13.5l-59 6q-31 4 -66 7.5t-64 11.5q-55 16 -79.5 49t-24.5 80q0 45 24.5 100.5t59.5 109.5t73 102t66 83l33 39q16 20 29.5 43t23.5 45h-11q-29 0 -63 -8 q-42 -10 -83 -20l-48 -13q-70 -14 -135 -25.5t-127 -11.5q-61 0 -114.5 14.5t-95.5 51.5t-68.5 99.5t-36.5 156.5z" />
<glyph unicode="F" horiz-adv-x="1107" d="M-5 500.5q-1 13.5 5 25t19.5 15.5t29.5 0q12 -6 23 -15q10 -6 19 -13t18 -11q27 -18 53 -33.5t61 -26.5q35 -10 80 -14q16 141 40 279.5t50 259.5q4 18 20.5 86.5t44 157.5t65.5 184.5t85 170.5q46 74 102 114q36 26 75 26q21 0 44 -8q57 -31 101.5 -82t72 -115.5 t42 -134.5t14.5 -137q0 -113 -23 -193q-29 -98 -93 -212.5t-153.5 -215t-197 -173.5t-221.5 -87q-6 -57 -9.5 -92t-3.5 -66q0 -16 1 -31.5t1 -35.5l5 -92q82 39 170 60.5t180 31.5t187 13t192 5q63 2 125.5 3t126.5 6q20 0 32.5 -11.5t14.5 -26t-7.5 -27.5t-29.5 -15 q-121 -6 -252 -7q-143 0 -285.5 -6t-277.5 -43q68 0 136 -5t129.5 -24.5t111 -60.5t77.5 -112q8 -18 10.5 -42t2.5 -46q0 -31 -2 -55.5t-7 -43.5q-6 -33 -19 -84t-35.5 -107.5t-52.5 -113.5t-67 -103t-81 -75t-95 -29q-57 0 -121 45q-53 37 -87.5 92.5t-58.5 118t-38 128 t-25 124.5l-16 107q-8 37 -12 75.5t-8 79.5l-17 -6l-4 -4l-45 -27l2 41q-10 10 -8 28.5t22 33.5q8 4 14.5 10t16.5 12l19 15q1 27 1 50v20q-1 30 -1 55v50t1 49t4 57.5t7 76.5q-51 4 -96 21q-37 14 -70 32.5t-61 38.5q-12 10 -27.5 18.5t-28.5 16.5l-2 2q-14 14 -15 27.5z M369 -92q2 -78 12 -166q2 -35 9 -88t19.5 -112.5t31 -119t47 -108.5t67.5 -80t90 -33h4q57 1 107 53q52 54 90.5 135t61 171t22.5 159q0 39 -6 62h-2q-12 43 -44 72.5t-75 48t-95.5 27t-107.5 8.5q-59 0 -119.5 -8.5t-111.5 -20.5zM381 432q104 16 198.5 82t171 157 t131 193.5t76.5 190.5q8 35 13.5 79t5.5 93q0 57 -8 116.5t-26.5 112.5t-50.5 96t-77 66q-10 -4 -21.5 -6t-21.5 -6l2 2q-23 -6 -40 -14.5t-29 -22.5q-41 -53 -78 -136t-67 -173.5t-53.5 -174.5t-35.5 -139q-29 -129 -51.5 -258t-38.5 -258z" />
<glyph unicode="G" horiz-adv-x="1423" d="M-8 -455q0 35 12 66q43 102 121 175t174 125t201.5 87t204.5 63q115 31 231.5 53.5t239.5 39.5q-14 90 -38 166.5t-53 142.5q-8 18 -22 36.5t-31 37.5l-10 6q0 -2 -12.5 -7.5t-27.5 -11.5t-29.5 -12t-20.5 -8q-47 -25 -97.5 -53.5t-95.5 -55.5q-117 -66 -228.5 -124 t-240.5 -85q-24 -5 -45 -5q-33 0 -59 11q-43 19 -70.5 54t-40 79t-12.5 83q0 94 45 214.5t122 240.5t177 223.5t211 160.5q37 18 83 40t95 38t99.5 27.5t97.5 11.5q80 0 137 -39t72 -143v-2q0 -23 -11.5 -33t-26 -11t-27.5 8t-15 30q0 4 -1 8t-1 8q-2 29 -15 49 q-14 16 -41.5 24.5t-58.5 8.5q-49 0 -105.5 -12.5t-107.5 -30t-89 -33.5t-50 -22q-90 -51 -180.5 -137.5t-163 -191t-118.5 -219t-48 -220.5q0 -29 9 -55.5t26.5 -47t42 -31t55.5 -6.5q104 16 204.5 66.5t196.5 109.5q37 20 72 41t70 39l28 15h-2q27 14 62 34.5t71.5 35 t68.5 16.5t52 -17q39 -39 68 -91t49.5 -110.5t33.5 -120t21 -120.5q78 8 156 11t158 3q76 0 148.5 -2t144.5 -10q16 -4 24 -16.5t7 -25.5t-11 -24.5t-29 -13.5q-74 8 -148.5 11t-152.5 3q-139 0 -286 -12l4 -41q4 -41 6 -86t2 -88q0 -160 -32 -311.5t-102.5 -269 t-187 -189.5t-284.5 -72q-47 0 -95.5 5.5t-101.5 17.5q-111 27 -213 78t-174 145q-16 23 -32.5 54.5t-30 68.5t-21.5 75t-8 70zM70 -489q0 -57 30.5 -120t102.5 -128q78 -72 201.5 -111t250.5 -39q141 0 250 51q47 23 85 61t71 83q74 106 106.5 253.5t32.5 307.5 q0 53 -4 105.5t-10 105.5q-205 -25 -397.5 -74t-368.5 -127q-72 -31 -136.5 -70.5t-111.5 -87t-74.5 -100.5t-27.5 -110z" />
<glyph unicode="H" horiz-adv-x="1175" d="M-6 270v12q0 31 8 62q10 37 28.5 71t45 62.5t57.5 48.5h-2q23 12 45.5 19.5t44.5 11.5q14 4 27.5 7t25.5 7q16 4 40 -1t51 -13l32 -10v47q0 174 -17.5 347t-39.5 343v-2l-7 24.5t-3 24.5q-4 23 -7.5 47.5t-11.5 42.5q-23 6 -28 37q0 12 -2 19q0 4 -1 8t-1 8q4 29 24.5 39 t38.5 -6q29 -35 46.5 -76t27.5 -85t14 -90t8 -89l6 -78q14 -129 23.5 -258t9.5 -258q0 -20 -1 -34.5t-1 -33.5q80 -33 160 -94t145 -133l72 18q8 113 18.5 223.5t25.5 224.5t34.5 234.5t46.5 255.5q0 4 1 8.5t1 6.5q6 33 14 78t21.5 83.5t33 62.5t46.5 15v2q35 -10 39 -36.5 t-29 -40.5q-12 -27 -27.5 -94.5t-32 -160t-33 -202t-31.5 -223t-27.5 -222t-18.5 -198.5v-4q70 14 139.5 23t140.5 9q35 0 70 -3t66 -7q57 -10 116.5 -32.5t111.5 -58.5t91 -81t57 -96q4 -16 -1 -29.5t-15 -19.5t-24.5 -4t-26.5 14q-10 14 -20.5 29.5t-20.5 31.5 q-20 29 -38.5 56.5t-47.5 48.5q-53 39 -127 54.5t-160 15.5q-78 0 -156.5 -8.5t-162.5 -24.5q-4 -37 -6 -70t-5 -70q18 -39 33 -88t15 -92q0 -29 -10.5 -53.5t-37.5 -40.5q-8 0 -14 1t-18 7q-29 20 -38 76.5t-9 112.5q0 16 1 29.5t1 27.5q-27 57 -84 123 q-49 -10 -100.5 -21.5t-98.5 -21.5q-16 -4 -45 -11.5t-70 -15.5l-4 -20q-14 -78 -25.5 -159t-13.5 -163q-16 -35 -44.5 -32.5t-35.5 36.5q4 174 35 326q-31 -4 -61.5 -6t-61.5 -2q-47 0 -89 7t-73.5 24.5t-52 46t-20.5 73.5zM74 274q4 -45 50 -61t112 -16q33 0 66.5 4 t66.5 8l2 4v2q10 63 15 127t9 123q-2 2 -10 2q-23 6 -43 10t-39 4q-45 0 -88 -14t-76 -40q-33 -27 -51 -65q-15 -32 -14 -70q-1 -9 0 -18zM453 225l75 17q4 0 7.5 1t7.5 1q25 4 52.5 10t51.5 14l41 8q-51 49 -103.5 88t-111.5 68l-2 -55q-4 -41 -8 -72t-8 -61zM840 227l4 -8 q0 2 1 3t1 5q-2 0 -2 1t-4 -1z" />
<glyph unicode="I" horiz-adv-x="890" d="M-4 354q-2 18 5 31.5t18.5 19t24.5 2t26 -17.5q8 -16 15 -35.5t15 -40.5v2q12 -35 25.5 -68.5t38.5 -60.5q41 -47 104 -47q27 0 55.5 9.5t53.5 21.5q-14 72 -31.5 149.5t-34.5 149.5v-2q-8 29 -15 58.5t-13 58.5l-17 71q-10 43 -21.5 95.5t-21.5 108.5t-16 112.5 t-6 105.5q0 78 17.5 144.5t60.5 113.5q41 45 82.5 63.5t87.5 18.5q70 0 137 -42t121.5 -103.5t90.5 -130t46 -121.5q8 -41 12 -81t4 -79q0 -111 -30.5 -212t-83 -192t-124 -172t-151.5 -153l-8 -8q2 -14 4 -31.5t4 -32.5v-2q0 -20 -11 -31.5t-25.5 -11.5t-27 9.5t-14.5 27.5 v2q-2 14 0 14.5t-2 14.5q-57 -23 -121 -23q-49 0 -93 16.5t-73 57.5q-23 31 -39 68t-30 71q-4 8 -4 10.5t-2 7.5t-9.5 19.5t-23.5 44.5zM281 1077q0 -104 23.5 -219t43.5 -199l14 -59l27 -111q16 -72 30.5 -135t29.5 -141q70 51 129 128t104 166t70.5 185t25.5 189 q0 31 -3 62.5t-11 60.5q-8 39 -37 96t-72 110.5t-94 90t-106 36.5q-31 0 -60.5 -12t-58.5 -45q-31 -33 -43 -85t-12 -118z" />
<glyph unicode="J" horiz-adv-x="1343" d="M4 -145q0 63 12.5 129.5t32.5 121.5q27 66 66 123.5t80 104.5q53 57 132 102t173 74t197.5 44t205.5 15h59.5t57.5 -4q-4 23 -4 40.5t-4 39.5q-12 88 -29.5 180.5t-44.5 180.5q-25 90 -47.5 161.5t-49 132t-59 111.5t-75.5 98q-20 23 -50 23q-27 0 -55.5 -13.5t-55 -34 t-49 -42t-34.5 -39.5q8 -18 -5.5 -39t-43.5 -16q-43 8 -47.5 30.5t12 47t41 48t39.5 35.5q43 41 89 73t103 32q31 0 68 -15q82 -59 143.5 -170.5t107.5 -243.5t75.5 -271.5t46.5 -251.5l4 -37q8 -33 10 -72q92 -16 171 -51t148 -99q12 -16 12.5 -30.5t-8 -23.5t-23.5 -12 t-32 3q-49 41 -123.5 76t-140.5 51q4 -47 5 -93t1 -100q0 -98 -7 -199.5t-21.5 -194.5t-37 -174t-55.5 -136q-37 -66 -83 -128.5t-102 -112.5t-124 -81.5t-147 -38.5q-16 -1 -32 -1q-110 0 -197 48q-99 56 -166.5 148t-103.5 211t-36 240zM84 -145q0 -80 17.5 -161 t53 -153.5t88 -130t122.5 -92.5q37 -16 79 -26q27 -5 53 -5q16 0 33 2q154 27 253.5 121t156.5 226.5t78.5 290t21.5 311.5q0 63 -2 124.5t-8 120.5q-35 4 -66.5 7.5t-66.5 3.5q-90 0 -181 -16.5t-175 -45.5t-157 -67.5t-128 -85.5q-39 -39 -75 -94.5t-58 -104.5 q-18 -49 -28.5 -107.5t-10.5 -117.5z" />
<glyph unicode="K" horiz-adv-x="937" d="M4 229q2 35 18.5 77t42 84t59.5 81t71 70q6 141 6 284q0 133 -6 267l-5 92l-14 233v39q0 18 -1 39t-7 39q-4 20 6 31.5t24.5 13.5t29 -7t20.5 -30q2 -12 5 -42t5 -65.5t4 -73.5t4 -67v-49q4 -90 6 -183t2 -181v-146.5t-2 -144.5q43 20 86 26q98 131 182.5 271.5 t149.5 283.5q39 86 68.5 179.5t52.5 189.5q0 2 2 8t2 11q2 16 6 30.5t17 24.5l2 2q16 14 31.5 13t24.5 -10t10 -25.5t-11 -32.5q-4 -4 -6 -23.5t-6 -40.5l-6 -35q-20 -84 -48 -161.5t-63 -157.5q-63 -141 -145 -275.5t-175 -257.5q49 -12 95 -57q68 -66 113.5 -142.5 t78.5 -158.5t55.5 -167t42.5 -171l29 -127q0 -37 -30.5 -43t-49.5 23q-10 35 -17 72.5t-15 74.5q-16 66 -33 134.5t-39.5 135t-51 128t-67.5 112.5q-43 53 -86 80.5t-84 32.5q-41 -53 -82 -101l-33 -39l-6 -6q-2 -61 -4 -122.5t-6 -123.5q-4 -121 -8 -248.5t-6 -250.5 q-16 -33 -45 -32t-35 36q2 123 7 246.5t11 246.5q2 45 4 78t4 82q-25 -27 -58.5 -55.5t-61.5 -50.5q-18 -10 -39 0t-25 32zM147 369l46 47v14q-20 -25 -46 -61z" />
<glyph unicode="L" horiz-adv-x="1222" d="M6 543q0 -2 2 5t6 17q4 6 9.5 9.5t15.5 13.5l37 4q33 0 44 -22.5t-5 -39.5q37 -25 86 -35t98 -10q72 0 139.5 15.5t112.5 34.5q8 55 14 110t13 111q14 123 29.5 241.5t33.5 210.5l6 31q6 35 16.5 85t24.5 105.5t33.5 108.5t44.5 94q26 40 56 64q24 19 52 19q7 0 15 -1h-2 q57 -10 112.5 -63.5t96.5 -128.5q40 -74 64 -157q20 -71 20 -131v-20q-18 -258 -160.5 -447t-390.5 -288q-8 -61 -17.5 -115.5t-23.5 -113.5q53 -23 106.5 -51.5t103.5 -60.5t97 -63.5t86 -58.5q43 -35 80 -55q16 -14 21 -30.5t0 -29t-19 -18.5t-33 4q-37 23 -77 50.5 t-74 50.5q-80 57 -151 104t-157 82q-10 -45 -25.5 -95t-33.5 -104q-16 -47 -41 -101t-57.5 -104.5t-75.5 -93.5t-94 -65q-26 -10 -51 -10q-14 0 -28 3q-38 9 -68.5 33.5t-50 58.5t-23.5 64q-4 39 -8.5 78t-4.5 80q0 96 32 183t126 149q88 53 186 53q80 0 158 -27 q10 47 15 83t14 87q-53 -18 -113.5 -29t-120.5 -11q-80 0 -155.5 23.5t-135.5 80.5q-16 20 -10 37v-4zM90 -94q0 -72 19 -129q16 -43 39.5 -65.5t46.5 -22.5q37 0 75.5 29.5t67.5 72.5q53 78 92 182.5t66 223.5q-33 10 -63 15t-64 7q-14 1 -27 1q-55 0 -97 -20 q-52 -26 -87 -70t-51.5 -103.5t-16.5 -120.5zM639 575q88 45 170 105.5t144.5 138.5t102.5 177.5t44 224.5v9q0 36 -14 94q-16 64 -46 128t-70 115t-87 65q-20 8 -39 -14.5t-35 -61t-29.5 -89t-25 -99.5t-18.5 -91t-11 -67l-4 -16v-4q-20 -111 -33.5 -221.5t-28.5 -225.5z " />
<glyph unicode="M" horiz-adv-x="1273" d="M2 422q0 106 24.5 212.5t63.5 211.5q-2 39 -5 82t-7 82q-6 70 -10.5 143.5t-6.5 149.5v4q2 18 13.5 27t25 9t25.5 -8t16 -24q2 -70 7.5 -141.5t11.5 -139.5v-12q18 41 45.5 88t61.5 84t75 52q18 6 37 6q25 0 53 -11q39 -23 66.5 -70t46 -108.5t31 -128t20.5 -127.5 q10 -72 18.5 -126t18.5 -54q16 0 54 77.5t97 227.5q20 49 39 102t37 105q41 119 84 234.5t103 215.5q20 31 37.5 32t31.5 -16.5t24.5 -46t17.5 -58.5t11.5 -53.5t4.5 -29.5q10 -109 14 -216t4 -218v-92t-2 -92q-2 -98 -5 -186.5t-3 -143.5q-4 -57 -5 -104.5t-1 -94.5 q0 -39 1 -82t4 -96t7 -120.5t10 -153.5l4 -70v2q4 -72 12.5 -160t29 -173t56 -153.5t97.5 -99.5q12 -16 12 -30.5t-8 -24.5t-22.5 -13t-30.5 5q-59 27 -100.5 94.5t-68 158.5t-42 198.5t-22.5 214t-9 202.5t-2 168q0 29 -1 50.5t-1 37.5q-2 86 -3 136.5t-1 84.5q0 29 1 50.5 t3 44.5q0 16 1 37.5t3 51t3 71.5t1 102q0 20 1 42.5t1 45.5q2 47 2 94v96q0 104 -5 208t-28 198q-49 -92 -84.5 -188.5t-66.5 -192.5q-16 -49 -33.5 -100.5t-36.5 -100.5q-41 -109 -75.5 -183.5t-62.5 -121.5t-51.5 -67.5t-41.5 -20.5q-25 0 -41.5 22.5t-28.5 61.5t-22.5 90 t-18.5 106q-10 66 -22.5 132.5t-29.5 122t-40 92t-55 41.5q-57 -49 -107.5 -135.5t-89.5 -188.5q6 -102 6 -197q0 -102 -6 -200q-2 -20 -9 -72.5t-20.5 -106t-35 -89t-50.5 -23.5q-14 8 -22 20q-16 59 -25.5 117.5t-9.5 120.5zM76 370.5q0 -12.5 2 -24.5q10 66 15 128.5 t7 123.5q-24 -111 -24 -205v-22.5z" />
<glyph unicode="N" horiz-adv-x="1490" d="M-2 -182q8 88 23.5 194.5t36 220t48 231.5t62.5 228v-4q8 141 12 281v30q0 33 1 80t11 86t34 59q11 9 25 8q18 0 42 -13l2 -2q14 -12 19 -26.5t2 -27t-14 -18.5t-30 -2q-6 -27 -9 -84.5t-7 -114.5q47 111 122 235t212 263q31 31 68.5 56.5t79.5 46t87 31.5t90 11 q72 0 135.5 -32.5t104.5 -110.5q70 -129 101.5 -259t54.5 -274q23 -147 38 -308t27 -314q8 -104 16.5 -208t18.5 -208q0 -20 -11 -31.5t-25.5 -12.5t-28 8t-15.5 28q-8 76 -15 168t-13 194q-10 150 -24.5 319t-39.5 330.5t-62.5 300t-93.5 224.5q-35 53 -82 81.5t-104 28.5 q-35 0 -78 -16q-74 -29 -138.5 -81t-118.5 -117.5t-98 -138.5t-77 -140q-47 -88 -81 -172t-62 -170l2 4q-14 -160 -44 -323.5t-65 -321.5l-12 -60q-8 -43 -18.5 -87t-30.5 -85v4q0 -4 -1 -7t-1 -5q-23 -20 -46.5 -13t-29.5 36z" />
<glyph unicode="O" horiz-adv-x="1253" d="M16 479q0 147 28 282.5t83 282.5q25 61 59.5 135t75.5 130q59 82 128 160.5t159 132.5q14 8 54 20t75 12t48 -18q3 -5 3 -12q0 -20 -29 -58q-18 -25 -39.5 -17.5t-29.5 25.5q-16 -4 -36 -17t-38 -26l-10 -8q-61 -49 -120.5 -111.5t-100.5 -127.5h2q-104 -170 -170 -370 t-70 -398q0 -43 6 -96.5t22.5 -102.5t45 -89t76.5 -61q58 -22 117 -22h5q88 0 180.5 36t179.5 95t162.5 138t129.5 166q56 87 82 176q19 65 19 124q0 23 -3 45q-12 84 -60.5 165t-118 143.5t-150.5 101.5t-156 39q-53 0 -97 -21q-20 -4 -32.5 5.5t-15.5 23.5t4.5 28.5 t25.5 22.5q55 12 111 12q106 0 203.5 -44t174 -115.5t128 -163.5t65.5 -191v2q4 -16 4 -33.5v-35.5q0 -117 -54.5 -229.5t-137 -209t-185 -172t-196.5 -120.5q-61 -25 -125 -46.5t-138 -21.5q-70 0 -153 29q-35 12 -66.5 41.5t-57.5 66.5t-42 77t-18 73q-6 76 -7 147z" />
<glyph unicode="P" horiz-adv-x="1026" d="M6 -139q2 174 14.5 350t34.5 344q-4 98 -8 197.5t-8 197.5q-2 49 -2 99.5v99.5t-1 99t-3 100q0 23 22.5 34t42.5 -4l6 -8l9 -16q2 -51 2 -102.5v-100.5t1 -99.5t3 -99.5v-16v-21.5t-2 3.5q0 -6 2 -15q2 8 5 17.5t5 15.5h-2l14 43q16 53 39 118.5t53.5 132t69.5 130 t88 111t109 73.5q53 23 117 24q10 0 20 -1q84 -6 151.5 -49t113.5 -109q46 -67 68 -149q18 -65 18 -132q0 -18 -1 -36q-12 -119 -46 -252t-98.5 -254t-163.5 -219.5t-241 -147.5q-20 -4 -31.5 5t-12.5 23.5t7.5 29t26.5 24.5q109 33 195 119t147 199.5t96 239.5t41 241v12 q1 58 -17 120q-20 68 -56.5 125.5t-89 95.5t-113.5 38q-74 0 -148 -55q-72 -53 -128 -147.5t-99 -211t-72.5 -248t-48.5 -258.5q8 -168 15.5 -352t7.5 -360q0 -139 -6 -272.5t-21 -256.5q-10 -18 -26.5 -25t-43.5 7q-39 132 -48 272q-7 114 -7 227v50z" />
<glyph unicode="Q" horiz-adv-x="1118" d="M2 664q0 82 8 164.5t22.5 157.5t34 138.5t42.5 108.5q33 61 66.5 114.5t74.5 95.5t96 73.5t131 50.5q27 6 64 6q61 0 130.5 -20.5t129 -56.5t100.5 -86.5t45 -111.5q0 -20 -11 -31.5t-25.5 -12.5t-28 8.5t-15.5 27.5q-4 57 -47 97t-102.5 64t-122.5 32q-35 5 -65 5 q-22 0 -40 -3q-49 -6 -95 -32t-81 -60q-53 -49 -96 -130t-73.5 -180.5t-47 -210t-16.5 -219.5q0 -135 29.5 -253.5t91.5 -190.5q31 -31 65.5 -48.5t67.5 -17.5q61 0 123.5 40t120 95.5t103.5 116t77 101.5q37 51 66.5 99t58.5 101v-2l6 17q4 41 8 84l8 86q2 31 5 63.5 t5 63.5l7 69q2 43 7 85t16 76t28.5 53.5t48.5 13.5q35 -6 49 -46t14 -96q0 -41 -5 -85t-11 -82t-12 -63.5t-8 -31.5v2q-8 -31 -15.5 -54.5t-14.5 -44t-16.5 -40t-21.5 -43.5l-12 -25q-2 -23 -5 -46l-6 -46q-14 -131 -25 -260t-11 -258q0 -35 1 -67.5t3 -65.5 q6 -96 40.5 -162.5t112.5 -66.5q39 0 82 14q35 10 60.5 25.5t54.5 33.5h-2q10 6 20.5 14.5t20.5 12.5q20 10 34.5 5t20.5 -17.5t3 -28.5t-21 -29l-23 -12q-35 -25 -64.5 -43t-82.5 -37q-55 -22 -105 -22h-4q-72 0 -118 37.5t-72.5 98t-36.5 138.5t-10 158q0 78 6 150.5 t12 127.5l6 56v10q2 25 3 48t5 50l-47 -65q-33 -45 -83 -107.5t-110.5 -122t-128 -103.5t-130.5 -53q-17 -2 -33 -2q-79 0 -137 41q-70 48 -114 132.5t-63.5 196.5t-19.5 233zM995 1065q4 16 5.5 29.5t3.5 27.5q-4 -12 -5.5 -26.5t-3.5 -30.5zM995 1227q6 -8 8.5 -24.5 t2.5 -37.5q0 -10 -1 -21t-1 -22q4 35 11 64t15 45z" />
<glyph unicode="R" horiz-adv-x="960" d="M-11 1565.5q3 13.5 12 21.5t23.5 8t30.5 -12q68 -82 124.5 -179t103.5 -208q70 106 158.5 191.5t203.5 136.5q21 8 42 8q27 0 55 -12q50 -22 73 -68v2q20 -39 27.5 -81t7.5 -87q0 -59 -9.5 -112.5t-19.5 -100.5q-23 -98 -63.5 -182t-83.5 -168q-20 -35 -38 -70t-36 -69 q-6 -18 -10 -41t6 -39q23 -20 61.5 -33.5t84.5 -22t93.5 -12.5t84.5 -6q12 0 27.5 -1t25.5 -1q16 -4 24.5 -16.5t8.5 -25.5t-10.5 -24.5t-28.5 -13.5q-47 4 -96.5 7t-96.5 7q-4 0 -8 1.5t-8 1.5q-137 16 -192.5 53t-55.5 98q0 45 25.5 102.5t64.5 129.5q35 66 67.5 133 t53.5 139q6 18 14 49t14.5 69t11.5 80t5 80q0 70 -22 116q-16 35 -53 35q-11 0 -25 -3h2q-45 -12 -90.5 -43t-86 -71t-75.5 -85t-58 -84l-36 -67q47 -129 76.5 -259t35.5 -247v-2q0 -4 2 -8q4 -31 11.5 -104t7.5 -165q0 -55 -5.5 -113.5t-17.5 -113.5t-31.5 -104.5 t-50.5 -85.5q-23 -20 -47 -37t-45 -17q-33 0 -64.5 31t-62.5 76q-25 37 -44 89t-32.5 111.5t-21.5 120t-8 113.5t6 88q4 23 7 45.5t7 44.5q10 66 21.5 131.5t33.5 130.5q29 78 59.5 152t71.5 143q-88 236 -235 416l-2 4q-8 16 -5 29.5zM104 379q0 -104 21.5 -203.5 t71.5 -185.5q27 -49 55 -49q20 0 40.5 22.5t36 57t26 73.5t14.5 74q6 45 8 90t2 90q0 166 -27.5 334t-79.5 326q-31 -53 -54 -105.5t-42 -105.5q-31 -92 -51.5 -198.5t-20.5 -219.5z" />
<glyph unicode="S" horiz-adv-x="999" d="M-10 -35q0 43 18.5 84t49 76t68.5 62.5t79 43.5q133 47 254 71t262 24h46t48 -2q-20 35 -43.5 66.5t-48.5 60.5q-18 23 -60 59.5t-90 77.5q-59 51 -121.5 109.5t-114.5 121t-86 131t-34 142.5q0 25 5 51t18 55q20 51 61 99.5t90 90.5t101.5 78.5t97.5 67.5 q72 45 144.5 79t158.5 44h2q20 0 31.5 -11.5t12.5 -25.5t-8 -27.5t-30 -15.5q-74 -8 -164 -49t-174 -100.5t-151.5 -129t-98.5 -131.5q-14 -31 -14 -71q0 -25 4 -46.5t10 -41.5q12 -37 40 -74t57 -72l14 -20q55 -61 119 -113l59 -51q8 -6 15.5 -15.5t15.5 -17.5 q33 -31 74 -69.5t80.5 -85t73.5 -96.5t54 -101l3 -6q14 -37 14 -82q0 -63 -31 -125q-33 -66 -93 -131.5t-138 -118.5t-166 -87t-176 -34q-80 0 -154 32t-139 107v-2q-23 27 -34 57.5t-11 61.5zM74 -25v-7q0 -38 20 -68q22 -32 58 -55t78 -36.5t79 -15.5h-2q11 -1 23 -1 q67 0 134 20q79 24 148.5 67t125.5 103.5t91 130.5q10 23 14.5 44t4.5 44q0 10 -1 21t-3 24q-25 2 -55.5 2h-55.5q-127 0 -257 -22.5t-243 -67.5q-29 -12 -55 -29.5t-49 -41.5t-38 -51.5t-17 -60.5z" />
<glyph unicode="T" horiz-adv-x="1054" d="M-6 1208q0 25 16 74q37 74 130 124t206 82t226.5 46t193.5 18h23.5t31.5 2q6 0 11.5 1t11.5 1q18 6 35.5 8.5t31.5 -8.5q31 -2 62 -6t55.5 -15t40.5 -28.5t18 -44.5q0 -23 -11 -34t-25.5 -12t-27.5 8.5t-15 29.5v2q-16 6 -35 10t-39 9q27 -141 49.5 -288t22.5 -298 q0 -158 -36 -311.5t-128 -298.5h2q-41 -68 -98.5 -124.5t-125 -97.5t-145.5 -63.5t-160 -22.5q-18 0 -35.5 1t-33.5 3q-35 6 -35 35t33 45q27 -2 53 -2q139 1 242 55q123 64 204.5 171.5t126.5 242.5t58 266q4 27 4 50.5v50.5q0 117 -19.5 236.5t-42.5 242.5l-18 94l-31 -28 q-59 -55 -121.5 -109.5t-128 -101.5t-138.5 -84t-154 -58h2q-47 -12 -99 -12q-37 0 -70.5 8t-59 24.5t-42 43t-16.5 63.5zM70.5 1230q-13.5 -30 11.5 -50q20 -16 45 -23.5t49 -7.5q39 0 75.5 9.5t65.5 21.5q123 47 231.5 126.5t207.5 166.5q-70 -4 -144.5 -13.5t-145.5 -24 t-133.5 -33t-107.5 -38.5q-16 -6 -49 -27.5t-62.5 -49t-43 -57.5z" />
<glyph unicode="U" d="M-6 1069q0 72 9 131.5t32 77.5q16 14 45 4l22 -14q27 -23 15.5 -50.5t-41.5 -23.5q-2 -10 -2 -21.5v-23.5q0 -29 2 -59.5t4 -53.5q2 -8 2 -19v-18q2 -16 3 -36.5t1 -42.5q2 -78 8 -168t21.5 -179.5t43 -169t74.5 -135.5q16 -14 34 -23t34 -9q27 0 54.5 15t52 39.5 t46 53.5t38.5 53q98 156 165 308l-6 71l-12 148q-6 59 -11 124.5t-10 125.5q-2 33 -2 63.5v62.5v11v83t10 116q10 59 32 101q20 37 56 37q5 0 11 -1q49 -8 80 -47t48 -93.5t23.5 -116t6.5 -114.5q0 -29 -1 -53.5t-3 -40.5q-14 -123 -52.5 -242t-91.5 -235q0 -12 2 -24.5 t2 -25.5q10 -176 32 -354t95 -350q6 -18 -1 -32.5t-19 -19.5t-27.5 0t-25.5 23q-68 156 -92.5 307.5t-34.5 305.5q-23 -43 -46.5 -82t-48.5 -74l-14 -23q-14 -23 -38.5 -55.5t-56.5 -63t-72 -53t-85 -22.5q-31 0 -61.5 10t-65.5 39q-43 33 -71.5 101.5t-47 147.5t-30 158.5 t-17.5 137.5q0 4 -1 9t-1 13q-2 18 -4 50t-5 72t-5 84t-2 85zM690 1346q0 -45 2 -84t4 -68q0 -6 1 -10t1 -8q6 -121 19 -240l4 -64q39 121 61 244q19 104 20 212q0 19 -1 38q-4 6 -4 12v13v6q-4 20 -9.5 45.5t-13.5 48t-19.5 41t-29.5 29.5q-23 -18 -29 -81t-6 -134z" />
<glyph unicode="V" horiz-adv-x="1331" d="M6 1178q18 43 30.5 67.5t29.5 52.5l16 33q29 51 65.5 109.5t81.5 107.5t96.5 82t108.5 33q86 0 176 -92q49 -51 82 -124t54.5 -160t34 -184t17.5 -193.5t7 -189.5t2 -171v-94q0 -23 1 -43.5t1 -40.5q2 -88 5 -174t20 -174q33 51 70.5 135t76.5 183t76 206.5t68.5 209 t55 187.5t36.5 143q20 33 49.5 27t29.5 -45q-14 -68 -39.5 -164t-59.5 -203.5t-75 -220t-83 -216t-86 -189.5t-85 -139q-16 -27 -53 -13l-14 8q-6 4 -16.5 9.5t-14.5 13.5q-16 23 -25.5 78t-13.5 120.5t-4 132v111.5v133q0 72 -2 160t-7 182.5t-15.5 188.5t-30 180 t-49 156.5t-70.5 118.5q-31 35 -59.5 49t-57.5 14q-43 0 -83 -25.5t-76.5 -65.5t-68.5 -88t-57.5 -95.5t-43 -87t-25.5 -62.5q-8 -18 -22.5 -24.5t-27 -3.5t-21.5 15.5t-5 35.5z" />
<glyph unicode="W" horiz-adv-x="1214" d="M7 922.5q1 5.5 1 9.5v18l2 11q14 29 41 29.5t35 -29.5q10 -70 15 -147q4 -55 4 -101q0 -18 -1 -35q0 -16 -1 -41t-3 -41v2q-2 -31 -3 -61.5t-1 -63.5q0 -59 3 -109.5t20 -103.5q33 47 52 99.5t38 105.5q20 55 39.5 107.5t48.5 97.5q16 23 36.5 22.5t37.5 -26.5 q23 -47 38 -120t31 -153q14 -78 33 -156.5t42.5 -146t55 -118t76.5 -70.5q24 -11 47 -11q26 -1 50 13q46 26 88 78.5t77 122t60.5 136t43 121t23.5 76.5q39 129 47 254q2 18 2 34.5v33.5q0 147 -44 273t-124.5 225.5t-197.5 168t-264 99.5q-53 10 -102.5 14t-100.5 8 q-25 2 -48.5 3t-47.5 5q-18 2 -27.5 15.5t-8.5 28t12 25.5t32 11q23 -4 47.5 -5t48.5 -3q53 -4 107.5 -8t105.5 -14q199 -45 357.5 -160t242.5 -275q20 -41 37.5 -90t30 -104t19.5 -111.5t7 -107.5q0 -20 -1 -38t-3 -36q-23 -174 -74 -328.5t-122 -302.5q-16 -31 -43 -73.5 t-62 -81.5t-76 -67t-88 -28q-43 0 -90 29q-61 43 -102 104.5t-68.5 132t-44 146.5t-28.5 147l-19 93l-6 39q-6 43 -12 73q-16 -35 -31.5 -74.5t-28.5 -74.5q-23 -68 -50.5 -131.5t-74.5 -122.5q-20 -14 -37 -8q-25 6 -39 22.5t-22 39t-12 45.5t-6 46q0 2 -1 6t-1 7 q-6 53 -7.5 108t-1.5 113v186q0 45 -1 91t-5 93q-4 4 -3 9.5z" />
<glyph unicode="X" horiz-adv-x="1458" d="M0 1204q10 123 69.5 245t149.5 202v-2q63 57 135 57q63 0 120.5 -40t105 -99.5t81 -127t46.5 -120.5l26 -102q10 -41 20.5 -83t20.5 -87q10 -41 17.5 -87.5t15.5 -93.5q14 -82 28.5 -169t36.5 -160q61 102 110.5 178t90.5 139q53 84 93 148.5t71 128t56.5 136t52.5 171.5 l4 4q20 31 47.5 22.5t27.5 -49.5q-27 -96 -55.5 -172t-63 -144.5t-77.5 -139t-99 -158.5q-43 -70 -98 -157t-127 -204q29 -66 66 -114q57 -61 125 -62q35 0 70.5 10.5t74.5 22.5l37 12q39 0 48 -28.5t-23 -49.5q-47 -31 -116 -49q-39 -10 -74 -10q-28 0 -54 6 q-80 25 -126 74t-75 113q-102 -166 -192.5 -331t-169.5 -356q-10 -18 -24.5 -24t-27 -3t-21.5 16.5t-5 33.5q88 207 191.5 390t213.5 366q-8 14 -10 26q-29 82 -47 180.5t-37 204.5q-16 88 -32.5 178.5t-38 173.5t-52.5 156.5t-74 128.5q-47 61 -90 87t-82 26 q-55 0 -104 -43t-86 -105.5t-60.5 -136t-29.5 -135.5q-16 -33 -45 -31t-35 37z" />
<glyph unicode="Y" d="M2 -274q0 47 6 81v-2q8 53 46 105.5t94.5 100.5t124 91t136 78t131 60.5t109.5 40.5q23 8 50.5 14t52.5 10q-20 141 -50 284.5t-65 297.5q-29 -147 -74 -290.5t-106 -283.5q-12 -25 -31.5 -54.5t-45.5 -54t-56.5 -41t-65.5 -16.5q-51 0 -84 40t-53.5 96.5t-30.5 116 t-14 96.5v-2q-2 4 -2 11t-2 13q-2 8 -2 12q-12 84 -17.5 176.5t-5.5 190.5q0 78 2 157t6 156l6 205v2q2 20 14.5 30.5t27 9.5t25.5 -13t11 -33q0 -35 -1 -71.5t-3 -73.5q-2 -72 -3 -154t-1 -154q0 -104 4 -209.5t17 -211.5q2 -29 8 -67t13 -77t18.5 -74.5t27.5 -60.5v2 q4 -4 11.5 -8t17.5 -10h-2l18 -11l17 7q8 4 19 7t17 7q55 57 100.5 161.5t79 222.5t56 233.5t35.5 193.5q0 12 4 24q-10 51 -17.5 104.5t-7.5 96.5q0 37 7.5 64.5t25.5 40.5q25 16 41 8t25.5 -26.5t13.5 -41t4 -33.5v-38v-46.5t-1 -37t-3 -37t-6 -43.5l43 -193 q4 -20 15 -72.5t23.5 -111.5t22.5 -111.5t15 -72.5q25 -121 38 -236q4 -2 11.5 -4t13.5 -4q72 -25 96 -127q0 -39 -30.5 -44t-49.5 25q0 4 -1 7.5t-1 7.5q-2 2 -6 16.5t-6 24.5q-4 4 -5 6t-5 4l-4 2q12 -135 12 -266q0 -137 -16.5 -271.5t-55.5 -273.5q-12 -43 -39.5 -108.5 t-68.5 -127t-93.5 -106.5t-113.5 -45q-14 -2 -28 -2q-52 0 -100 25q-60 30 -112.5 87.5t-94.5 133t-71.5 157.5t-45 162t-15.5 146zM78 -301q0 -61 20.5 -137t55.5 -168q20 -49 47.5 -103.5t64.5 -99.5t85 -71q42 -24 92 -24q8 0 16 1q53 2 93 38t70.5 86t51.5 106.5 t33 99.5q39 135 55 265t16 259q0 66 -5 134.5t-11 135.5q-49 -6 -108.5 -23.5t-113 -39t-95.5 -41t-58 -27.5q-82 -51 -140.5 -97t-96 -93t-55 -96.5t-17.5 -104.5z" />
<glyph unicode="Z" horiz-adv-x="933" d="M-12 1231q29 92 83 157.5t113 116.5q66 55 141.5 89t147.5 34q78 0 145.5 -44t108.5 -142q20 -47 28.5 -112.5t8.5 -139.5q0 -68 -5 -136.5t-12.5 -131t-14.5 -116.5t-13 -91l-6 -35l-21 -107q31 8 62.5 17.5t60.5 17.5q39 0 45 -29.5t-26 -50.5l-158 -39l-14 -73 q-12 -66 -25.5 -132.5t-25 -129t-20.5 -115.5t-11 -92q-2 -16 -2 -31.5v-30.5q0 -194 115 -194h1q51 0 122 33.5t157 97.5q8 6 19.5 0t18.5 -18.5t10 -26t-5 -19.5q-18 -25 -55 -51t-82 -50t-92.5 -38t-88.5 -14q-66 0 -104.5 22.5t-60 58t-28.5 81t-7 92.5q0 25 1 51.5 t3 48.5q8 125 31.5 249t48.5 247q0 8 2 10q-59 -10 -115.5 -18.5t-112.5 -8.5h-4q-20 2 -29.5 15.5t-8.5 28t11.5 25.5t32.5 11q53 0 118 10.5t130 24.5q33 143 54.5 280.5t25.5 278.5q2 27 2 52.5v49.5q0 51 -6 100.5t-27 92.5q-31 72 -79 102.5t-101 30.5 q-61 0 -126.5 -30.5t-123 -79t-100.5 -106.5t-62 -114q-8 -16 -22 -23t-26.5 -4t-21.5 15t-5 33z" />
<glyph unicode="[" horiz-adv-x="362" d="M8 1483v63q0 63 8.5 103.5t37 62t82.5 26.5t149 3h6q16 -4 24.5 -16.5t8.5 -24.5t-9.5 -23.5t-27.5 -13.5q-66 0 -106 -2t-61.5 -13.5t-28.5 -32t-7 -56.5q0 -16 1 -32t1 -32q2 -27 2 -62.5v-70.5v-221q0 -31 1 -64t1 -67q0 -66 1 -141.5t1 -153.5t1 -150.5t3 -130.5 q2 -76 3 -148.5t5 -146.5q2 -53 3.5 -107.5t5.5 -109.5q2 -12 3 -28.5t5 -32.5l4 -37q2 2 14.5 4t30.5 5t39.5 6t40.5 5q12 2 30.5 4t14.5 2q20 0 31.5 -11t12.5 -25.5t-8 -27.5t-30 -15q-27 -2 -49.5 -5.5t-40.5 -7.5q-23 -4 -40 -6t-34 -2q-51 0 -73.5 34t-28.5 134 q-4 53 -6 109.5t-4 109.5q-4 123 -7.5 246t-5.5 240q0 35 -1 68.5t-1 68.5v608q0 33 -1 61.5t-1 53.5z" />
<glyph unicode="\" horiz-adv-x="489" d="M-6 1540q0 37 27.5 44t48.5 -23l2 -5q137 -393 226 -792t169 -801q2 -20 -6 -31.5t-21.5 -14.5t-28 4t-22.5 26q-80 408 -170 807t-225 786z" />
<glyph unicode="]" horiz-adv-x="333" d="M-19 -18.5q1 14.5 12 25.5t32 11q14 -2 26 -4t27 -6q23 -6 47.5 -12t42.5 -2q23 123 28 242.5t7 244.5v27q0 45 1 88t1 88q0 170 -4 338t-13 338v29q0 29 -2 71.5t-5 84.5t-8 74t-13 38q-16 10 -45 11t-52 -1q-18 0 -32.5 1t-22.5 9q-12 14 -14 27.5t5 25t20.5 15.5 t29.5 0q6 -6 29 -2q33 2 74 0t63 -29h-2q18 -20 29.5 -61t16.5 -87t6 -92.5t1 -76.5v-33q10 -170 17.5 -365.5t7.5 -386.5q0 -147 -6 -290.5t-23 -272.5q0 -4 -1 -8t-1 -8q-2 -31 -10 -63.5t-47 -49.5q-23 -10 -55.5 -7t-61.5 9q-35 8 -72 19l2 -2q-18 2 -27 15t-8 27.5z " />
<glyph unicode="^" horiz-adv-x="393" d="M-20 946q10 43 33.5 104.5t53 123t60.5 113.5t55 79h-2q18 23 35.5 17.5t34.5 -27.5l22 -80q31 -104 58.5 -207.5t48.5 -216.5q0 -18 -9.5 -29.5t-21.5 -13.5t-25.5 3t-21.5 22q-16 92 -38.5 180t-47.5 176l-16 59q-45 -76 -85 -156.5t-63 -164.5l-8 -10q-45 -35 -54 -27 t-9 55z" />
<glyph unicode="`" horiz-adv-x="215" d="M-2 1237l2 2q10 16 24.5 20.5t26.5 -1t19.5 -18.5t3.5 -30q18 -47 52 -91t73 -79q12 -16 11 -29.5t-10.5 -22.5t-23.5 -11t-31 6q-12 12 -41.5 46t-56.5 74t-44 78t-5 56z" />
<glyph unicode="a" horiz-adv-x="374" d="M-6 221q0 53 12 109.5t23 85.5q12 33 34.5 70.5t51 67.5t61.5 43q16 6 32 6q18 0 36 -7q11 110 55 110q5 0 10 -1q12 -4 19.5 -8.5t9.5 -13.5t0 -25.5t-6 -45.5q-4 -27 -10.5 -68.5t-14.5 -107.5q-2 -29 -3 -55.5t-1 -54.5q0 -78 11.5 -144.5t39.5 -101.5h-2q4 -4 15 -4 l24 -10l-2 2q33 -18 22.5 -46t-44.5 -28l-25 10q-10 4 -21.5 8t-19.5 11q-29 23 -45 73.5t-25 114.5q-16 -33 -33.5 -60.5t-39 -46t-46 -26.5t-51.5 0q-37 10 -52 51t-15 92zM76 248q0 -41 5 -71t15 -30t28.5 26t45.5 91v-2l8 21q6 20 11.5 38.5t11.5 38.5q8 29 20 73t17 73 l-25 26q-37 -6 -62.5 -35.5t-42 -71.5t-24.5 -89t-8 -88z" />
<glyph unicode="b" horiz-adv-x="540" d="M-256 498q0 23 8 32t25 13h-2q8 4 16 4q16 0 27.5 -8.5t15.5 -18.5q8 -2 18.5 -2h22.5q33 0 66.5 6t68.5 17v59q0 129 9.5 260t27.5 256q0 4 2 11.5t2 11.5q4 29 11.5 72.5t19.5 91t30.5 93.5t45.5 80q26 32 62 50q23 11 50 12q16 0 33 -4q51 -12 85 -48t53.5 -84 t27.5 -104.5t8 -107.5v-47.5t-4 -42.5q0 -63 -22.5 -140t-59.5 -152t-86 -142.5t-100 -110.5q-25 -20 -56.5 -39.5t-60.5 -34.5q4 -106 14.5 -202.5t30.5 -172.5q2 -16 9.5 -29.5t13.5 -27.5l14 -29q8 -2 15 -2q25 0 45 21q26 27 42 55q35 51 66 113.5t31 118.5 q0 35 -25 63.5t-84 38.5l-24 -12q-33 -4 -48.5 18.5t7.5 48.5q25 20 84 44t129.5 45.5t142.5 40t119 28.5l28 8q18 0 30.5 -9t16 -21.5t-3 -25.5t-22.5 -22q-29 -6 -72 -15t-92 -21.5t-99 -26.5t-91 -29q47 -31 71 -86q14 -31 14 -65q0 -27 -8 -56q-16 -55 -42.5 -110.5 t-61.5 -108.5v2q-14 -23 -38 -51.5t-54 -47.5q-31 -20 -65 -24q-4 -1 -9 0q-29 0 -57 27q-25 23 -40.5 65t-25.5 88t-15 90t-7 72q0 4 -1 8.5t-1 8.5q-4 43 -7.5 80t-7.5 82q-29 -6 -64.5 -11.5t-70.5 -5.5q-51 0 -88 13.5t-43 48.5zM86 573q20 10 37.5 21.5t34.5 23.5 q51 43 95 105.5t78 136.5t53 155t19 159q0 121 -51 210q-43 70 -82 70q-57 0 -96 -131q-18 -68 -34.5 -153t-29 -179t-18.5 -194.5t-6 -198.5v-25z" />
<glyph unicode="c" horiz-adv-x="675" d="M-12 201q0 106 31.5 212.5t76.5 192.5q10 18 28.5 41t43.5 43.5t51.5 33.5t50.5 13q55 0 86 -57v-2q14 -27 17.5 -48.5t5.5 -41.5q0 -8 1 -11.5t3 -11.5l8 -22q0 -8 -4 -17l2 4q-6 -35 -31.5 -41t-42.5 23q-10 23 -11 40t-1 34q0 14 -2 28.5t-10 24.5q-14 18 -32.5 15 t-37 -17t-34 -34.5t-21.5 -33.5q-48 -89 -74 -201q-22 -91 -21 -176q0 -19 1 -38q6 -72 35.5 -116t78.5 -44q47 0 107 41q41 29 81 69.5t72 77.5l11 13l104 127q18 25 40 50t42 52q16 12 30.5 11t24 -12t10.5 -26.5t-12 -29.5q-25 -27 -53 -66q-23 -31 -54.5 -69.5 t-78.5 -92.5q-35 -41 -80 -87t-92 -79q-76 -53 -154 -53q-59 0 -107 34t-71 105q-18 63 -18 142z" />
<glyph unicode="d" horiz-adv-x="714" d="M-8 188q4 121 24 246t90 236q31 47 63 72q31 24 63 29q10 2 22 2q21 0 42 -7q32 -10 62 -31q-10 127 -13 254q-1 29 -1 58q0 96 8 186q0 23 5 84t20.5 128.5t46.5 124t84 72.5q11 3 21 3q25 0 43 -17q26 -24 43.5 -69.5t27.5 -101.5t15.5 -108.5t6.5 -93.5t1 -53 q0 -217 -55.5 -422t-149.5 -407q10 -61 18 -122t19 -114q18 -104 39.5 -205.5t51 -200t71.5 -194.5t102 -190q4 -25 -16.5 -35t-43.5 10q-70 109 -120 220.5t-84.5 226t-58 232.5t-38.5 239q-8 -10 -10 -9.5t-6 -9.5q-8 -16 -27.5 -50t-47 -69.5t-61.5 -66.5t-73 -41 q-21 -5 -40 -5q-27 0 -48 11q-35 18 -56.5 50t-30.5 71t-9 67zM68 304q-2 -24 -3 -47q1 -37 7 -75q10 -60 47 -112q9 -1 17 -1q34 0 58 13q30 16 52 44t39.5 60.5t36.5 63.5q16 31 32.5 59.5t32.5 61.5l-29 278q-51 52 -96 52q-77 0 -133 -158q-20 -53 -37.5 -115 t-23.5 -124zM416 1051.5q0 -80.5 2 -160.5q2 -98 12 -215q16 -18 30.5 -35.5t24.5 -38.5q49 141 79 287.5t30 292.5q0 25 -3 77t-11.5 108t-18.5 106.5t-26.5 72t-36 2t-43.5 -99.5q-16 -59 -23.5 -117.5t-11.5 -118.5q-4 -80 -4 -160.5z" />
<glyph unicode="e" horiz-adv-x="423" d="M-10 326q0 72 14 141.5t40 126.5t62.5 95t83.5 46q33 4 54.5 -10t34 -37.5t16.5 -54.5t4 -62t-5 -59.5t-9 -38.5v2q-37 -104 -80 -184t-107 -148q14 -35 35 -61.5t55 -20.5q51 8 89 46t67 73q20 35 53 17l6 -4q16 -16 15 -35q-8 -25 -19 -29q-53 -59 -109 -105 q-51 -42 -89 -42h-8q-59 6 -98.5 39.5t-63.5 87.5l-17 43q-24 71 -24 166v8zM74 286.5q0 -24.5 4 -46.5q47 63 81 130.5t52 127.5q6 23 10 41t4 36q0 23 -8 42.5t-24 33.5q-35 -16 -57.5 -51t-37 -78t-19.5 -92t-5 -94v-49.5z" />
<glyph unicode="f" horiz-adv-x="614" d="M-145 326q-16 35 7 49t48 -2q37 6 81 27.5t91 56.5q4 102 16.5 202.5t24.5 200.5l6 53l29 217l6 41q4 41 13 96.5t27.5 103.5t49.5 78q24 23 58 23q11 0 22 -2h-2q29 -4 53.5 -28.5t42.5 -56t32.5 -64.5t22.5 -55q10 -31 23.5 -65t23.5 -64q14 -45 15 -105 q0 -88 -37 -176t-92.5 -168t-122 -147.5t-125.5 -112.5q-4 -2 -1 2t-1 -2q-2 -20 -3 -38.5t-1 -37.5l-4 -82q-4 -61 -6 -105q-1 -22 -1 -49t1 -59q10 8 20 14.5t21 10.5h-3l46 27q25 14 54 28.5t58 18.5q23 4 45.5 2t38.5 -8q51 20 96 27t95 7q31 0 60.5 -2t64.5 -6 q33 -16 31.5 -45t-40.5 -35q-35 4 -63.5 6t-54.5 2q-31 0 -58.5 -4t-56.5 -12q20 -33 28.5 -75t8.5 -87q0 -47 -8.5 -97t-21.5 -95t-30.5 -80t-33.5 -53l-15 -21q-16 -18 -34.5 -37.5t-40 -33t-48 -16.5t-59.5 11q-41 18 -68.5 56.5t-45 83.5t-27 91t-15.5 77l-6 41 q-35 -31 -74 -56q-29 -4 -42 13.5t-3 42.5q16 41 44 77.5t61 65.5q-4 47 -4 94v92v91t4 92q-31 -18 -63.5 -35t-62.5 -25t-54.5 -5t-38.5 24zM158 -90q6 -70 20.5 -134.5t42.5 -123.5q12 -29 41 -47q8 -8 12.5 -11.5t10.5 -11.5h12h20.5t18.5 4h-2q33 18 56.5 57.5 t39.5 86.5t24.5 98t8.5 96q0 43 -8 74q-4 16 -9.5 26.5t-11.5 20.5l-12 16l-4 2q-23 -10 -47 -22.5t-49 -24.5q-45 -23 -85 -50t-79 -56zM172 535q72 66 129 133t80 108q31 53 51.5 107.5t24.5 113.5q2 22 2 43q0 55 -15 106q-20 71 -55 140q-4 8 -14 29.5t-22.5 41t-26 32 t-25.5 4.5q-10 -10 -19.5 -41t-17.5 -69t-14 -76t-10 -60q-2 -6 -2 -17q0 -4 -2 -6l-29 -217q-6 -51 -11.5 -96t-9.5 -89t-8 -89t-6 -98z" />
<glyph unicode="g" horiz-adv-x="626" d="M-25 -573q0 92 68 157q68 63 137.5 112.5t153.5 90.5h-2q27 14 54.5 26.5t59.5 26.5q-8 59 -15 106.5t-13 92.5t-12.5 92t-10.5 109q-41 -72 -106.5 -124.5t-124.5 -64.5h2q-23 -6 -42 -6q-15 0 -28 4q-30 8 -48.5 28.5t-28 50.5t-9.5 62q0 62 25 103q20 35 51 85t69 96 t85 78t100 32h23.5t23.5 -6q4 41 9 81.5t12 77.5q10 31 32.5 32t38.5 -24q12 -41 13 -79q0 -47 -7.5 -104.5t-13.5 -102.5q2 -135 16.5 -288t36.5 -302q57 16 114.5 29.5t115.5 19.5q23 0 34 -11t12 -25.5t-9.5 -28t-30.5 -15.5q-59 -8 -115.5 -18t-109.5 -31 q10 -72 16 -145.5t10 -149.5q1 -19 1 -38q0 -38 -3 -78q-4 -58 -20 -115q-31 -111 -88.5 -162t-124.5 -51q-61 0 -123 34.5t-113 89t-83 121t-32 132.5zM59 -559q2 -21 7 -37q0 -2 1 -3t1 -3q10 -51 36.5 -100.5t61.5 -87t75 -61t78 -23.5q41 0 80 38.5t64 122.5 q12 51 16 101q3 34 3 67q0 17 -1 33q-2 66 -7 136.5t-15 137.5q-18 -8 -45 -21t-43 -24q-51 -25 -104.5 -55.5t-96.5 -67.5q-41 -31 -62.5 -55t-44.5 -69v2q-6 -10 -4 -31zM90 168q0 -4 4 -11t8 -12l3 -3t6 -7q11 -1 21 -1q50 0 88 24q46 28 78 76.5t52.5 110t34.5 120.5v29 q-10 8 -19.5 9t-23.5 1q-49 0 -95 -41t-81 -96.5t-56 -111.5q-20 -51 -20 -82v-5z" />
<glyph unicode="h" horiz-adv-x="346" d="M-1 397.5q-1 20.5 21 36.5q0 53 2.5 109.5t6.5 109.5q0 25 2 54.5t2 52.5q2 37 4 86t5 99t8 97.5t13 83.5l9 33q6 33 16 74t22.5 83t28 78t35.5 56l23 27q16 18 32.5 34.5t40.5 32.5q51 31 105 31q39 0 76.5 -15.5t69.5 -42t57.5 -59.5t42.5 -67q31 -70 40 -141.5 t11 -147.5q-4 -117 -52.5 -218.5t-122 -187.5t-164.5 -158.5t-183 -131.5q23 6 45 -5q27 -14 40 -35.5t23 -46.5q8 -20 18.5 -36.5t26.5 -26.5q16 -12 17.5 -26.5t-7 -24.5t-25 -13.5t-34.5 5.5q-16 10 -31.5 33.5t-25.5 48.5q-14 23 -14.5 33t-10.5 10q-23 -41 -31 -95.5 t-16 -101.5q0 -6 -1 -15.5t-1 -13.5q-16 -27 -40 -29t-40 29q-10 63 -15 132t-8 139q-20 10 -21 30.5zM98 459q35 16 86.5 52t105.5 84t108.5 107.5t97.5 125t69.5 135t28.5 137.5v26q0 53 -6 105q-8 65 -37 125q-29 61 -75 99t-99 38q-37 0 -75 -24.5t-66 -65.5 q-35 -57 -59 -141t-36 -154q-10 -61 -17 -145t-13.5 -174.5t-9.5 -177.5t-3 -152zM103 380.5q-1 -2.5 1 -20.5q6 10 12.5 17.5t14.5 15.5l-27 -14q0 4 -1 1.5z" />
<glyph unicode="i" horiz-adv-x="325" d="M-8 -2l57 620q12 23 40 24t38 -34v-90q0 -29 -1 -55.5t-1 -54.5q0 -63 4 -127t14 -127q0 -8 2 -17q2 -16 6.5 -38.5t10.5 -43t14 -36t21 -15.5h4q29 0 57 28q30 30 55 56l19 25q16 12 31.5 11t24.5 -12.5t9 -26.5t-12 -30l-18 -22q-10 -10 -24.5 -25.5t-25.5 -25.5 q-31 -29 -62.5 -43.5t-53.5 -14.5q-43 0 -74 35t-47 98v2q-6 18 -6 33q-2 -23 -2 -44v-44q-6 -37 -35 -36t-45 30zM24 810q1 13 13 24.5t31 11.5h6q20 0 31.5 -11.5t11.5 -24.5t-10.5 -26.5t-30.5 -15.5h-17q-20 2 -28 15.5t-7 26.5z" />
<glyph unicode="j" horiz-adv-x="425" d="M-289 -567q0 82 14.5 156.5t43.5 129.5q18 39 35.5 66t36 49.5t38 42t43.5 41.5q25 18 45 41q53 47 128 83t161 54q-2 45 -5 81t-7 69t-9.5 67.5t-11.5 77.5v-2q-2 12 -5 33.5t-7 44.5q-6 24 -10 55q-2 0 -10.5 -9t-20.5 -23.5t-24.5 -32t-24.5 -31.5q2 -18 -6.5 -30.5 t-20.5 -16.5t-24.5 2t-20.5 25q-6 14 13.5 46.5t47 65.5t57.5 57.5t46 24.5q39 -12 54.5 -52t21.5 -75l4 -24q16 -59 26.5 -146.5t18.5 -187.5q33 4 62.5 6t58.5 2h29.5t29.5 -2q66 -8 99.5 -34t35.5 -44q0 -35 -18.5 -34t-52.5 14q-10 4 -25.5 7t-32.5 7q-23 3 -51 3 q-13 0 -28 -1q-44 -2 -101 -12q6 -117 6 -238q0 -150 -11 -278.5t-36 -206.5v2l-8 -27q-16 -49 -35.5 -106.5t-50.5 -105.5t-73 -81t-101 -33q-47 0 -109 29q-55 27 -96 76t-67.5 109.5t-39 129t-12.5 136.5zM-213 -545q0 -55 9 -116.5t29.5 -117t52.5 -100.5t79 -67 q37 -16 68 -17q88 1 143 103q31 55 50.5 124.5t30.5 147.5t15 160t4 162t-2 144.5t-6 129.5q-41 -10 -71.5 -20.5t-41.5 -14.5q-63 -29 -119.5 -71.5t-102.5 -96t-79.5 -117t-48.5 -130.5q-10 -51 -10 -103zM147 895v10q17 35 39 35q7 0 15 -4q31 4 37 -37v-8 q0 -10 -1 -18.5t-8 -22.5q-14 -29 -36.5 -26t-36.5 32l-4 14q-4 12 -5 25z" />
<glyph unicode="k" horiz-adv-x="645" d="M-297 465v4q-2 18 5 29.5t19.5 15.5t27 -1t26.5 -21q12 -35 49 -35q27 0 60.5 12t68.5 28.5t67.5 36t57.5 35.5q8 78 14 132.5t12.5 100.5t13.5 91t17 104q4 33 10.5 66t10.5 65q6 31 15 69t19.5 74t20.5 65.5t16 45.5q12 31 33 71t48.5 75t61.5 59.5t70 24.5 q29 0 57.5 -15.5t57.5 -54.5q33 -47 45 -100t12 -111q0 -49 -7 -95t-19 -87q-18 -61 -46 -127t-64 -129.5t-79 -119.5t-90 -101l-30 -33q-23 -23 -47.5 -46.5t-49.5 -45.5l2 2l-10 -8l-18 -13v-12q-4 -49 -5 -76.5t-5 -48.5q-2 -10 -2.5 -7t-1.5 3t-1 -8t-2 -39 q10 20 25.5 43t32.5 39q31 35 66.5 57.5t76.5 22.5q47 0 86 -39q14 -12 18 -36t-2 -40v2q-16 -41 -34.5 -70.5t-36.5 -50.5l78 -6q35 -4 66.5 -6t47.5 -2q20 0 31.5 -11.5t12.5 -25.5t-8 -26.5t-30 -14.5q-18 0 -58 1t-84 4t-85 8.5t-61 15.5q-23 12 -17 43q6 16 17.5 28.5 t21.5 28.5q12 18 25.5 37.5t23 37t10.5 31t-10 17.5q-51 -2 -92 -48t-69.5 -109.5t-44 -132t-17.5 -118.5q-11 -43 -29 -48h-2q-18 0 -47 63q0 70 1 119t3 90t5.5 82t7.5 94q0 10 1 14l2 8t2 10.5t1 20.5q-57 -37 -126 -65.5t-128 -28.5q-43 0 -75 19.5t-46 66.5zM172 637 q27 23 46.5 43t41.5 47q86 92 152.5 208t103.5 239q10 37 16.5 71.5t6.5 67.5q0 20 -3.5 57t-13.5 73t-27.5 62.5t-43.5 26.5q-23 0 -66 -37q-29 -29 -52.5 -79t-41 -106.5t-30.5 -108.5t-19 -85q-23 -104 -39.5 -233t-30.5 -246z" />
<glyph unicode="l" horiz-adv-x="473" d="M-98 -76l2 -6q-12 29 5 45.5t40 9.5q35 14 69.5 61.5t61.5 84.5l16 20v-2q-2 -4 1 0t7.5 11.5t9.5 15.5t9 12q-10 47 -17.5 93t-13.5 88t-9 76t-5 54l-6 62q-8 88 -13.5 167t-9.5 171q-4 63 -7 133t-3 133t3 126.5t11 127.5q4 53 23.5 75.5t46.5 22.5q20 0 43.5 -14 t45 -35.5t39 -45.5t25.5 -42v2q14 -27 26.5 -53.5t29.5 -63.5q14 -35 23.5 -60.5t14.5 -48t9 -46t10 -51.5q2 -10 4 -20.5t4 -22.5q8 -41 11.5 -84t3.5 -84q0 -176 -57.5 -348.5t-149.5 -321.5q6 -27 15 -61.5t19.5 -69.5t22.5 -66.5t25 -54.5q16 4 34.5 -8t14.5 -37l-4 -23 q-14 -40 -47 -40q-4 0 -9 1q-47 23 -78.5 98t-54.5 167q-35 -49 -82 -104.5t-104 -73.5q-31 -6 -51 20zM113 1221q0 -18 1 -38t1 -38q0 -12 1 -24.5t1 -22.5q4 -154 15.5 -302t23.5 -298q2 -35 4 -59.5l4 -49t6 -50.5t10 -58q72 135 110 274t38 291q0 35 -3 70.5t-8 70.5 q-10 94 -39.5 184.5t-76.5 174.5l-8 14v-2q-10 16 -24.5 36.5t-25.5 28.5q-18 -47 -24 -98t-6 -104z" />
<glyph unicode="m" horiz-adv-x="673" d="M16 399v199q0 14 9 25q4 4 10 9t14 9h9t20 -4l14 -16l4 -17v-10v-140.5t4 -134.5q10 66 30 130.5t63 119.5q19 16 37 16q12 0 24 -7q23 -29 30 -74q5 -35 5 -66v-18v-47q2 -18 6 -46t9 -58.5t11.5 -63.5t12.5 -60q4 12 5 22.5t5 22.5l10 46l19 61q16 66 34.5 130.5 t51.5 152.5q10 10 16 14t20 4l29 -4q27 -8 33 -35q4 -16 4 -53t2 -78q2 -66 6 -142.5t13.5 -146t25.5 -124t43 -74.5q4 -4 12 -4l37 -13q16 -8 22.5 -21.5t3.5 -25.5t-14.5 -21.5t-31.5 -5.5l-31 9v-2q-12 4 -25.5 8t-23.5 14q-41 47 -63.5 102.5t-33 115t-13.5 123 t-3 124.5q0 25 1 32t1 10v8t-2 28l-26 -105q-16 -72 -41 -154.5t-60 -142.5q-23 -29 -41 -25.5t-28 21.5q-39 102 -55.5 199.5t-22.5 198.5q-10 -29 -17.5 -59.5t-13.5 -61.5l-10 -64q-4 -47 -13 -95t-28 -95q-14 -29 -38 -27t-36 27q-23 92 -29 181t-6 179z" />
<glyph unicode="n" horiz-adv-x="505" d="M47 326q0 55 1 108t3 94q0 14 1 36t1 28q0 20 11.5 31.5t24.5 12.5t25.5 -8.5t16.5 -29.5v-262q0 -27 -1 -33t-1 -8v-8t2 -33q25 70 57.5 137.5t75.5 126.5q16 18 37 19q4 0 9 -1t9 -1l23 -3q4 -4 11 -12t9 -8q20 -45 29.5 -87t18.5 -85q10 -63 26.5 -122.5t61.5 -98.5 q12 -14 10 -28.5t-11.5 -24t-24.5 -12.5t-30 7q-27 23 -44 52.5t-28.5 63.5t-18.5 69l-13 65q-6 35 -13.5 69t-17.5 64q-45 -70 -71.5 -141.5t-49.5 -148.5l-39 -121q-9 -20 -27 -20q-14 0 -32 12q-12 10 -20.5 39.5t-12.5 70.5t-6 90t-2 101zM362 512v2v-2z" />
<glyph unicode="o" horiz-adv-x="520" d="M-4 240q0 51 6 113.5t20.5 117.5t39 97t61.5 57l61 22q20 6 33.5 -1t19 -20.5t0 -28.5t-23.5 -26l-25 -4h7q-25 -8 -33 -12q-25 -18 -42.5 -51t-28.5 -72t-15 -82t-4 -84q0 -29 1 -55.5t5 -46.5t11 -42t17.5 -40.5t27 -30.5t40.5 -14q5 -1 11 -1q35 0 66 24 q36 26 61.5 68t40 93t14.5 98q0 53 -21 89q-10 20 -41 27t-63 16l-47 12q-25 16 -25 41.5t29 34.5q92 10 176 25.5t170 33.5q18 0 30.5 -9t15.5 -21.5t-2 -26t-22 -21.5l-69 -14q-20 -4 -32.5 -7t-24 -6.5t-26 -5.5t-34.5 -4q20 -14 35 -37q0 -2 6 -13t10 -21l12 -31v2 q8 -16 11.5 -34.5t3.5 -35.5q0 -55 -25.5 -117.5t-66.5 -115.5t-93.5 -88t-103.5 -35q-39 0 -67.5 17.5t-49 45t-33 60.5t-18.5 61q-6 33 -6 99z" />
<glyph unicode="p" horiz-adv-x="505" d="M18 440v68t2 67v5q4 18 16.5 27t25 8t23.5 -10t13 -25v-146v-110q6 25 21.5 78t41 108t60.5 98t80 45q39 0 65.5 -9t42 -22.5t24.5 -27.5t16 -27v2q20 -39 20 -108q0 -47 -10 -101.5t-25.5 -105.5t-34 -93t-34.5 -67q-8 -12 -35 -31.5t-66 -19.5q-35 0 -67 25 q-18 12 -23.5 27.5t-1.5 27.5t18.5 19.5t32.5 0.5l53 -26q20 8 41 43t36.5 83t24.5 103t9 105q0 43 -7 76.5t-26 50.5h-12q-6 0 -11 1t-3 3q-39 -18 -64.5 -51t-43 -73t-28 -81t-18.5 -76q-33 -150 -39 -300.5t-10 -301.5q-2 -57 -2 -113.5t-4 -113.5q0 -6 -1 -13.5 t-1 -13.5v-6t-2 -8q0 -2 -1 -2t-1 -2v-5q-14 -14 -25 -14h-2q-4 0 -7 -1t-7 -1q-27 6 -33 37q2 18 3 37.5t-1 38.5v14q0 10 1 20.5t1 20.5v23.5t2 23.5q0 45 -2 98.5t-4 106.5t-4 105.5t-4 97.5q-4 104 -8.5 205.5t-4.5 205.5z" />
<glyph unicode="q" horiz-adv-x="546" d="M16 203q0 98 27 196t80 176q33 47 75 69t83 22q16 0 31.5 -4.5t27.5 -8.5q4 20 10 43t15 45q8 8 18 13q6 6 18 6q23 0 41 -23q8 -29 11.5 -59.5t3.5 -63.5q0 -78 -19.5 -158.5t-48.5 -158.5l2 4q-4 -45 -6 -85t-3 -80t-3 -84t-2 -97v-46t-2 -48q63 27 149 45t166 18 q63 0 116.5 -16.5t78.5 -57.5q2 -18 -3 -31.5t-14.5 -20.5t-23 -5t-25.5 17q-14 23 -40.5 29.5t-59.5 6.5q-23 0 -50.5 -3t-50.5 -7h-2q33 -29 45.5 -67.5t12.5 -83.5t-11.5 -94.5t-28 -96.5t-35.5 -88t-36 -70q-46 -77 -108 -77h-2q-39 0 -70 29.5t-43 88.5l-8 43v-2 q-6 29 -11.5 56.5t-9.5 56.5q-8 61 -10 95t-2 67l-10 -12q-8 -10 -18.5 -20.5t-28.5 -20.5q-35 0 -47 26q-10 25 -2 48.5t25.5 43t40 34.5t40.5 28v144.5t4 150.5q-4 -4 -5 -7.5t-3 -7.5q-12 -16 -31.5 -33.5t-43 -32t-49.5 -23.5t-50 -9q-35 0 -59.5 18.5t-34.5 65.5 q-4 29 -7.5 57.5t-3.5 59.5zM98 209q0 -35 4 -67.5t15 -57.5q7 -1 14 -1q48 0 81 37q38 42 60 93l31 66v-3l6 17q2 68 5 140.5t12 137.5q-18 14 -39 15q-47 0 -103 -62q-18 -23 -34.5 -58.5t-27.5 -78.5t-17.5 -89t-6.5 -89zM309 291l2 6l-2 -4v-2zM373 -231 q0 -115 12 -222.5t66 -205.5q14 0 25 9t20.5 23.5t16.5 29.5t13 28q10 18 22.5 45.5t24 61.5t18.5 70t7 70q0 39 -12.5 69t-42.5 46q-29 12 -56 12q-23 0 -49 -8t-49 -22h-2q-2 0 -7 -3t-7 -3z" />
<glyph unicode="r" horiz-adv-x="413" d="M-10 68q4 23 12 44t16 44t15.5 45t12.5 45v-2q12 45 25 102t24 118.5t19.5 124t8.5 118.5q-13 35 -17 71q0 5 -1 10q0 30 18 54q16 23 35.5 20.5t38.5 -22.5q2 -20 4 -53t2 -60q12 -27 32.5 -63.5t38.5 -67.5q23 -39 42.5 -71.5t25.5 -55.5q4 -18 4 -40.5t-4 -49.5 q-8 -53 -20 -103q-12 -51 -19.5 -93t2.5 -52q6 -4 24.5 -4t40 2t40 5t22.5 3q18 0 30.5 -9t15.5 -21.5t-3 -25.5t-22 -22q-14 -2 -33 -3t-41 -1q-37 0 -70 3t-45 12q-45 27 -45 86q0 27 6 55.5t15 60.5q8 35 15 72t7 72q0 37 -10 67v-2q-6 20 -21.5 43t-31.5 51v-2 q-2 6 -2 7q-2 2 -2 4q-12 -100 -34 -199.5t-42 -169.5q-6 -23 -14.5 -46.5t-14.5 -43.5q-8 -20 -13 -38.5t-11 -39.5l-3 -2q-8 -14 -20 -20.5t-24.5 -3t-20.5 14.5t-8 32z" />
<glyph unicode="s" horiz-adv-x="514" d="M-31 133q0 4 2 9t2 10q4 8 4 6l5 12q6 6 14 12t16 6q76 104 117 220t78 237h2v2l2 4l-2 -4q4 45 10 89t19 91v-2q0 4 2 8.5t2 6.5q16 23 42.5 20.5t32.5 -35.5q-4 -49 -11 -98t-19 -96v4q-2 -25 -2 -50q0 -37 4 -73q6 -60 24 -129q8 -39 20.5 -73t28.5 -66 q10 -29 19.5 -51.5t19.5 -51.5q10 4 22.5 7.5t22.5 5.5q23 6 48.5 11t48.5 13q37 0 43 -30.5t-27 -49.5q-27 -8 -54.5 -14t-55.5 -10h-3q-12 -2 -12 -3t-12 -3q6 -37 6 -78q0 -43 -19.5 -82t-52 -67.5t-72.5 -46t-83 -17.5q-23 0 -42.5 4t-39.5 14q-41 20 -72 50t-31 71 q0 45 60 94l18 13.5t6 3.5q16 14 31.5 23t46.5 26q27 10 64 23.5t63 19.5l-2 -2q10 4 9 4t7 2q-8 25 -17 52.5t-17 45.5q-14 41 -30.5 82t-21.5 57q-4 16 -6 21.5t-4 7.5t-2 6t-2 21q-37 -94 -82 -177t-102 -149q-8 -4 -17.5 -7t-25.5 1q-31 23 -23 49zM102 -86 q12 -29 39 -41t58 -12q27 0 53.5 9t48 25.5t34.5 41t13 53.5q0 14 -2 28.5t-6 30.5q-72 -18 -134.5 -48t-103.5 -87z" />
<glyph unicode="t" horiz-adv-x="499" d="M-20 575q0 31 34 43l21 5q18 0 30.5 -10.5t12.5 -24.5q10 -4 16 -4t15 -2q10 127 24 258t37 250q6 18 19.5 25t27.5 3t23.5 -16t7.5 -33q-10 -55 -18.5 -115.5t-15.5 -124t-13 -125t-11 -116.5q47 10 95.5 27.5t91.5 33.5q20 6 33.5 -1t17.5 -20.5t-2 -28.5t-25 -26 q-12 -4 -34.5 -12t-51 -17t-62.5 -17.5t-67 -14.5l-8 -129q0 -10 -1 -19.5t-1 -19.5q-2 -29 -3 -56.5t-1 -58.5q0 -53 8 -107t29 -97q4 -2 10 -7.5t10 -7.5l13 -10q4 0 9 2t9 2q14 2 26.5 4t18.5 6q23 10 44.5 28.5t43.5 41.5l41 41q16 12 30.5 10t23 -12t9.5 -26.5 t-12 -30.5q-31 -27 -63.5 -52.5t-63 -46t-61.5 -34t-57 -13.5q-47 0 -82 40t-54 138q-6 35 -8 70t-2 70q2 72 4 134t6 134q-41 2 -77.5 18.5t-46.5 50.5z" />
<glyph unicode="u" horiz-adv-x="479" d="M-6 242q0 63 5 125.5t11 117.5q2 25 5 50.5t5 52.5v2q4 16 16.5 25.5t26 9.5t23.5 -10.5t14 -28.5l-6 -80q-6 -57 -12 -131t-6 -142q0 -53 3 -91t17 -58q35 14 63.5 57t52.5 100.5t42 122t33 119.5l28 103q18 23 45 21.5t33 -34.5q0 -23 -2 -45t-6 -53q-4 -43 -9 -96 t-5 -100q0 -39 4 -75t14 -60.5t27.5 -36t46.5 -1.5q18 6 33.5 0t21.5 -18t2 -26.5t-20 -24.5q-41 -12 -72 -12q-14 0 -26 2q-40 8 -62.5 37.5t-32.5 74.5t-12 99q-33 -84 -80 -151t-117 -87q-10 0 -18 1t-21 7q-41 37 -53 99.5t-12 134.5z" />
<glyph unicode="v" horiz-adv-x="479" d="M-6 561q37 74 96 109q27 14 50.5 6t40 -26.5t27.5 -41t15 -41.5q14 -55 20.5 -113.5t12.5 -117.5l8 -64q4 -23 6 -46l4 -46l9 -47q35 90 59.5 179t42.5 188q20 33 49 27.5t29 -44.5q-18 -104 -48 -204.5t-71 -202.5l-6 -13v3q-10 -27 -24.5 -56.5t-55.5 -29.5 q-12 2 -19.5 6t-15.5 20q-23 78 -34 165t-19 173q-4 41 -7 80t-9 80q0 2 -1 4t-1 6q-2 10 -5.5 25.5t-7.5 29t-10 21.5t-12 4q-23 -16 -32 -30.5t-13 -24.5q-10 -18 -23.5 -24.5t-27 -3.5t-21.5 16.5t-6 33.5z" />
<glyph unicode="w" horiz-adv-x="780" d="M17 570q1 5 1 10v8q12 33 35 37t45 -25q4 -29 6 -75t2 -99q0 -27 -1 -53.5t-1 -53.5q0 -37 -1 -73.5t-1 -71.5q0 -106 7 -156q18 16 30.5 55.5t21.5 86.5t14 98t9 92q0 37 9 70q6 14 17 21.5t23.5 6t22.5 -9.5t12 -26q-2 -10 -2 -20.5v-20.5q0 -31 3 -66t7 -67 q6 -39 15.5 -81t26 -78t41 -59.5t61.5 -23.5q16 0 35.5 5t40.5 13q29 16 55.5 44t42.5 59q23 45 33 101t10 116q0 86 -17.5 165t-50.5 128q-12 -10 -25.5 -12.5t-24.5 2t-16 14.5t1 26q27 68 63 67q20 0 40 -21t35 -50.5t26.5 -58.5t15.5 -41q16 -51 24.5 -103.5t8.5 -105.5 q0 -127 -49 -258q-29 -72 -98.5 -120t-147.5 -48q-76 0 -127 49q-23 18 -40 50t-32 67q-16 -70 -43.5 -104.5t-81.5 -57.5q-25 0 -41 17l-2 6q-20 39 -25 113.5t-5 164.5v111q0 27 1 50.5t1 47.5q0 74 -7 129q-4 4 -3 9z" />
<glyph unicode="x" horiz-adv-x="559" d="M2 567q0 20 11.5 31.5t24.5 12.5t25.5 -8t16.5 -30q2 -47 14 -115.5t41 -142.5q29 70 62.5 133.5t78.5 131.5q12 16 27.5 18t27 -5t15.5 -22.5t-4 -33.5q-53 -78 -93 -157t-71 -163q6 -12 14.5 -23.5t16.5 -21.5q8 -12 29 -18l8 -4q55 18 90 68t57.5 114.5t33.5 132 t17 123.5q4 16 16.5 24.5t25 8.5t23.5 -10.5t13 -28.5l-4 -45q-2 -23 -4 -41.5t-5 -36t-8 -38t-14 -46.5q-10 -29 -18 -57.5t-25 -57.5l-18 -33v2q-8 -16 -16.5 -34.5t-20.5 -32.5q-14 -16 -28.5 -32.5t-28.5 -33.5q-16 -16 -34.5 -22t-37.5 -6q-35 0 -64.5 14t-45.5 39 q-57 -184 -64 -395q-4 -18 -16.5 -27.5t-26.5 -8.5t-25.5 12t-11.5 32q6 127 29.5 247.5t64.5 237.5q-41 82 -67.5 166t-30.5 182z" />
<glyph unicode="y" horiz-adv-x="641" d="M-6 453v2q0 20 11 31.5t24.5 12.5t26 -8.5t16.5 -29.5q4 -25 13 -53.5t19 -53.5q29 -69 47 -69h1q12 0 25 47t28 102q14 59 27.5 107.5t33.5 58.5q25 8 34 6t19 -12q53 -49 89 -126t65 -161q45 31 92 52.5t119 41.5q29 0 39 -14t6 -33q0 -4 2 -11t2 -9q-20 -8 -24 -8 q-10 -6 -25.5 -14.5t-32.5 -14.5q-16 0 -24 4q-35 -14 -65 -29.5t-60 -38.5q6 -16 11 -32.5t9 -32.5h-2q29 -78 49.5 -158t24.5 -157q1 -14 1 -27q0 -72 -19 -128q-21 -67 -66 -144q-20 -31 -52 -55.5t-61 -41.5q-78 -45 -151 -45q-57 0 -104.5 28t-88.5 91q-22 35 -22 87 q0 62 18.5 122.5t34.5 97.5q14 33 40 77t54.5 87t60 82t58.5 66q31 29 56.5 55t52.5 49l-19 53q-16 51 -36.5 102.5t-49.5 92.5q0 -4 -2 -11.5t-2 -11.5q-10 -45 -23.5 -102.5t-35 -103.5t-50.5 -67q-12 -10 -26 -10q-19 0 -43 17q-35 23 -54.5 51.5t-35.5 63.5 q-12 35 -21.5 63.5t-13.5 61.5zM113 -330q-2 -24 -2 -44q0 -64 23 -96q32 -42 85 -42q37 0 79 15.5t80 41t68.5 58t45.5 69.5q16 41 21 86q4 32 4 63q0 13 -1 25v2q-4 92 -28.5 170t-53.5 160q-18 -16 -39.5 -37.5t-42.5 -46.5q-53 -55 -107.5 -135t-88.5 -152 q-14 -29 -26.5 -65.5t-16.5 -71.5z" />
<glyph unicode="z" horiz-adv-x="544" d="M-10 459.5q2 15.5 18 27.5t32.5 25.5t33.5 26.5h-2l43 39q29 16 49 25t39 9q49 0 71 -48q20 -44 19 -97v-10q-2 -23 -4 -43.5t-6 -42.5q18 6 32.5 11t36.5 15l80 35q20 6 33.5 -2t17.5 -20.5t-1 -27.5t-21 -26q-51 -20 -100.5 -38.5t-100.5 -34.5l-22 -82 q-4 -18 -8.5 -38t-8.5 -40q-4 -16 -2 -40t12 -40q25 -18 78 -18t111.5 13t87.5 23q20 6 34.5 -1t20.5 -18t2 -25.5t-20 -24.5q-43 -14 -83 -25.5t-75 -15.5q-18 -2 -35.5 -3t-32.5 -1q-104 0 -141 39t-37 102q0 41 9.5 84t21.5 90q-25 -4 -49.5 -8t-50.5 -4h-4 q-35 6 -33 36.5t35 43.5q35 2 67.5 4t59.5 10q8 33 13 63.5t5 59.5q0 39 -10 65q-16 0 -47 -24.5t-58 -46.5v2q-16 -14 -28.5 -24.5t-22.5 -16.5q-18 -10 -33.5 -5t-21.5 16t-4 26.5z" />
<glyph unicode="{" horiz-adv-x="460" d="M-29 625.5q-2 27.5 29 44.5q82 41 113.5 71.5t31.5 69.5q0 29 -9 61.5t-25 73.5l-17 37q-27 80 -49 166t-31 174q-4 55 2.5 114.5t26.5 110.5t60 90t104 52q37 6 78 6q20 0 42.5 -1t43.5 -3q6 0 14 -1t14 -1h4q16 -4 25.5 -16.5t9.5 -25t-10 -23.5t-29 -13h-30 q-18 2 -38 3t-38 1q-16 0 -32.5 -1t-31.5 -3q-37 -10 -62.5 -34t-41.5 -54.5t-24.5 -66.5t-8.5 -73q0 -35 3 -70.5t9 -66.5q25 -125 66 -237v2l20 -51q14 -39 24.5 -72t10.5 -66q0 -35 -15 -67.5t-52 -67.5q-25 -29 -52 -47q53 -35 71 -98.5t22 -130.5q4 -29 4 -61v-64 q0 -72 -5 -150t-10 -149q-4 -51 -8 -107.5t-8 -109.5q-4 -63 8.5 -87t50.5 -24q16 0 41 4t54 8q74 18 120 37q37 0 43.5 -27.5t-26.5 -50.5q-31 -12 -59.5 -20t-57.5 -14q-59 -14 -110 -15q-45 0 -73 11.5t-43.5 33t-21.5 52t-6 67.5q0 61 6 139l8 99q6 72 11.5 144.5 t7.5 143.5v29q0 16 1 32.5t1 35.5q0 37 -4 76.5t-16.5 72.5t-36 53.5t-62.5 20.5q-35 6 -37 33.5z" />
<glyph unicode="|" horiz-adv-x="235" d="M31 -662q8 109 14 276t10 364.5t7.5 414.5t5.5 428t3 402.5t1 339.5v166q2 18 13 27t23.5 9t24.5 -8t17 -24v-353q0 -158 -1.5 -343t-2.5 -378.5t-4 -388t-7 -369.5t-10 -321.5t-14 -247.5q-16 -33 -45 -30.5t-35 36.5z" />
<glyph unicode="}" horiz-adv-x="466" d="M-15 1706q3 12 14 20.5t30 8.5l41 -6q23 -4 48 -6.5t48 -14.5q84 -43 115.5 -112.5t31.5 -157.5q0 -78 -16 -159t-37 -159q-18 -74 -31.5 -145.5t-9.5 -122.5q10 -72 48 -135.5t83 -120.5q12 -12 26.5 -29.5t31.5 -44.5q8 -20 6 -27.5t-13 -17.5q-23 -20 -46 -43.5 t-43.5 -50.5t-33 -54.5t-12.5 -58.5q0 -33 13 -57q8 -20 26.5 -37.5t40.5 -40.5v2q37 -33 67.5 -72.5t26.5 -93.5v-10q0 -14 -2 -28.5t-12 -26.5q-10 -18 -32.5 -43t-49.5 -47.5t-56.5 -38t-54.5 -15.5q-27 0 -44 12.5t-27 47.5q-4 20 5 35.5t22.5 21.5t26.5 1t20 -25 q2 -6 2 -17q16 -4 37.5 11.5t40 38t31.5 48t13 41.5q0 35 -22.5 58.5t-50.5 46.5q-10 8 -23.5 21.5t-27.5 29.5q-27 35 -38.5 67.5t-11.5 63.5q0 68 42 130.5t91 111.5q-31 33 -62.5 72.5t-57 83t-43 89.5t-17.5 95q0 74 14.5 148.5t30.5 142.5q16 66 30.5 132t16.5 132 q0 33 -2 68.5t-12 68.5t-30.5 58.5t-55.5 39.5q-16 8 -37.5 10.5t-44.5 6.5q-8 0 -16 2t-15 2l-10 2q-14 8 -20 21.5t-3 25.5z" />
<glyph unicode="~" horiz-adv-x="589" d="M-16 539l4 8v2v2q6 37 39 37q10 8 22 19t23 24l37.5 37.5t40 34t44 22.5t48.5 4q51 -8 80.5 -50t46.5 -79q10 -23 20 -42t27 -19q14 0 39.5 18t66.5 66q16 12 31.5 11t25 -10.5t10.5 -24.5t-11 -32l-13 -12l-28 -29q-8 -8 -15 -16q-33 -23 -59.5 -36t-48.5 -13 q-49 0 -76 39t-47 82q-12 29 -24.5 49t-28.5 18q-37 -2 -65 -26.5t-54 -53.5q-20 -20 -39 -38.5t-39 -30.5q-45 -6 -57 39z" />
<glyph unicode="&#xa1;" horiz-adv-x="342" d="M57 1317v4q0 18 8 28.5t20.5 13.5t25 -2t20.5 -19q23 -18 15.5 -45t-42.5 -27q-39 6 -47 47zM110 885q0 20 11.5 31.5t25 12.5t26.5 -8t15 -28q12 -115 16.5 -231.5t4.5 -233.5q0 -170 -6 -334q0 -4 -1.5 -8t-1.5 -6q-8 -12 -21 -17t-25.5 -3t-21.5 11t-9 25v54q0 2 1 4 t1 8q2 66 3 134.5t1 135.5q0 115 -4 227.5t-15 225.5z" />
<glyph unicode="&#xa2;" horiz-adv-x="643" d="M16 391q0 39 16.5 81t42 82t59.5 78t69 68q-8 180 -13 365v4q2 18 13.5 27.5t25 9.5t25.5 -8t16 -25q2 -88 4 -158.5t7 -156.5l34 24l-2 -2q14 8 44 15.5t55.5 3.5t38 -21.5t-6.5 -54.5q-14 -16 -33.5 -15t-27.5 17q-23 -4 -48.5 -19.5t-51.5 -33.5q4 -72 7 -125t11 -125 q23 10 53.5 28.5t59.5 34.5t63.5 35t59.5 31q39 0 45 -28.5t-27 -49.5q-31 -16 -58.5 -31.5t-60.5 -33.5q-14 -8 -44 -24.5t-54.5 -30t-35.5 -20.5t9 3q12 -119 26.5 -236.5t37.5 -236.5q0 -37 -31 -43t-49 22q-20 123 -35.5 232.5t-28.5 232.5q-41 -14 -86 -18t-86 4 q-29 12 -36 39.5t-7 58.5zM94 385q-4 -6 4 -18q29 -4 62 2t67 18q-6 59 -11 104.5t-9 108.5q-23 -25 -35 -41t-22 -31q-8 -12 -17.5 -32.5t-16.5 -42t-13.5 -40t-8.5 -28.5zM96 366q2 -1 2 1q-4 0 -2 -1z" />
<glyph unicode="&#xa3;" horiz-adv-x="833" d="M-5 440.5q-3 12.5 4 26.5t24 22l73 33q-33 49 -49 95.5t-16 93.5q0 72 39 161q14 29 56 84.5t96 106.5t112.5 84t107.5 16q27 -10 44.5 -20t26.5 -22.5t14 -28t10 -39.5l10 -43q0 -18 -9.5 -28.5t-21.5 -12.5t-25.5 4t-21.5 22q2 45 -17.5 68.5t-27.5 23.5 q-53 4 -106.5 -31.5t-96.5 -91t-71.5 -117t-34.5 -110.5q2 -45 17 -96t40 -90q66 27 128 49.5t120 38.5q39 0 45 -29.5t-29 -52.5q-66 -18 -119 -36.5t-100 -35.5q35 -49 67.5 -108.5t47.5 -118.5q2 -4 2 -10q23 2 42 2h42q61 0 119.5 -4t105.5 -8q31 -4 58.5 -6.5 t50.5 -2.5q16 -4 24 -15t8 -24.5t-9 -24.5t-27 -13q-12 0 -36 2l-48 4q-47 4 -106.5 8t-125.5 4h-56.5t-56.5 -4q-14 -33 -37.5 -62.5t-53 -53t-63.5 -37t-65 -13.5q-49 0 -84 33q-8 10 -10 19t2 26q23 74 88.5 110.5t157.5 49.5v12q-4 53 -35 101t-67 98q0 -2 -5 6l-98 -39 l-6 -2q-20 -4 -32.5 5t-15.5 21.5zM96 84q6 2 10.5 1t12.5 1h2l2 2q66 16 102 64q-94 -20 -129 -68z" />
<glyph unicode="&#xa4;" horiz-adv-x="643" d="M3 179.5q3 13.5 17 23.5q23 14 44.5 35.5t41.5 42.5q-6 16 -12 35.5t-10 33.5l-4 21v-6q-16 55 -2 110t49 103q-20 29 -49 55t-58 43q-14 14 -16 28.5t4 24.5t19.5 15.5t29.5 0.5q68 -37 123 -108q29 23 65 41t70 31q37 0 41 -29t-28 -49q-35 -10 -59.5 -27.5 t-43.5 -38.5q6 -25 -5 -40t-32 -13q-14 -31 -22 -63.5t-8 -63.5v-16.5t2 -18.5l6 8q12 18 29.5 23.5t31 2.5t19.5 -16.5t-4 -31.5q-10 -16 -22.5 -35.5t-24.5 -36.5q29 -35 75 -35q27 -4 54 15q-10 12 -19.5 25.5t-21.5 29.5q-8 18 -3 32.5t16 20.5t27.5 2t28.5 -20 q4 -4 10.5 -13.5t16.5 -19.5q27 41 40 85t-1 79q-16 10 -22.5 18.5t-8.5 20.5l-29 8q-29 18 -23.5 48t44.5 30q27 -2 51 -21q16 14 30.5 19.5t26.5 13.5l39 23h-2q16 8 29.5 4t20 -15.5t6.5 -27t-13 -27.5q-23 -16 -39 -27.5t-28 -19.5l2 2q4 4 -4.5 -1t-12.5 -9 q16 -33 17 -70q0 -49 -19.5 -100t-52.5 -92q16 -16 33.5 -35t32.5 -35h-2l14 -14q12 -16 10 -31.5t-12 -25t-26.5 -9.5t-30.5 14q-23 23 -39.5 38.5t-36.5 37.5q-23 -14 -50.5 -24.5t-54.5 -10.5q-41 0 -70.5 17.5t-52.5 42.5q-23 -23 -43 -39t-47 -37q-16 -2 -29.5 5 t-19.5 18.5t-3 25z" />
<glyph unicode="&#xa5;" horiz-adv-x="587" d="M-9 365.5q1 23.5 25 37.5q12 4 20.5 4.5t14.5 0.5q23 0 31 -15q47 -4 89 7.5t87 27.5v29v23v7v7.5v23.5l-18 -26q-12 -12 -33 -19q-2 0 -4 2h-4q-2 0 -2 2q-10 0 -27.5 2t-28.5 6q-37 31 -61.5 97.5t-40.5 142.5t-24.5 148.5t-10.5 115.5q2 18 13.5 28.5t23.5 11.5 t24.5 -7t16.5 -25q8 -117 26.5 -233.5t77.5 -208.5h2q23 35 40.5 81t27.5 93q0 86 4 173t19 173q0 4 1 7t1 5q18 29 42.5 29t34.5 -31q2 -23 2 -48v-48q0 -66 -5 -134.5t-21 -133.5v-133q0 -33 1 -64.5t1 -64.5q74 31 147 41q20 0 31.5 -11.5t13.5 -24.5t-7 -26.5t-29 -15.5 q-45 -4 -82 -16.5t-76 -26.5q-2 -29 -3 -46.5t-1 -49.5q53 18 102 26t84 -10q12 -10 24.5 -29.5t14.5 -23.5q4 -16 -1 -28.5t-17.5 -16.5t-27.5 -1t-30 17l-4 10v-2q-33 2 -69.5 -8t-77.5 -24q-4 -76 -6.5 -153t-4.5 -153q-14 -33 -42.5 -31.5t-34.5 35.5q0 113 6 228 q0 10 1 23.5t3 23.5q-45 -14 -85 -17.5t-67 17.5l-2 2q-27 27 -12.5 51.5t47.5 16.5l14 -11q27 4 48.5 12.5t50.5 18.5l8 4q0 27 2 43t2 45q-37 -12 -77 -21.5t-81 -9.5q-45 0 -75 9q-33 16 -32 39.5z" />
<glyph unicode="&#xa7;" horiz-adv-x="581" d="M6 1077q-27 63 7 128t94.5 114t131 73.5t119.5 10.5q10 -31 9.5 -47.5t-10 -24.5t-25 -9t-31.5 -1h-23.5t-11.5 2q-39 -12 -75.5 -31.5t-64.5 -46t-41 -63.5t-3 -82q8 -35 28.5 -65.5t45.5 -53.5l49 -47l55 -47v2q53 -47 103.5 -95.5t85.5 -119.5q10 -23 14 -40.5 t4 -35.5q0 -47 -27.5 -85t-70.5 -64q72 -63 126 -129t54 -144q0 -41 -19.5 -84t-64.5 -90q-57 -57 -121.5 -94t-150.5 -53q-20 -4 -31.5 5t-15 22.5t4 27.5t25.5 22q45 4 96.5 24.5t94.5 52.5t71.5 75t28.5 92t-37 98q-33 45 -76 87t-114 104h2q-8 6 -15.5 12t-13.5 12 q-39 39 -71.5 84t-57.5 117q-14 41 -3 103.5t40 117.5q-35 33 -63.5 73t-51.5 93zM154 754q0 -31 10 -64t24 -55q41 -63 103 -119q45 0 71.5 20.5t26.5 55.5q0 47 -37 98q-33 47 -71.5 83t-79.5 71l-21 14q-16 -29 -21 -53.5t-5 -50.5z" />
<glyph unicode="&#xa8;" horiz-adv-x="344" d="M-10 1114q0 23 14 38t55 22h2q23 0 34 -17.5t9 -40.5v-4q0 -2 2 -2q-6 -31 -23 -44t-34 -13q-23 0 -41 19.5t-18 41.5zM190.5 1110q6.5 25 32.5 51q23 23 47 21q0 -2 2 -2h7l4 -2l8 -2q27 -14 33 -33t-1.5 -36t-24.5 -31.5t-36 -20.5h2q-25 -12 -44 -7t-27.5 21t-2 41z " />
<glyph unicode="&#xad;" horiz-adv-x="458" d="M-7 458.5q-1 28.5 34 43.5q49 4 104 11t109 15l133 15q20 0 31.5 -11.5t13.5 -24.5t-7.5 -26.5t-29.5 -15.5l-84 -12q-68 -10 -132.5 -17.5t-129.5 -11.5h-6q-35 6 -36 34.5z" />
<glyph unicode="&#xaf;" horiz-adv-x="382" d="M-4 1134.5q0 14.5 11 25.5t32 11h73t85 -2t82.5 -4t70.5 -8q20 -6 27.5 -19.5t3.5 -27.5t-17.5 -24.5t-33.5 -6.5q-12 2 -48 5t-79 5.5t-88 3.5t-78 1h-4q-18 2 -27.5 14t-9.5 26.5z" />
<glyph unicode="&#xb4;" horiz-adv-x="229" d="M-4 1041.5q-2 13.5 6 27.5l55 61q25 27 51.5 53.5t55.5 49.5q14 10 29.5 8t24.5 -11t10 -24.5t-11 -29.5q-27 -20 -54.5 -49t-49.5 -52l-52 -55l-4 -4q-14 -8 -27.5 -6t-22.5 10t-11 21.5z" />
<glyph unicode="&#xb5;" horiz-adv-x="667" d="M0 -612q10 221 42 424.5t69 408.5h2q10 55 15 111.5t13 113.5q0 47 3 96.5t8 88.5q2 18 3 35.5t1 33.5q12 29 37.5 27t39.5 -27v-12q0 -135 -12 -260q2 -51 14.5 -106.5t36.5 -96.5q4 -2 13 -2q41 72 65.5 161t40.5 173l15 64l8 30q4 20 9 40t15 36q16 29 42 28t36 -32 q0 -14 1 -31.5t1 -36.5q0 -16 -1 -36.5t-1 -40.5q-2 -31 -2 -67v-71q0 -92 9 -174t40 -112q2 -2 7 -3t10 -4l20 -10q14 -12 18.5 -25.5t-1 -23.5t-16.5 -17.5t-30 -4.5l-20 8q-12 4 -25 10q-8 4 -14 8q-23 14 -37 46t-22.5 73t-12.5 88t-4 92q-18 -61 -41.5 -119.5 t-58.5 -111.5q-12 -14 -33 -21q-12 4 -15 4h-5q-14 0 -27.5 2t-26.5 13l-20 16t-19 21l-34 -213q-25 -152 -47.5 -299.5t-28.5 -294.5l-2 -9q-16 -31 -44 -28.5t-34 37.5z" />
<glyph unicode="&#xb7;" horiz-adv-x="206" d="M35 483q0 23 17.5 43.5t58.5 28.5h4q16 0 28.5 -10t14.5 -23q23 -10 22 -43q-8 -43 -26.5 -61.5t-40.5 -18.5q-29 0 -53.5 26t-24.5 58zM100 473l15 6q4 0 9 -1t3 -1l-27 15v-19z" />
<glyph unicode="&#xb8;" horiz-adv-x="245" d="M-10 -53l8 73q4 25 6 46.5t4 44.5q2 20 15.5 29.5t26.5 8t24.5 -12.5t11.5 -32q0 -25 -2 -43t-6 -38q-4 -25 -7 -48.5t-3 -46.5q0 -41 8 -63l2 2q-4 4 9 5t30 5q35 6 73.5 4t53.5 -31q12 -33 -7.5 -79.5t-52 -91t-70.5 -75t-63 -30.5q-18 2 -28.5 13.5t-11.5 24.5 t6.5 24.5t23.5 15.5q2 4 12 4q6 6 14.5 11t16.5 14q29 27 60.5 61.5t31.5 64.5q-16 4 -34.5 1t-35.5 -7q-27 -6 -49 -10t-38.5 8.5t-24.5 46t-4 101.5z" />
<glyph unicode="&#xbf;" horiz-adv-x="368" d="M41 272.5v44.5q0 88 15.5 184.5t31.5 182.5q16 74 29.5 152.5t17.5 154.5q16 33 45 31t35 -37q-4 -86 -17 -165t-28 -157q-16 -86 -29.5 -170t-17.5 -166q-4 -92 11.5 -138t37.5 -46q18 0 39 38t31 110l2 6q16 31 44 27.5t34 -38.5q-6 -45 -23.5 -86t-41 -71.5t-50.5 -48 t-53 -17.5q-39 0 -68.5 39t-40.5 125q-4 23 -4 45.5zM84 1288v8q0 20 11.5 30.5t25.5 11.5t27.5 -9t15.5 -29v-18q-2 -20 -15.5 -29.5t-27.5 -8.5t-25.5 12t-11.5 32z" />
<glyph unicode="&#xc0;" horiz-adv-x="845" d="M-6 176q0 43 22.5 94.5t52 99.5t57.5 85t38 49q80 84 170 145q18 78 32.5 160t30.5 162q29 164 68 334q8 29 27.5 84t49 107t68.5 90t84 32q10 -4 14.5 -6t12.5 -13q4 -10 7 -19l7 -21q8 -18 16.5 -40t10.5 -44q4 -74 5 -123t1 -90q0 -31 -1 -61t-3 -65.5t-5 -81.5 t-7 -108q-4 -35 -6.5 -55.5t-4.5 -54.5q68 20 136.5 31.5t140.5 19.5h2q20 0 31.5 -11.5t12.5 -25.5t-9.5 -27.5t-30.5 -15.5q-68 -8 -142.5 -20.5t-146.5 -34.5l-14 -215q-14 -156 -26.5 -309.5t-18.5 -309.5q0 -14 -1 -30.5t-3 -32.5q-2 -33 -4 -73t-2 -77q0 -47 5 -91 t18 -81t37 -61.5t60 -28.5q14 -12 19.5 -26.5t2.5 -27t-14.5 -19.5t-29.5 -5q-55 18 -90 51t-53.5 77t-25.5 96.5t-7 107.5q0 37 1 76t3 77q0 16 2 37t2 37q6 150 17.5 298.5t25.5 297.5l18 207q-66 -27 -129 -57.5t-120 -65.5q-10 -43 -20.5 -84t-22.5 -82 q-12 -39 -37 -109.5t-64 -134t-92 -100.5t-123 -8q-55 27 -55 90zM69 164q1 -8 7 -6h2l26 6q10 4 25.5 7t24.5 7q23 25 43 63t36.5 78.5t30 79.5t21.5 64q4 14 6 20t4 10.5t3 11.5t5 23q-23 -20 -42 -38.5t-38 -38.5q-31 -31 -49 -53.5t-31.5 -44t-25 -46t-23.5 -55.5 q-4 -4 -8 -15.5t-6 -17.5q-2 -4 -5 -14t-5 -21.5t-1 -19.5zM432 711q55 31 112.5 55.5t117.5 46.5l10 141l8 105q4 55 8 111.5t4 109.5q0 66 -6 127t-24 121q-29 -27 -52.5 -73t-41 -98t-30 -105.5t-20.5 -96.5q-2 -12 -5 -24.5t-5 -22.5l-27 -139q-12 -63 -23.5 -128 t-25.5 -130zM567 1882l2 2q10 16 24.5 20.5t26.5 -1t19.5 -18.5t3.5 -30q18 -47 52 -91t73 -79q12 -16 11 -29.5t-10.5 -22.5t-23.5 -11t-31 6q-12 12 -41.5 46t-56.5 74t-44 78t-5 56z" />
<glyph unicode="&#xc1;" horiz-adv-x="845" d="M-6 176q0 43 22.5 94.5t52 99.5t57.5 85t38 49q80 84 170 145q18 78 32.5 160t30.5 162q29 164 68 334q8 29 27.5 84t49 107t68.5 90t84 32q10 -4 14.5 -6t12.5 -13q4 -10 7 -19l7 -21q8 -18 16.5 -40t10.5 -44q4 -74 5 -123t1 -90q0 -31 -1 -61t-3 -65.5t-5 -81.5 t-7 -108q-4 -35 -6.5 -55.5t-4.5 -54.5q68 20 136.5 31.5t140.5 19.5h2q20 0 31.5 -11.5t12.5 -25.5t-9.5 -27.5t-30.5 -15.5q-68 -8 -142.5 -20.5t-146.5 -34.5l-14 -215q-14 -156 -26.5 -309.5t-18.5 -309.5q0 -14 -1 -30.5t-3 -32.5q-2 -33 -4 -73t-2 -77q0 -47 5 -91 t18 -81t37 -61.5t60 -28.5q14 -12 19.5 -26.5t2.5 -27t-14.5 -19.5t-29.5 -5q-55 18 -90 51t-53.5 77t-25.5 96.5t-7 107.5q0 37 1 76t3 77q0 16 2 37t2 37q6 150 17.5 298.5t25.5 297.5l18 207q-66 -27 -129 -57.5t-120 -65.5q-10 -43 -20.5 -84t-22.5 -82 q-12 -39 -37 -109.5t-64 -134t-92 -100.5t-123 -8q-55 27 -55 90zM69 164q1 -8 7 -6h2l26 6q10 4 25.5 7t24.5 7q23 25 43 63t36.5 78.5t30 79.5t21.5 64q4 14 6 20t4 10.5t3 11.5t5 23q-23 -20 -42 -38.5t-38 -38.5q-31 -31 -49 -53.5t-31.5 -44t-25 -46t-23.5 -55.5 q-4 -4 -8 -15.5t-6 -17.5q-2 -4 -5 -14t-5 -21.5t-1 -19.5zM432 711q55 31 112.5 55.5t117.5 46.5l10 141l8 105q4 55 8 111.5t4 109.5q0 66 -6 127t-24 121q-29 -27 -52.5 -73t-41 -98t-30 -105.5t-20.5 -96.5q-2 -12 -5 -24.5t-5 -22.5l-27 -139q-12 -63 -23.5 -128 t-25.5 -130zM526 1686.5q-2 13.5 6 27.5l55 61q25 27 51.5 53.5t55.5 49.5q14 10 29.5 8t24.5 -11t10 -24.5t-11 -29.5q-27 -20 -54.5 -49t-49.5 -52l-52 -55l-4 -4q-14 -8 -27.5 -6t-22.5 10t-11 21.5z" />
<glyph unicode="&#xc2;" horiz-adv-x="845" d="M-6 176q0 43 22.5 94.5t52 99.5t57.5 85t38 49q80 84 170 145q18 78 32.5 160t30.5 162q29 164 68 334q8 29 27.5 84t49 107t68.5 90t84 32q10 -4 14.5 -6t12.5 -13q4 -10 7 -19l7 -21q8 -18 16.5 -40t10.5 -44q4 -74 5 -123t1 -90q0 -31 -1 -61t-3 -65.5t-5 -81.5 t-7 -108q-4 -35 -6.5 -55.5t-4.5 -54.5q68 20 136.5 31.5t140.5 19.5h2q20 0 31.5 -11.5t12.5 -25.5t-9.5 -27.5t-30.5 -15.5q-68 -8 -142.5 -20.5t-146.5 -34.5l-14 -215q-14 -156 -26.5 -309.5t-18.5 -309.5q0 -14 -1 -30.5t-3 -32.5q-2 -33 -4 -73t-2 -77q0 -47 5 -91 t18 -81t37 -61.5t60 -28.5q14 -12 19.5 -26.5t2.5 -27t-14.5 -19.5t-29.5 -5q-55 18 -90 51t-53.5 77t-25.5 96.5t-7 107.5q0 37 1 76t3 77q0 16 2 37t2 37q6 150 17.5 298.5t25.5 297.5l18 207q-66 -27 -129 -57.5t-120 -65.5q-10 -43 -20.5 -84t-22.5 -82 q-12 -39 -37 -109.5t-64 -134t-92 -100.5t-123 -8q-55 27 -55 90zM69 164q1 -8 7 -6h2l26 6q10 4 25.5 7t24.5 7q23 25 43 63t36.5 78.5t30 79.5t21.5 64q4 14 6 20t4 10.5t3 11.5t5 23q-23 -20 -42 -38.5t-38 -38.5q-31 -31 -49 -53.5t-31.5 -44t-25 -46t-23.5 -55.5 q-4 -4 -8 -15.5t-6 -17.5q-2 -4 -5 -14t-5 -21.5t-1 -19.5zM432 711q55 31 112.5 55.5t117.5 46.5l10 141l8 105q4 55 8 111.5t4 109.5q0 66 -6 127t-24 121q-29 -27 -52.5 -73t-41 -98t-30 -105.5t-20.5 -96.5q-2 -12 -5 -24.5t-5 -22.5l-27 -139q-12 -63 -23.5 -128 t-25.5 -130zM479 1702q10 23 24.5 43t30.5 41l15 18q37 51 62.5 72.5t47.5 21.5q25 0 43.5 -21.5t40.5 -55.5q10 -16 24.5 -37t37.5 -45q14 -16 12 -31.5t-13.5 -25t-28.5 -9.5t-32 16l-28 43q-16 23 -35 50t-29 37q-27 -23 -53.5 -66t-42.5 -74q-2 -2 -2 -4q-2 -2 -2 -4 q-10 -14 -23.5 -19.5t-25 0t-19.5 17.5t-4 33zM518 1687l14 -4l-14 11v-7z" />
<glyph unicode="&#xc3;" horiz-adv-x="845" d="M-6 176q0 43 22.5 94.5t52 99.5t57.5 85t38 49q80 84 170 145q18 78 32.5 160t30.5 162q29 164 68 334q8 29 27.5 84t49 107t68.5 90t84 32q10 -4 14.5 -6t12.5 -13q4 -10 7 -19l7 -21q8 -18 16.5 -40t10.5 -44q4 -74 5 -123t1 -90q0 -31 -1 -61t-3 -65.5t-5 -81.5 t-7 -108q-4 -35 -6.5 -55.5t-4.5 -54.5q68 20 136.5 31.5t140.5 19.5h2q20 0 31.5 -11.5t12.5 -25.5t-9.5 -27.5t-30.5 -15.5q-68 -8 -142.5 -20.5t-146.5 -34.5l-14 -215q-14 -156 -26.5 -309.5t-18.5 -309.5q0 -14 -1 -30.5t-3 -32.5q-2 -33 -4 -73t-2 -77q0 -47 5 -91 t18 -81t37 -61.5t60 -28.5q14 -12 19.5 -26.5t2.5 -27t-14.5 -19.5t-29.5 -5q-55 18 -90 51t-53.5 77t-25.5 96.5t-7 107.5q0 37 1 76t3 77q0 16 2 37t2 37q6 150 17.5 298.5t25.5 297.5l18 207q-66 -27 -129 -57.5t-120 -65.5q-10 -43 -20.5 -84t-22.5 -82 q-12 -39 -37 -109.5t-64 -134t-92 -100.5t-123 -8q-55 27 -55 90zM69 164q1 -8 7 -6h2l26 6q10 4 25.5 7t24.5 7q23 25 43 63t36.5 78.5t30 79.5t21.5 64q4 14 6 20t4 10.5t3 11.5t5 23q-23 -20 -42 -38.5t-38 -38.5q-31 -31 -49 -53.5t-31.5 -44t-25 -46t-23.5 -55.5 q-4 -4 -8 -15.5t-6 -17.5q-2 -4 -5 -14t-5 -21.5t-1 -19.5zM432 711q55 31 112.5 55.5t117.5 46.5l10 141l8 105q4 55 8 111.5t4 109.5q0 66 -6 127t-24 121q-29 -27 -52.5 -73t-41 -98t-30 -105.5t-20.5 -96.5q-2 -12 -5 -24.5t-5 -22.5l-27 -139q-12 -63 -23.5 -128 t-25.5 -130zM467 1702q18 49 35 71q29 41 52 57.5t40 16.5q25 0 39 -20.5t26 -44.5l31 -52q16 16 24.5 35t16.5 35q8 20 17.5 39.5t21.5 36.5q12 12 27.5 12t27 -6t15.5 -19.5t-4 -29.5v4q0 -2 -1.5 -3t-1.5 -3v-2q-12 -12 -14 -19q-14 -20 -26 -51q-16 -31 -33 -59.5 t-35 -46t-39.5 -17.5t-46.5 29q-14 20 -26.5 41.5t-24.5 44.5v4q-16 -10 -28.5 -30.5t-16.5 -37.5v-2q-8 -16 -22.5 -23t-27 -5t-21.5 13t-5 32z" />
<glyph unicode="&#xc4;" horiz-adv-x="845" d="M-6 176q0 43 22.5 94.5t52 99.5t57.5 85t38 49q80 84 170 145q18 78 32.5 160t30.5 162q29 164 68 334q8 29 27.5 84t49 107t68.5 90t84 32q10 -4 14.5 -6t12.5 -13q4 -10 7 -19l7 -21q8 -18 16.5 -40t10.5 -44q4 -74 5 -123t1 -90q0 -31 -1 -61t-3 -65.5t-5 -81.5 t-7 -108q-4 -35 -6.5 -55.5t-4.5 -54.5q68 20 136.5 31.5t140.5 19.5h2q20 0 31.5 -11.5t12.5 -25.5t-9.5 -27.5t-30.5 -15.5q-68 -8 -142.5 -20.5t-146.5 -34.5l-14 -215q-14 -156 -26.5 -309.5t-18.5 -309.5q0 -14 -1 -30.5t-3 -32.5q-2 -33 -4 -73t-2 -77q0 -47 5 -91 t18 -81t37 -61.5t60 -28.5q14 -12 19.5 -26.5t2.5 -27t-14.5 -19.5t-29.5 -5q-55 18 -90 51t-53.5 77t-25.5 96.5t-7 107.5q0 37 1 76t3 77q0 16 2 37t2 37q6 150 17.5 298.5t25.5 297.5l18 207q-66 -27 -129 -57.5t-120 -65.5q-10 -43 -20.5 -84t-22.5 -82 q-12 -39 -37 -109.5t-64 -134t-92 -100.5t-123 -8q-55 27 -55 90zM69 164q1 -8 7 -6h2l26 6q10 4 25.5 7t24.5 7q23 25 43 63t36.5 78.5t30 79.5t21.5 64q4 14 6 20t4 10.5t3 11.5t5 23q-23 -20 -42 -38.5t-38 -38.5q-31 -31 -49 -53.5t-31.5 -44t-25 -46t-23.5 -55.5 q-4 -4 -8 -15.5t-6 -17.5q-2 -4 -5 -14t-5 -21.5t-1 -19.5zM432 711q55 31 112.5 55.5t117.5 46.5l10 141l8 105q4 55 8 111.5t4 109.5q0 66 -6 127t-24 121q-29 -27 -52.5 -73t-41 -98t-30 -105.5t-20.5 -96.5q-2 -12 -5 -24.5t-5 -22.5l-27 -139q-12 -63 -23.5 -128 t-25.5 -130zM508 1759q0 23 14 38t55 22h2q23 0 34 -17.5t9 -40.5v-4q0 -2 2 -2q-6 -31 -23 -44t-34 -13q-23 0 -41 19.5t-18 41.5zM708.5 1755q6.5 25 32.5 51q23 23 47 21q0 -2 2 -2h7l4 -2l8 -2q27 -14 33 -33t-1.5 -36t-24.5 -31.5t-36 -20.5h2q-25 -12 -44 -7t-27.5 21 t-2 41z" />
<glyph unicode="&#xc5;" horiz-adv-x="845" d="M-6 176q0 43 22.5 94.5t52 99.5t57.5 85t38 49q80 84 170 145q18 78 32.5 160t30.5 162q29 164 68 334q8 29 27.5 84t49 107t68.5 90t84 32q10 -4 14.5 -6t12.5 -13q4 -10 7 -19l7 -21q8 -18 16.5 -40t10.5 -44q4 -74 5 -123t1 -90q0 -31 -1 -61t-3 -65.5t-5 -81.5 t-7 -108q-4 -35 -6.5 -55.5t-4.5 -54.5q68 20 136.5 31.5t140.5 19.5h2q20 0 31.5 -11.5t12.5 -25.5t-9.5 -27.5t-30.5 -15.5q-68 -8 -142.5 -20.5t-146.5 -34.5l-14 -215q-14 -156 -26.5 -309.5t-18.5 -309.5q0 -14 -1 -30.5t-3 -32.5q-2 -33 -4 -73t-2 -77q0 -47 5 -91 t18 -81t37 -61.5t60 -28.5q14 -12 19.5 -26.5t2.5 -27t-14.5 -19.5t-29.5 -5q-55 18 -90 51t-53.5 77t-25.5 96.5t-7 107.5q0 37 1 76t3 77q0 16 2 37t2 37q6 150 17.5 298.5t25.5 297.5l18 207q-66 -27 -129 -57.5t-120 -65.5q-10 -43 -20.5 -84t-22.5 -82 q-12 -39 -37 -109.5t-64 -134t-92 -100.5t-123 -8q-55 27 -55 90zM69 164q1 -8 7 -6h2l26 6q10 4 25.5 7t24.5 7q23 25 43 63t36.5 78.5t30 79.5t21.5 64q4 14 6 20t4 10.5t3 11.5t5 23q-23 -20 -42 -38.5t-38 -38.5q-31 -31 -49 -53.5t-31.5 -44t-25 -46t-23.5 -55.5 q-4 -4 -8 -15.5t-6 -17.5q-2 -4 -5 -14t-5 -21.5t-1 -19.5zM432 711q55 31 112.5 55.5t117.5 46.5l10 141l8 105q4 55 8 111.5t4 109.5q0 66 -6 127t-24 121q-29 -27 -52.5 -73t-41 -98t-30 -105.5t-20.5 -96.5q-2 -12 -5 -24.5t-5 -22.5l-27 -139q-12 -63 -23.5 -128 t-25.5 -130zM553 1763q0 25 9 48.5t24.5 43t38 32.5t51.5 13q31 0 41 -23.5t-7 -39.5q25 -10 36.5 -27.5t11.5 -36.5q0 -20 -13.5 -41.5t-35 -37t-46 -22.5t-45.5 -1q-66 25 -65 92zM635 1786q0 -14 7 -27.5t17 -13.5q6 0 15 20l-23 4q-12 6 -16 17z" />
<glyph unicode="&#xc6;" horiz-adv-x="1464" d="M-6 176q0 43 22.5 94.5t52 99.5t57.5 85t38 49q80 84 170 145q18 78 32.5 160t30.5 162q29 164 68 334q8 29 27.5 84t49 107t68.5 90t84 32q10 -4 14.5 -6t12.5 -13q4 -10 7 -19l7 -21q8 -18 16.5 -40t10.5 -44q4 -74 5 -123t1 -90q0 -31 -1 -61t-3 -65.5t-5 -81.5 t-7 -108q-4 -35 -6.5 -55.5t-4.5 -54.5q68 20 136.5 31.5t140.5 19.5h2q20 0 31.5 -11.5t12.5 -25.5t-9.5 -27.5t-30.5 -15.5q-68 -8 -142.5 -20.5t-146.5 -34.5l-14 -215q-14 -156 -26.5 -309.5t-18.5 -309.5q0 -14 -1 -30.5t-3 -32.5q-2 -33 -4 -73t-2 -77q0 -47 5 -91 t18 -81t37 -61.5t60 -28.5q14 -12 19.5 -26.5t2.5 -27t-14.5 -19.5t-29.5 -5q-55 18 -90 51t-53.5 77t-25.5 96.5t-7 107.5q0 37 1 76t3 77q0 16 2 37t2 37q6 150 17.5 298.5t25.5 297.5l18 207q-66 -27 -129 -57.5t-120 -65.5q-10 -43 -20.5 -84t-22.5 -82 q-12 -39 -37 -109.5t-64 -134t-92 -100.5t-123 -8q-55 27 -55 90zM69 164q1 -8 7 -6h2l26 6q10 4 25.5 7t24.5 7q23 25 43 63t36.5 78.5t30 79.5t21.5 64q4 14 6 20t4 10.5t3 11.5t5 23q-23 -20 -42 -38.5t-38 -38.5q-31 -31 -49 -53.5t-31.5 -44t-25 -46t-23.5 -55.5 q-4 -4 -8 -15.5t-6 -17.5q-2 -4 -5 -14t-5 -21.5t-1 -19.5zM432 711q55 31 112.5 55.5t117.5 46.5l10 141l8 105q4 55 8 111.5t4 109.5q0 66 -6 127t-24 121q-29 -27 -52.5 -73t-41 -98t-30 -105.5t-20.5 -96.5q-2 -12 -5 -24.5t-5 -22.5l-27 -139q-12 -63 -23.5 -128 t-25.5 -130zM528 721q-8 84 12.5 185.5t70.5 210t132 223t195 227.5q59 59 133.5 99t146.5 40q61 0 110.5 -35t78.5 -121q6 -18 -1.5 -32.5t-20.5 -20.5t-28.5 -1t-25.5 26q-16 37 -29.5 59.5t-24 33.5t-18.5 13t-16 2q-33 -2 -67 -14t-66.5 -29.5t-63.5 -39t-55 -40.5 q-63 -57 -132 -144t-126.5 -188.5t-95 -210t-37.5 -206.5q0 -92 36 -166q29 -59 85.5 -83t127.5 -24q59 0 126 12.5t133 26.5q72 14 138 24.5t113 4.5q20 -8 30.5 -17.5t10.5 -29.5q-16 -84 -63 -147.5t-98 -125.5q-41 -49 -82 -104t-64 -115q-10 -29 0 -63.5t39 -48.5 q18 -6 48 -8.5t59 -6.5l63 -6q16 -4 24.5 -16t8.5 -25.5t-10.5 -25t-30.5 -13.5l-59 6q-31 4 -66 7.5t-64 11.5q-55 16 -79.5 49t-24.5 80q0 45 24.5 100.5t59.5 109.5t73 102t66 83l33 39q16 20 29.5 43t23.5 45q-33 2 -74.5 -8t-82.5 -20l-48 -13q-70 -14 -135 -25.5 t-127 -11.5q-61 0 -114.5 14.5t-95.5 51.5t-68.5 99.5t-36.5 156.5z" />
<glyph unicode="&#xc7;" horiz-adv-x="1206" d="M0 444q0 129 47 261q18 55 41 98t45 86q12 23 24.5 47.5t24.5 46.5q25 47 87.5 120t161.5 149.5t234.5 145t301.5 109.5h4q37 0 42 -28.5t-28 -51.5q-152 -31 -288 -99t-248.5 -166.5t-195.5 -220.5t-130 -259q-18 -49 -32.5 -117.5t-14.5 -140.5q0 -47 10 -93t37 -81 q45 -59 103.5 -82t119.5 -23q55 0 113.5 12.5t109.5 26.5q70 20 159 57.5t178 82.5t171 94t142 92q16 8 29.5 4t20.5 -15.5t6 -27.5t-13 -29q-94 -72 -194.5 -132t-213.5 -109q-53 -23 -115.5 -47.5t-128 -44t-133 -31.5t-129.5 -12q-92 0 -169 32.5t-130 118.5 q-27 53 -38 109.5t-11 117.5zM482 -33l8 73q4 25 6 46.5t4 44.5q2 20 15.5 29.5t26.5 8t24.5 -12.5t11.5 -32q0 -25 -2 -43t-6 -38q-4 -25 -7 -48.5t-3 -46.5q0 -41 8 -63l2 2q-4 4 9 5t30 5q35 6 73.5 4t53.5 -31q12 -33 -7.5 -79.5t-52 -91t-70.5 -75t-63 -30.5 q-18 2 -28.5 13.5t-11.5 24.5t6.5 24.5t23.5 15.5q2 4 12 4q6 6 14.5 11t16.5 14q29 27 60.5 61.5t31.5 64.5q-16 4 -34.5 1t-35.5 -7q-27 -6 -49 -10t-38.5 8.5t-24.5 46t-4 101.5z" />
<glyph unicode="&#xc8;" horiz-adv-x="915" d="M-2 721q-8 84 12.5 185.5t70.5 210t132 223t195 227.5q59 59 133.5 99t146.5 40q61 0 110.5 -35t78.5 -121q6 -18 -1.5 -32.5t-20.5 -20.5t-28.5 -1t-25.5 26q-16 37 -29.5 59.5t-24 33.5t-18.5 13t-16 2q-33 -2 -67 -14t-66.5 -29.5t-63.5 -39t-55 -40.5 q-63 -57 -132 -144t-126.5 -188.5t-95 -210t-37.5 -206.5q0 -92 36 -166q29 -59 85.5 -83t127.5 -24q59 0 126 12.5t133 26.5q72 14 138 24.5t113 4.5q20 -8 30.5 -17.5t10.5 -29.5q-16 -84 -63 -147.5t-98 -125.5q-41 -49 -82 -104t-64 -115q-10 -29 0 -63.5t39 -48.5 q18 -6 48 -8.5t59 -6.5l63 -6q16 -4 24.5 -16t8.5 -25.5t-10.5 -25t-30.5 -13.5l-59 6q-31 4 -66 7.5t-64 11.5q-55 16 -79.5 49t-24.5 80q0 45 24.5 100.5t59.5 109.5t73 102t66 83l33 39q16 20 29.5 43t23.5 45q-33 2 -74.5 -8t-82.5 -20l-48 -13q-70 -14 -135 -25.5 t-127 -11.5q-61 0 -114.5 14.5t-95.5 51.5t-68.5 99.5t-36.5 156.5zM543 1985l2 2q10 16 24.5 20.5t26.5 -1t19.5 -18.5t3.5 -30q18 -47 52 -91t73 -79q12 -16 11 -29.5t-10.5 -22.5t-23.5 -11t-31 6q-12 12 -41.5 46t-56.5 74t-44 78t-5 56z" />
<glyph unicode="&#xc9;" horiz-adv-x="915" d="M-2 721q-8 84 12.5 185.5t70.5 210t132 223t195 227.5q59 59 133.5 99t146.5 40q61 0 110.5 -35t78.5 -121q6 -18 -1.5 -32.5t-20.5 -20.5t-28.5 -1t-25.5 26q-16 37 -29.5 59.5t-24 33.5t-18.5 13t-16 2q-33 -2 -67 -14t-66.5 -29.5t-63.5 -39t-55 -40.5 q-63 -57 -132 -144t-126.5 -188.5t-95 -210t-37.5 -206.5q0 -92 36 -166q29 -59 85.5 -83t127.5 -24q59 0 126 12.5t133 26.5q72 14 138 24.5t113 4.5q20 -8 30.5 -17.5t10.5 -29.5q-16 -84 -63 -147.5t-98 -125.5q-41 -49 -82 -104t-64 -115q-10 -29 0 -63.5t39 -48.5 q18 -6 48 -8.5t59 -6.5l63 -6q16 -4 24.5 -16t8.5 -25.5t-10.5 -25t-30.5 -13.5l-59 6q-31 4 -66 7.5t-64 11.5q-55 16 -79.5 49t-24.5 80q0 45 24.5 100.5t59.5 109.5t73 102t66 83l33 39q16 20 29.5 43t23.5 45q-33 2 -74.5 -8t-82.5 -20l-48 -13q-70 -14 -135 -25.5 t-127 -11.5q-61 0 -114.5 14.5t-95.5 51.5t-68.5 99.5t-36.5 156.5zM576 1762.5q-2 13.5 6 27.5l55 61q25 27 51.5 53.5t55.5 49.5q14 10 29.5 8t24.5 -11t10 -24.5t-11 -29.5q-27 -20 -54.5 -49t-49.5 -52l-52 -55l-4 -4q-14 -8 -27.5 -6t-22.5 10t-11 21.5z" />
<glyph unicode="&#xca;" horiz-adv-x="915" d="M-2 721q-8 84 12.5 185.5t70.5 210t132 223t195 227.5q59 59 133.5 99t146.5 40q61 0 110.5 -35t78.5 -121q6 -18 -1.5 -32.5t-20.5 -20.5t-28.5 -1t-25.5 26q-16 37 -29.5 59.5t-24 33.5t-18.5 13t-16 2q-33 -2 -67 -14t-66.5 -29.5t-63.5 -39t-55 -40.5 q-63 -57 -132 -144t-126.5 -188.5t-95 -210t-37.5 -206.5q0 -92 36 -166q29 -59 85.5 -83t127.5 -24q59 0 126 12.5t133 26.5q72 14 138 24.5t113 4.5q20 -8 30.5 -17.5t10.5 -29.5q-16 -84 -63 -147.5t-98 -125.5q-41 -49 -82 -104t-64 -115q-10 -29 0 -63.5t39 -48.5 q18 -6 48 -8.5t59 -6.5l63 -6q16 -4 24.5 -16t8.5 -25.5t-10.5 -25t-30.5 -13.5l-59 6q-31 4 -66 7.5t-64 11.5q-55 16 -79.5 49t-24.5 80q0 45 24.5 100.5t59.5 109.5t73 102t66 83l33 39q16 20 29.5 43t23.5 45q-33 2 -74.5 -8t-82.5 -20l-48 -13q-70 -14 -135 -25.5 t-127 -11.5q-61 0 -114.5 14.5t-95.5 51.5t-68.5 99.5t-36.5 156.5zM479 1805q10 23 24.5 43t30.5 41l15 18q37 51 62.5 72.5t47.5 21.5q25 0 43.5 -21.5t40.5 -55.5q10 -16 24.5 -37t37.5 -45q14 -16 12 -31.5t-13.5 -25t-28.5 -9.5t-32 16l-28 43q-16 23 -35 50t-29 37 q-27 -23 -53.5 -66t-42.5 -74q-2 -2 -2 -4q-2 -2 -2 -4q-10 -14 -23.5 -19.5t-25 0t-19.5 17.5t-4 33zM518 1790l14 -4l-14 11v-7z" />
<glyph unicode="&#xcb;" horiz-adv-x="915" d="M-2 721q-8 84 12.5 185.5t70.5 210t132 223t195 227.5q59 59 133.5 99t146.5 40q61 0 110.5 -35t78.5 -121q6 -18 -1.5 -32.5t-20.5 -20.5t-28.5 -1t-25.5 26q-16 37 -29.5 59.5t-24 33.5t-18.5 13t-16 2q-33 -2 -67 -14t-66.5 -29.5t-63.5 -39t-55 -40.5 q-63 -57 -132 -144t-126.5 -188.5t-95 -210t-37.5 -206.5q0 -92 36 -166q29 -59 85.5 -83t127.5 -24q59 0 126 12.5t133 26.5q72 14 138 24.5t113 4.5q20 -8 30.5 -17.5t10.5 -29.5q-16 -84 -63 -147.5t-98 -125.5q-41 -49 -82 -104t-64 -115q-10 -29 0 -63.5t39 -48.5 q18 -6 48 -8.5t59 -6.5l63 -6q16 -4 24.5 -16t8.5 -25.5t-10.5 -25t-30.5 -13.5l-59 6q-31 4 -66 7.5t-64 11.5q-55 16 -79.5 49t-24.5 80q0 45 24.5 100.5t59.5 109.5t73 102t66 83l33 39q16 20 29.5 43t23.5 45q-33 2 -74.5 -8t-82.5 -20l-48 -13q-70 -14 -135 -25.5 t-127 -11.5q-61 0 -114.5 14.5t-95.5 51.5t-68.5 99.5t-36.5 156.5zM535 1827q0 23 14 38t55 22h2q23 0 34 -17.5t9 -40.5v-4q0 -2 2 -2q-6 -31 -23 -44t-34 -13q-23 0 -41 19.5t-18 41.5zM735.5 1823q6.5 25 32.5 51q23 23 47 21q0 -2 2 -2h7l4 -2l8 -2q27 -14 33 -33 t-1.5 -36t-24.5 -31.5t-36 -20.5h2q-25 -12 -44 -7t-27.5 21t-2 41z" />
<glyph unicode="&#xcc;" horiz-adv-x="890" d="M-4 354q-2 18 5 31.5t18.5 19t24.5 2t26 -17.5q8 -16 15 -35.5t15 -40.5v2q12 -35 25.5 -68.5t38.5 -60.5q41 -47 104 -47q27 0 55.5 9.5t53.5 21.5q-14 72 -31.5 149.5t-34.5 149.5v-2q-8 29 -15 58.5t-13 58.5l-17 71q-10 43 -21.5 95.5t-21.5 108.5t-16 112.5 t-6 105.5q0 78 17.5 144.5t60.5 113.5q41 45 82.5 63.5t87.5 18.5q70 0 137 -42t121.5 -103.5t90.5 -130t46 -121.5q8 -41 12 -81t4 -79q0 -111 -30.5 -212t-83 -192t-124 -172t-151.5 -153l-8 -8q2 -14 4 -31.5t4 -32.5v-2q0 -20 -11 -31.5t-25.5 -11.5t-27 9.5t-14.5 27.5 v2q-2 14 0 14.5t-2 14.5q-57 -23 -121 -23q-49 0 -93 16.5t-73 57.5q-23 31 -39 68t-30 71q-4 8 -4 10.5t-2 7.5t-9.5 19.5t-23.5 44.5zM281 1077q0 -104 23.5 -219t43.5 -199l14 -59l27 -111q16 -72 30.5 -135t29.5 -141q70 51 129 128t104 166t70.5 185t25.5 189 q0 31 -3 62.5t-11 60.5q-8 39 -37 96t-72 110.5t-94 90t-106 36.5q-31 0 -60.5 -12t-58.5 -45q-31 -33 -43 -85t-12 -118zM367 1759l2 2q10 16 24.5 20.5t26.5 -1t19.5 -18.5t3.5 -30q18 -47 52 -91t73 -79q12 -16 11 -29.5t-10.5 -22.5t-23.5 -11t-31 6q-12 12 -41.5 46 t-56.5 74t-44 78t-5 56z" />
<glyph unicode="&#xcd;" horiz-adv-x="890" d="M-4 354q-2 18 5 31.5t18.5 19t24.5 2t26 -17.5q8 -16 15 -35.5t15 -40.5v2q12 -35 25.5 -68.5t38.5 -60.5q41 -47 104 -47q27 0 55.5 9.5t53.5 21.5q-14 72 -31.5 149.5t-34.5 149.5v-2q-8 29 -15 58.5t-13 58.5l-17 71q-10 43 -21.5 95.5t-21.5 108.5t-16 112.5 t-6 105.5q0 78 17.5 144.5t60.5 113.5q41 45 82.5 63.5t87.5 18.5q70 0 137 -42t121.5 -103.5t90.5 -130t46 -121.5q8 -41 12 -81t4 -79q0 -111 -30.5 -212t-83 -192t-124 -172t-151.5 -153l-8 -8q2 -14 4 -31.5t4 -32.5v-2q0 -20 -11 -31.5t-25.5 -11.5t-27 9.5t-14.5 27.5 v2q-2 14 0 14.5t-2 14.5q-57 -23 -121 -23q-49 0 -93 16.5t-73 57.5q-23 31 -39 68t-30 71q-4 8 -4 10.5t-2 7.5t-9.5 19.5t-23.5 44.5zM281 1077q0 -104 23.5 -219t43.5 -199l14 -59l27 -111q16 -72 30.5 -135t29.5 -141q70 51 129 128t104 166t70.5 185t25.5 189 q0 31 -3 62.5t-11 60.5q-8 39 -37 96t-72 110.5t-94 90t-106 36.5q-31 0 -60.5 -12t-58.5 -45q-31 -33 -43 -85t-12 -118zM344 1584.5q-2 13.5 6 27.5l55 61q25 27 51.5 53.5t55.5 49.5q14 10 29.5 8t24.5 -11t10 -24.5t-11 -29.5q-27 -20 -54.5 -49t-49.5 -52l-52 -55 l-4 -4q-14 -8 -27.5 -6t-22.5 10t-11 21.5z" />
<glyph unicode="&#xce;" horiz-adv-x="890" d="M-4 354q-2 18 5 31.5t18.5 19t24.5 2t26 -17.5q8 -16 15 -35.5t15 -40.5v2q12 -35 25.5 -68.5t38.5 -60.5q41 -47 104 -47q27 0 55.5 9.5t53.5 21.5q-14 72 -31.5 149.5t-34.5 149.5v-2q-8 29 -15 58.5t-13 58.5l-17 71q-10 43 -21.5 95.5t-21.5 108.5t-16 112.5 t-6 105.5q0 78 17.5 144.5t60.5 113.5q41 45 82.5 63.5t87.5 18.5q70 0 137 -42t121.5 -103.5t90.5 -130t46 -121.5q8 -41 12 -81t4 -79q0 -111 -30.5 -212t-83 -192t-124 -172t-151.5 -153l-8 -8q2 -14 4 -31.5t4 -32.5v-2q0 -20 -11 -31.5t-25.5 -11.5t-27 9.5t-14.5 27.5 v2q-2 14 0 14.5t-2 14.5q-57 -23 -121 -23q-49 0 -93 16.5t-73 57.5q-23 31 -39 68t-30 71q-4 8 -4 10.5t-2 7.5t-9.5 19.5t-23.5 44.5zM281 1077q0 -104 23.5 -219t43.5 -199l14 -59l27 -111q16 -72 30.5 -135t29.5 -141q70 51 129 128t104 166t70.5 185t25.5 189 q0 31 -3 62.5t-11 60.5q-8 39 -37 96t-72 110.5t-94 90t-106 36.5q-31 0 -60.5 -12t-58.5 -45q-31 -33 -43 -85t-12 -118zM311 1579q10 23 24.5 43t30.5 41l15 18q37 51 62.5 72.5t47.5 21.5q25 0 43.5 -21.5t40.5 -55.5q10 -16 24.5 -37t37.5 -45q14 -16 12 -31.5 t-13.5 -25t-28.5 -9.5t-32 16l-28 43q-16 23 -35 50t-29 37q-27 -23 -53.5 -66t-42.5 -74q-2 -2 -2 -4q-2 -2 -2 -4q-10 -14 -23.5 -19.5t-25 0t-19.5 17.5t-4 33zM350 1564l14 -4l-14 11v-7z" />
<glyph unicode="&#xcf;" horiz-adv-x="890" d="M-4 354q-2 18 5 31.5t18.5 19t24.5 2t26 -17.5q8 -16 15 -35.5t15 -40.5v2q12 -35 25.5 -68.5t38.5 -60.5q41 -47 104 -47q27 0 55.5 9.5t53.5 21.5q-14 72 -31.5 149.5t-34.5 149.5v-2q-8 29 -15 58.5t-13 58.5l-17 71q-10 43 -21.5 95.5t-21.5 108.5t-16 112.5 t-6 105.5q0 78 17.5 144.5t60.5 113.5q41 45 82.5 63.5t87.5 18.5q70 0 137 -42t121.5 -103.5t90.5 -130t46 -121.5q8 -41 12 -81t4 -79q0 -111 -30.5 -212t-83 -192t-124 -172t-151.5 -153l-8 -8q2 -14 4 -31.5t4 -32.5v-2q0 -20 -11 -31.5t-25.5 -11.5t-27 9.5t-14.5 27.5 v2q-2 14 0 14.5t-2 14.5q-57 -23 -121 -23q-49 0 -93 16.5t-73 57.5q-23 31 -39 68t-30 71q-4 8 -4 10.5t-2 7.5t-9.5 19.5t-23.5 44.5zM281 1077q0 -104 23.5 -219t43.5 -199l14 -59l27 -111q16 -72 30.5 -135t29.5 -141q70 51 129 128t104 166t70.5 185t25.5 189 q0 31 -3 62.5t-11 60.5q-8 39 -37 96t-72 110.5t-94 90t-106 36.5q-31 0 -60.5 -12t-58.5 -45q-31 -33 -43 -85t-12 -118zM314 1646q0 23 14 38t55 22h2q23 0 34 -17.5t9 -40.5v-4q0 -2 2 -2q-6 -31 -23 -44t-34 -13q-23 0 -41 19.5t-18 41.5zM514.5 1642q6.5 25 32.5 51 q23 23 47 21q0 -2 2 -2h7l4 -2l8 -2q27 -14 33 -33t-1.5 -36t-24.5 -31.5t-36 -20.5h2q-25 -12 -44 -7t-27.5 21t-2 41z" />
<glyph unicode="&#xd0;" horiz-adv-x="1144" d="M-83 437q-1 30 32 44q51 4 106.5 11.5t110.5 15.5l133 16q20 0 32.5 -11t14.5 -25.5t-8 -28t-31 -15.5l-84 -12q-68 -10 -133 -18t-131 -13h-6q-35 6 -36 36zM-2 850q0 23 1 50.5t3 68.5l4 170q4 68 18.5 140.5t36.5 137.5q47 133 120 188.5t155 55.5q55 0 111.5 -20.5 t110.5 -56.5t104.5 -81t91.5 -94q170 -201 257 -412t87 -442q0 -123 -24.5 -249t-78.5 -261q-10 -25 -32.5 -74t-52 -108.5t-66.5 -122t-77 -112.5t-81 -82.5t-80 -32.5q-16 0 -27.5 9t-21.5 15h-2q-14 14 -17 29.5t3 27t19 16.5t30 1l22 -14q49 18 96.5 79.5t88.5 135 t72.5 145.5t50.5 115q98 252 98 487q0 211 -83 411.5t-243 387.5q-23 25 -63.5 63.5t-87.5 75.5t-92.5 62.5t-73.5 21.5q-92 -12 -149.5 -57t-90.5 -131q-33 -98 -48 -224.5t-15 -265.5q0 -131 13 -269t34.5 -269.5t51.5 -249t65 -209.5q10 -23 25 -52.5t32 -56.5l33 -55 l2 -4q4 -16 -1 -29.5t-16.5 -19.5t-26 -4t-28.5 16q-51 94 -89 185t-65.5 184.5t-46 191.5t-28.5 209l-19 205q-4 66 -7 99.5t-3 74.5z" />
<glyph unicode="&#xd1;" horiz-adv-x="1490" d="M-2 -182q8 88 23.5 194.5t36 220t48 231.5t62.5 228v-4q8 141 12 281v30q0 33 1 80t11.5 86t34 58.5t66.5 -4.5l2 -2q14 -12 19 -26.5t2 -27t-14 -18.5t-30 -2q-6 -27 -9 -84.5t-7 -114.5q47 111 122 235t212 263q31 31 68.5 56.5t79.5 46t87 31.5t90 11 q72 0 135.5 -32.5t104.5 -110.5q70 -129 101.5 -259t54.5 -274q23 -147 38 -308t27 -314q8 -104 16.5 -208t18.5 -208q0 -20 -11 -31.5t-25.5 -12.5t-28 8t-15.5 28q-8 76 -15 168t-13 194q-10 150 -24.5 319t-39.5 330.5t-62.5 300t-93.5 224.5q-35 53 -82 81.5t-104 28.5 q-35 0 -78 -16q-74 -29 -138.5 -81t-118.5 -117.5t-98 -138.5t-77 -140q-47 -88 -81 -172t-62 -170l2 4q-14 -160 -44 -323.5t-65 -321.5l-12 -60q-8 -43 -18.5 -87t-30.5 -85v4q0 -4 -1 -7t-1 -5q-23 -20 -46.5 -13t-29.5 36zM653 1702q18 49 35 71q29 41 52 57.5t40 16.5 q25 0 39 -20.5t26 -44.5l31 -52q16 16 24.5 35t16.5 35q8 20 17.5 39.5t21.5 36.5q12 12 27.5 12t27 -6t15.5 -19.5t-4 -29.5v4q0 -2 -1.5 -3t-1.5 -3v-2q-12 -12 -14 -19q-14 -20 -26 -51q-16 -31 -33 -59.5t-35 -46t-39.5 -17.5t-46.5 29q-14 20 -26.5 41.5t-24.5 44.5v4 q-16 -10 -28.5 -30.5t-16.5 -37.5v-2q-8 -16 -22.5 -23t-27 -5t-21.5 13t-5 32z" />
<glyph unicode="&#xd2;" horiz-adv-x="1253" d="M16 479q0 147 28 282.5t83 282.5q25 61 59.5 135t75.5 130q59 82 128 160.5t159 132.5q14 8 54 20t75 12t48 -18.5t-26 -69.5q-18 -25 -39.5 -17.5t-29.5 25.5q-16 -4 -36 -17t-38 -26l-10 -8q-61 -49 -120.5 -111.5t-100.5 -127.5h2q-104 -170 -170 -370t-70 -398 q0 -43 6 -96.5t22.5 -102.5t45 -89t76.5 -61q61 -23 122 -22q88 0 180.5 36t179.5 95t162.5 138t130 166t81 176t16.5 169q-12 84 -60.5 165t-118 143.5t-150.5 101.5t-156 39q-53 0 -97 -21q-20 -4 -32.5 5.5t-15.5 23.5t4.5 28.5t25.5 22.5q55 12 111 12q106 0 203.5 -44 t174 -115.5t128 -163.5t65.5 -191v2q4 -16 4 -33.5v-35.5q0 -117 -54.5 -229.5t-137 -209t-185 -172t-196.5 -120.5q-61 -25 -125 -46.5t-138 -21.5q-70 0 -153 29q-35 12 -66.5 41.5t-57.5 66.5t-42 77t-18 73q-6 76 -7 147zM528 1882l2 2q10 16 24.5 20.5t26.5 -1 t19.5 -18.5t3.5 -30q18 -47 52 -91t73 -79q12 -16 11 -29.5t-10.5 -22.5t-23.5 -11t-31 6q-12 12 -41.5 46t-56.5 74t-44 78t-5 56z" />
<glyph unicode="&#xd3;" horiz-adv-x="1253" d="M16 479q0 147 28 282.5t83 282.5q25 61 59.5 135t75.5 130q59 82 128 160.5t159 132.5q14 8 54 20t75 12t48 -18.5t-26 -69.5q-18 -25 -39.5 -17.5t-29.5 25.5q-16 -4 -36 -17t-38 -26l-10 -8q-61 -49 -120.5 -111.5t-100.5 -127.5h2q-104 -170 -170 -370t-70 -398 q0 -43 6 -96.5t22.5 -102.5t45 -89t76.5 -61q61 -23 122 -22q88 0 180.5 36t179.5 95t162.5 138t130 166t81 176t16.5 169q-12 84 -60.5 165t-118 143.5t-150.5 101.5t-156 39q-53 0 -97 -21q-20 -4 -32.5 5.5t-15.5 23.5t4.5 28.5t25.5 22.5q55 12 111 12q106 0 203.5 -44 t174 -115.5t128 -163.5t65.5 -191v2q4 -16 4 -33.5v-35.5q0 -117 -54.5 -229.5t-137 -209t-185 -172t-196.5 -120.5q-61 -25 -125 -46.5t-138 -21.5q-70 0 -153 29q-35 12 -66.5 41.5t-57.5 66.5t-42 77t-18 73q-6 76 -7 147zM506 1686.5q-2 13.5 6 27.5l55 61 q25 27 51.5 53.5t55.5 49.5q14 10 29.5 8t24.5 -11t10 -24.5t-11 -29.5q-27 -20 -54.5 -49t-49.5 -52l-52 -55l-4 -4q-14 -8 -27.5 -6t-22.5 10t-11 21.5z" />
<glyph unicode="&#xd4;" horiz-adv-x="1253" d="M16 479q0 147 28 282.5t83 282.5q25 61 59.5 135t75.5 130q59 82 128 160.5t159 132.5q14 8 54 20t75 12t48 -18.5t-26 -69.5q-18 -25 -39.5 -17.5t-29.5 25.5q-16 -4 -36 -17t-38 -26l-10 -8q-61 -49 -120.5 -111.5t-100.5 -127.5h2q-104 -170 -170 -370t-70 -398 q0 -43 6 -96.5t22.5 -102.5t45 -89t76.5 -61q61 -23 122 -22q88 0 180.5 36t179.5 95t162.5 138t130 166t81 176t16.5 169q-12 84 -60.5 165t-118 143.5t-150.5 101.5t-156 39q-53 0 -97 -21q-20 -4 -32.5 5.5t-15.5 23.5t4.5 28.5t25.5 22.5q55 12 111 12q106 0 203.5 -44 t174 -115.5t128 -163.5t65.5 -191v2q4 -16 4 -33.5v-35.5q0 -117 -54.5 -229.5t-137 -209t-185 -172t-196.5 -120.5q-61 -25 -125 -46.5t-138 -21.5q-70 0 -153 29q-35 12 -66.5 41.5t-57.5 66.5t-42 77t-18 73q-6 76 -7 147zM451 1702q10 23 24.5 43t30.5 41l15 18 q37 51 62.5 72.5t47.5 21.5q25 0 43.5 -21.5t40.5 -55.5q10 -16 24.5 -37t37.5 -45q14 -16 12 -31.5t-13.5 -25t-28.5 -9.5t-32 16l-28 43q-16 23 -35 50t-29 37q-27 -23 -53.5 -66t-42.5 -74q-2 -2 -2 -4q-2 -2 -2 -4q-10 -14 -23.5 -19.5t-25 0t-19.5 17.5t-4 33z M490 1687l14 -4l-14 11v-7z" />
<glyph unicode="&#xd5;" horiz-adv-x="1253" d="M16 479q0 147 28 282.5t83 282.5q25 61 59.5 135t75.5 130q59 82 128 160.5t159 132.5q14 8 54 20t75 12t48 -18.5t-26 -69.5q-18 -25 -39.5 -17.5t-29.5 25.5q-16 -4 -36 -17t-38 -26l-10 -8q-61 -49 -120.5 -111.5t-100.5 -127.5h2q-104 -170 -170 -370t-70 -398 q0 -43 6 -96.5t22.5 -102.5t45 -89t76.5 -61q61 -23 122 -22q88 0 180.5 36t179.5 95t162.5 138t130 166t81 176t16.5 169q-12 84 -60.5 165t-118 143.5t-150.5 101.5t-156 39q-53 0 -97 -21q-20 -4 -32.5 5.5t-15.5 23.5t4.5 28.5t25.5 22.5q55 12 111 12q106 0 203.5 -44 t174 -115.5t128 -163.5t65.5 -191v2q4 -16 4 -33.5v-35.5q0 -117 -54.5 -229.5t-137 -209t-185 -172t-196.5 -120.5q-61 -25 -125 -46.5t-138 -21.5q-70 0 -153 29q-35 12 -66.5 41.5t-57.5 66.5t-42 77t-18 73q-6 76 -7 147zM434 1702q18 49 35 71q29 41 52 57.5t40 16.5 q25 0 39 -20.5t26 -44.5l31 -52q16 16 24.5 35t16.5 35q8 20 17.5 39.5t21.5 36.5q12 12 27.5 12t27 -6t15.5 -19.5t-4 -29.5v4q0 -2 -1.5 -3t-1.5 -3v-2q-12 -12 -14 -19q-14 -20 -26 -51q-16 -31 -33 -59.5t-35 -46t-39.5 -17.5t-46.5 29q-14 20 -26.5 41.5t-24.5 44.5v4 q-16 -10 -28.5 -30.5t-16.5 -37.5v-2q-8 -16 -22.5 -23t-27 -5t-21.5 13t-5 32z" />
<glyph unicode="&#xd6;" horiz-adv-x="1253" d="M16 479q0 147 28 282.5t83 282.5q25 61 59.5 135t75.5 130q59 82 128 160.5t159 132.5q14 8 54 20t75 12t48 -18.5t-26 -69.5q-18 -25 -39.5 -17.5t-29.5 25.5q-16 -4 -36 -17t-38 -26l-10 -8q-61 -49 -120.5 -111.5t-100.5 -127.5h2q-104 -170 -170 -370t-70 -398 q0 -43 6 -96.5t22.5 -102.5t45 -89t76.5 -61q61 -23 122 -22q88 0 180.5 36t179.5 95t162.5 138t130 166t81 176t16.5 169q-12 84 -60.5 165t-118 143.5t-150.5 101.5t-156 39q-53 0 -97 -21q-20 -4 -32.5 5.5t-15.5 23.5t4.5 28.5t25.5 22.5q55 12 111 12q106 0 203.5 -44 t174 -115.5t128 -163.5t65.5 -191v2q4 -16 4 -33.5v-35.5q0 -117 -54.5 -229.5t-137 -209t-185 -172t-196.5 -120.5q-61 -25 -125 -46.5t-138 -21.5q-70 0 -153 29q-35 12 -66.5 41.5t-57.5 66.5t-42 77t-18 73q-6 76 -7 147zM477 1759q0 23 14 38t55 22h2q23 0 34 -17.5 t9 -40.5v-4q0 -2 2 -2q-6 -31 -23 -44t-34 -13q-23 0 -41 19.5t-18 41.5zM677.5 1755q6.5 25 32.5 51q23 23 47 21q0 -2 2 -2h7l4 -2l8 -2q27 -14 33 -33t-1.5 -36t-24.5 -31.5t-36 -20.5h2q-25 -12 -44 -7t-27.5 21t-2 41z" />
<glyph unicode="&#xd7;" horiz-adv-x="481" d="M29 885q8 12 22 20q6 6 19 6q16 0 29.5 -23.5t31.5 -60.5q10 -29 21.5 -56.5t33.5 -59.5q23 43 48.5 90t50.5 90q23 29 50 18.5t27 -51.5l-6 -6q-10 -12 -36.5 -61.5t-53.5 -100.5l-33 -59q25 -37 48.5 -73t45 -66.5t37 -53t23.5 -35.5q8 -33 -16.5 -48t-51.5 12 q-37 47 -65.5 93t-56.5 93q-18 -41 -37 -83t-33 -83q-10 -16 -24.5 -23.5t-27 -4.5t-21.5 15.5t-5 33.5q23 63 48.5 116.5t52.5 110.5l-70 121v-2l-17 28q-16 23 -27 48.5t-7 54.5z" />
<glyph unicode="&#xd8;" horiz-adv-x="1253" d="M16 479q0 147 28 282.5t83 282.5q25 61 59.5 135t75.5 130q59 82 128 160.5t159 132.5q14 8 54 20t75 12t48 -18.5t-26 -69.5q-18 -25 -39.5 -17.5t-29.5 25.5q-16 -4 -36 -17t-38 -26l-10 -8q-61 -49 -120.5 -111.5t-100.5 -127.5h2q-104 -170 -170 -370t-70 -398 q0 -43 6 -96.5t22.5 -102.5t45 -89t76.5 -61q61 -23 122 -22q88 0 180.5 36t179.5 95t162.5 138t130 166t81 176t16.5 169q-12 84 -60.5 165t-118 143.5t-150.5 101.5t-156 39q-53 0 -97 -21q-20 -4 -32.5 5.5t-15.5 23.5t4.5 28.5t25.5 22.5q55 12 111 12q106 0 203.5 -44 t174 -115.5t128 -163.5t65.5 -191v2q4 -16 4 -33.5v-35.5q0 -117 -54.5 -229.5t-137 -209t-185 -172t-196.5 -120.5q-61 -25 -125 -46.5t-138 -21.5q-70 0 -153 29q-35 12 -66.5 41.5t-57.5 66.5t-42 77t-18 73q-6 76 -7 147zM387 -37q80 401 169 800.5t228 792.5l2 5 q18 31 46 23.5t28 -44.5q-133 -385 -223 -786.5t-170 -806.5q-10 -18 -24.5 -25.5t-28 -4.5t-22.5 14.5t-5 31.5z" />
<glyph unicode="&#xd9;" d="M-6 1069q0 72 9 131.5t32 77.5q16 14 45 4l22 -14q27 -23 15.5 -50.5t-41.5 -23.5q-2 -10 -2 -21.5v-23.5q0 -29 2 -59.5t4 -53.5q2 -8 2 -19v-18q2 -16 3 -36.5t1 -42.5q2 -78 8 -168t21.5 -179.5t43 -169t74.5 -135.5q16 -14 34 -23t34 -9q27 0 54.5 15t52 39.5 t46 53.5t38.5 53q98 156 165 308l-6 71l-12 148q-6 59 -11 124.5t-10 125.5q-2 33 -2 63.5v62.5v11v83t9.5 116.5t32 100.5t67.5 36q49 -8 80 -47t48 -93.5t23.5 -116t6.5 -114.5q0 -29 -1 -53.5t-3 -40.5q-14 -123 -52.5 -242t-91.5 -235q0 -12 2 -24.5t2 -25.5 q10 -176 32 -354t95 -350q6 -18 -1 -32.5t-19 -19.5t-27.5 0t-25.5 23q-68 156 -92.5 307.5t-34.5 305.5q-23 -43 -46.5 -82t-48.5 -74l-14 -23q-14 -23 -38.5 -55.5t-56.5 -63t-72 -53t-85 -22.5q-31 0 -61.5 10t-65.5 39q-43 33 -71.5 101.5t-47 147.5t-30 158.5 t-17.5 137.5q0 4 -1 9t-1 13q-2 18 -4 50t-5 72t-5 84t-2 85zM260 1882l2 2q10 16 24.5 20.5t26.5 -1t19.5 -18.5t3.5 -30q18 -47 52 -91t73 -79q12 -16 11 -29.5t-10.5 -22.5t-23.5 -11t-31 6q-12 12 -41.5 46t-56.5 74t-44 78t-5 56zM690 1346q0 -45 2 -84t4 -68 q0 -6 1 -10t1 -8q6 -121 19 -240l4 -64q39 121 61.5 244t18.5 250q-4 6 -4 12v13v6q-4 20 -9.5 45.5t-13.5 48t-19.5 41t-29.5 29.5q-23 -18 -29 -81t-6 -134z" />
<glyph unicode="&#xda;" d="M-6 1069q0 72 9 131.5t32 77.5q16 14 45 4l22 -14q27 -23 15.5 -50.5t-41.5 -23.5q-2 -10 -2 -21.5v-23.5q0 -29 2 -59.5t4 -53.5q2 -8 2 -19v-18q2 -16 3 -36.5t1 -42.5q2 -78 8 -168t21.5 -179.5t43 -169t74.5 -135.5q16 -14 34 -23t34 -9q27 0 54.5 15t52 39.5 t46 53.5t38.5 53q98 156 165 308l-6 71l-12 148q-6 59 -11 124.5t-10 125.5q-2 33 -2 63.5v62.5v11v83t9.5 116.5t32 100.5t67.5 36q49 -8 80 -47t48 -93.5t23.5 -116t6.5 -114.5q0 -29 -1 -53.5t-3 -40.5q-14 -123 -52.5 -242t-91.5 -235q0 -12 2 -24.5t2 -25.5 q10 -176 32 -354t95 -350q6 -18 -1 -32.5t-19 -19.5t-27.5 0t-25.5 23q-68 156 -92.5 307.5t-34.5 305.5q-23 -43 -46.5 -82t-48.5 -74l-14 -23q-14 -23 -38.5 -55.5t-56.5 -63t-72 -53t-85 -22.5q-31 0 -61.5 10t-65.5 39q-43 33 -71.5 101.5t-47 147.5t-30 158.5 t-17.5 137.5q0 4 -1 9t-1 13q-2 18 -4 50t-5 72t-5 84t-2 85zM340 1686.5q-2 13.5 6 27.5l55 61q25 27 51.5 53.5t55.5 49.5q14 10 29.5 8t24.5 -11t10 -24.5t-11 -29.5q-27 -20 -54.5 -49t-49.5 -52l-52 -55l-4 -4q-14 -8 -27.5 -6t-22.5 10t-11 21.5zM690 1346 q0 -45 2 -84t4 -68q0 -6 1 -10t1 -8q6 -121 19 -240l4 -64q39 121 61.5 244t18.5 250q-4 6 -4 12v13v6q-4 20 -9.5 45.5t-13.5 48t-19.5 41t-29.5 29.5q-23 -18 -29 -81t-6 -134z" />
<glyph unicode="&#xdb;" d="M-6 1069q0 72 9 131.5t32 77.5q16 14 45 4l22 -14q27 -23 15.5 -50.5t-41.5 -23.5q-2 -10 -2 -21.5v-23.5q0 -29 2 -59.5t4 -53.5q2 -8 2 -19v-18q2 -16 3 -36.5t1 -42.5q2 -78 8 -168t21.5 -179.5t43 -169t74.5 -135.5q16 -14 34 -23t34 -9q27 0 54.5 15t52 39.5 t46 53.5t38.5 53q98 156 165 308l-6 71l-12 148q-6 59 -11 124.5t-10 125.5q-2 33 -2 63.5v62.5v11v83t9.5 116.5t32 100.5t67.5 36q49 -8 80 -47t48 -93.5t23.5 -116t6.5 -114.5q0 -29 -1 -53.5t-3 -40.5q-14 -123 -52.5 -242t-91.5 -235q0 -12 2 -24.5t2 -25.5 q10 -176 32 -354t95 -350q6 -18 -1 -32.5t-19 -19.5t-27.5 0t-25.5 23q-68 156 -92.5 307.5t-34.5 305.5q-23 -43 -46.5 -82t-48.5 -74l-14 -23q-14 -23 -38.5 -55.5t-56.5 -63t-72 -53t-85 -22.5q-31 0 -61.5 10t-65.5 39q-43 33 -71.5 101.5t-47 147.5t-30 158.5 t-17.5 137.5q0 4 -1 9t-1 13q-2 18 -4 50t-5 72t-5 84t-2 85zM223 1702q10 23 24.5 43t30.5 41l15 18q37 51 62.5 72.5t47.5 21.5q25 0 43.5 -21.5t40.5 -55.5q10 -16 24.5 -37t37.5 -45q14 -16 12 -31.5t-13.5 -25t-28.5 -9.5t-32 16l-28 43q-16 23 -35 50t-29 37 q-27 -23 -53.5 -66t-42.5 -74q-2 -2 -2 -4q-2 -2 -2 -4q-10 -14 -23.5 -19.5t-25 0t-19.5 17.5t-4 33zM262 1687l14 -4l-14 11v-7zM690 1346q0 -45 2 -84t4 -68q0 -6 1 -10t1 -8q6 -121 19 -240l4 -64q39 121 61.5 244t18.5 250q-4 6 -4 12v13v6q-4 20 -9.5 45.5t-13.5 48 t-19.5 41t-29.5 29.5q-23 -18 -29 -81t-6 -134z" />
<glyph unicode="&#xdc;" d="M-6 1069q0 72 9 131.5t32 77.5q16 14 45 4l22 -14q27 -23 15.5 -50.5t-41.5 -23.5q-2 -10 -2 -21.5v-23.5q0 -29 2 -59.5t4 -53.5q2 -8 2 -19v-18q2 -16 3 -36.5t1 -42.5q2 -78 8 -168t21.5 -179.5t43 -169t74.5 -135.5q16 -14 34 -23t34 -9q27 0 54.5 15t52 39.5 t46 53.5t38.5 53q98 156 165 308l-6 71l-12 148q-6 59 -11 124.5t-10 125.5q-2 33 -2 63.5v62.5v11v83t9.5 116.5t32 100.5t67.5 36q49 -8 80 -47t48 -93.5t23.5 -116t6.5 -114.5q0 -29 -1 -53.5t-3 -40.5q-14 -123 -52.5 -242t-91.5 -235q0 -12 2 -24.5t2 -25.5 q10 -176 32 -354t95 -350q6 -18 -1 -32.5t-19 -19.5t-27.5 0t-25.5 23q-68 156 -92.5 307.5t-34.5 305.5q-23 -43 -46.5 -82t-48.5 -74l-14 -23q-14 -23 -38.5 -55.5t-56.5 -63t-72 -53t-85 -22.5q-31 0 -61.5 10t-65.5 39q-43 33 -71.5 101.5t-47 147.5t-30 158.5 t-17.5 137.5q0 4 -1 9t-1 13q-2 18 -4 50t-5 72t-5 84t-2 85zM250 1759q0 23 14 38t55 22h2q23 0 34 -17.5t9 -40.5v-4q0 -2 2 -2q-6 -31 -23 -44t-34 -13q-23 0 -41 19.5t-18 41.5zM450.5 1755q6.5 25 32.5 51q23 23 47 21q0 -2 2 -2h7l4 -2l8 -2q27 -14 33 -33t-1.5 -36 t-24.5 -31.5t-36 -20.5h2q-25 -12 -44 -7t-27.5 21t-2 41zM690 1346q0 -45 2 -84t4 -68q0 -6 1 -10t1 -8q6 -121 19 -240l4 -64q39 121 61.5 244t18.5 250q-4 6 -4 12v13v6q-4 20 -9.5 45.5t-13.5 48t-19.5 41t-29.5 29.5q-23 -18 -29 -81t-6 -134z" />
<glyph unicode="&#xdd;" d="M2 -274q0 47 6 81v-2q8 53 46 105.5t94.5 100.5t124 91t136 78t131 60.5t109.5 40.5q23 8 50.5 14t52.5 10q-20 141 -50 284.5t-65 297.5q-29 -147 -74 -290.5t-106 -283.5q-12 -25 -31.5 -54.5t-45.5 -54t-56.5 -41t-65.5 -16.5q-51 0 -84 40t-53.5 96.5t-30.5 116 t-14 96.5v-2q-2 4 -2 11t-2 13q-2 8 -2 12q-12 84 -17.5 176.5t-5.5 190.5q0 78 2 157t6 156l6 205v2q2 20 14.5 30.5t27 9.5t25.5 -13t11 -33q0 -35 -1 -71.5t-3 -73.5q-2 -72 -3 -154t-1 -154q0 -104 4 -209.5t17 -211.5q2 -29 8 -67t13 -77t18.5 -74.5t27.5 -60.5v2 q4 -4 11.5 -8t17.5 -10h-2l18 -11l17 7q8 4 19 7t17 7q55 57 100.5 161.5t79 222.5t56 233.5t35.5 193.5q0 12 4 24q-10 51 -17.5 104.5t-7.5 96.5q0 37 7.5 64.5t25.5 40.5q25 16 41 8t25.5 -26.5t13.5 -41t4 -33.5v-38v-46.5t-1 -37t-3 -37t-6 -43.5l43 -193 q4 -20 15 -72.5t23.5 -111.5t22.5 -111.5t15 -72.5q25 -121 38 -236q4 -2 11.5 -4t13.5 -4q72 -25 96 -127q0 -39 -30.5 -44t-49.5 25q0 4 -1 7.5t-1 7.5q-2 2 -6 16.5t-6 24.5q-4 4 -5 6t-5 4l-4 2q12 -135 12 -266q0 -137 -16.5 -271.5t-55.5 -273.5q-12 -43 -39.5 -108.5 t-68.5 -127t-93.5 -106.5t-113.5 -45q-68 -8 -128 22.5t-112.5 88t-94.5 133t-71.5 157.5t-45 162t-15.5 146zM78 -301q0 -61 20.5 -137t55.5 -168q20 -49 47.5 -103.5t64.5 -99.5t85 -71.5t108 -22.5q53 2 93 38t70.5 86t51.5 106.5t33 99.5q39 135 55 265t16 259 q0 66 -5 134.5t-11 135.5q-49 -6 -108.5 -23.5t-113 -39t-95.5 -41t-58 -27.5q-82 -51 -140.5 -97t-96 -93t-55 -96.5t-17.5 -104.5zM279 1686.5q-2 13.5 6 27.5l55 61q25 27 51.5 53.5t55.5 49.5q14 10 29.5 8t24.5 -11t10 -24.5t-11 -29.5q-27 -20 -54.5 -49t-49.5 -52 l-52 -55l-4 -4q-14 -8 -27.5 -6t-22.5 10t-11 21.5z" />
<glyph unicode="&#xde;" horiz-adv-x="569" d="M41 18q4 418 12 832q4 207 8.5 412.5t4.5 414.5v2q2 20 15 29.5t27.5 8.5t25.5 -12t11 -32q-4 -420 -12 -829q-4 -209 -8 -416t-4 -414q-14 -35 -44 -32.5t-36 36.5zM70 590l6 -80q61 6 123.5 23.5t119 46t103.5 68.5t78 89q16 27 26.5 59.5t10.5 63.5q0 55 -29 92 q-76 106 -183.5 166t-240.5 84l-2 -82q51 -10 105.5 -26.5t102.5 -41t87 -59.5t61 -80q6 -14 11.5 -32.5t5.5 -34.5q0 -53 -40 -97t-98.5 -78t-125 -54.5t-121.5 -26.5z" />
<glyph unicode="&#xdf;" horiz-adv-x="741" d="M27 682v57.5t2 57.5q2 88 15 176t39 173t68 162.5t103 145.5q18 20 45 43t57.5 37t64.5 17t66 -13h-2q41 -23 70 -56.5t46 -76.5t24.5 -94t7.5 -105q0 -53 -6 -109.5t-16.5 -108.5t-24 -98t-27.5 -79q-23 -55 -49.5 -109.5t-52.5 -103.5q-8 -8 -13 -23q-4 -10 -8 -14 l37 -24h-2l16 -7q37 -20 67 -38.5t51.5 -42t35.5 -54t21 -73.5q6 -57 -32 -118t-96.5 -110t-124 -80.5t-110.5 -27.5q-16 4 -31 22l-10 23q0 -2 -4 2q-2 37 23.5 51t48.5 -14q2 -2 2 -4q20 4 44.5 17t43.5 26h2l12 8q27 18 53.5 39.5t48 46t35 53.5t15.5 61q2 29 -10.5 50.5 t-31 39t-42 30t-43.5 22.5q-41 20 -71 39.5t-30 54.5t23.5 78t46.5 82q12 18 21.5 31.5t11.5 19.5q41 94 71.5 199.5t30.5 210.5q0 111 -43 212q-35 84 -88 84q-27 0 -58.5 -21.5t-62.5 -51.5q-111 -125 -152.5 -283t-48.5 -323q-2 -29 -2 -55.5v-55.5q0 -217 31 -428v-2 q0 -35 -30.5 -40t-49.5 23q-14 111 -21 222.5t-7 226.5z" />
<glyph unicode="&#xe0;" horiz-adv-x="374" d="M-6 221q0 53 12 109.5t23 85.5q12 33 34.5 70.5t51 67.5t61.5 43t68 -1q12 123 65 109q12 -4 19.5 -8.5t9.5 -13.5t0 -25.5t-6 -45.5q-4 -27 -10.5 -68.5t-14.5 -107.5q-2 -29 -3 -55.5t-1 -54.5q0 -78 11.5 -144.5t39.5 -101.5h-2q4 -4 15 -4l24 -10l-2 2 q33 -18 22.5 -46t-44.5 -28l-25 10q-10 4 -21.5 8t-19.5 11q-29 23 -45 73.5t-25 114.5q-16 -33 -33.5 -60.5t-39 -46t-46 -26.5t-51.5 0q-37 10 -52 51t-15 92zM76 248q0 -41 5 -71t15 -30t28.5 26t45.5 91v-2l8 21q6 20 11.5 38.5t11.5 38.5q8 29 20 73t17 73l-25 26 q-37 -6 -62.5 -35.5t-42 -71.5t-24.5 -89t-8 -88zM88 973l2 2q10 16 24.5 20.5t26.5 -1t19.5 -18.5t3.5 -30q18 -47 52 -91t73 -79q12 -16 11 -29.5t-10.5 -22.5t-23.5 -11t-31 6q-12 12 -41.5 46t-56.5 74t-44 78t-5 56z" />
<glyph unicode="&#xe1;" horiz-adv-x="374" d="M-6 221q0 53 12 109.5t23 85.5q12 33 34.5 70.5t51 67.5t61.5 43t68 -1q12 123 65 109q12 -4 19.5 -8.5t9.5 -13.5t0 -25.5t-6 -45.5q-4 -27 -10.5 -68.5t-14.5 -107.5q-2 -29 -3 -55.5t-1 -54.5q0 -78 11.5 -144.5t39.5 -101.5h-2q4 -4 15 -4l24 -10l-2 2 q33 -18 22.5 -46t-44.5 -28l-25 10q-10 4 -21.5 8t-19.5 11q-29 23 -45 73.5t-25 114.5q-16 -33 -33.5 -60.5t-39 -46t-46 -26.5t-51.5 0q-37 10 -52 51t-15 92zM76 248q0 -41 5 -71t15 -30t28.5 26t45.5 91v-2l8 21q6 20 11.5 38.5t11.5 38.5q8 29 20 73t17 73l-25 26 q-37 -6 -62.5 -35.5t-42 -71.5t-24.5 -89t-8 -88zM107 736.5q-2 13.5 6 27.5l55 61q25 27 51.5 53.5t55.5 49.5q14 10 29.5 8t24.5 -11t10 -24.5t-11 -29.5q-27 -20 -54.5 -49t-49.5 -52l-52 -55l-4 -4q-14 -8 -27.5 -6t-22.5 10t-11 21.5z" />
<glyph unicode="&#xe2;" horiz-adv-x="374" d="M-6 221q0 53 12 109.5t23 85.5q12 33 34.5 70.5t51 67.5t61.5 43t68 -1q12 123 65 109q12 -4 19.5 -8.5t9.5 -13.5t0 -25.5t-6 -45.5q-4 -27 -10.5 -68.5t-14.5 -107.5q-2 -29 -3 -55.5t-1 -54.5q0 -78 11.5 -144.5t39.5 -101.5h-2q4 -4 15 -4l24 -10l-2 2 q33 -18 22.5 -46t-44.5 -28l-25 10q-10 4 -21.5 8t-19.5 11q-29 23 -45 73.5t-25 114.5q-16 -33 -33.5 -60.5t-39 -46t-46 -26.5t-51.5 0q-37 10 -52 51t-15 92zM33 754q10 23 24.5 43t30.5 41l15 18q37 51 62.5 72.5t47.5 21.5q25 0 43.5 -21.5t40.5 -55.5q10 -16 24.5 -37 t37.5 -45q14 -16 12 -31.5t-13.5 -25t-28.5 -9.5t-32 16l-28 43q-16 23 -35 50t-29 37q-27 -23 -53.5 -66t-42.5 -74q-2 -2 -2 -4q-2 -2 -2 -4q-10 -14 -23.5 -19.5t-25 0t-19.5 17.5t-4 33zM72 739l14 -4l-14 11v-7zM76 248q0 -41 5 -71t15 -30t28.5 26t45.5 91v-2l8 21 q6 20 11.5 38.5t11.5 38.5q8 29 20 73t17 73l-25 26q-37 -6 -62.5 -35.5t-42 -71.5t-24.5 -89t-8 -88z" />
<glyph unicode="&#xe3;" horiz-adv-x="374" d="M-6 221q0 53 12 109.5t23 85.5q12 33 34.5 70.5t51 67.5t61.5 43t68 -1q12 123 65 109q12 -4 19.5 -8.5t9.5 -13.5t0 -25.5t-6 -45.5q-4 -27 -10.5 -68.5t-14.5 -107.5q-2 -29 -3 -55.5t-1 -54.5q0 -78 11.5 -144.5t39.5 -101.5h-2q4 -4 15 -4l24 -10l-2 2 q33 -18 22.5 -46t-44.5 -28l-25 10q-10 4 -21.5 8t-19.5 11q-29 23 -45 73.5t-25 114.5q-16 -33 -33.5 -60.5t-39 -46t-46 -26.5t-51.5 0q-37 10 -52 51t-15 92zM-4 731q18 49 35 71q29 41 52 57.5t40 16.5q25 0 39 -20.5t26 -44.5l31 -52q16 16 24.5 35t16.5 35 q8 20 17.5 39.5t21.5 36.5q12 12 27.5 12t27 -6t15.5 -19.5t-4 -29.5v4q0 -2 -1.5 -3t-1.5 -3v-2q-12 -12 -14 -19q-14 -20 -26 -51q-16 -31 -33 -59.5t-35 -46t-39.5 -17.5t-46.5 29q-14 20 -26.5 41.5t-24.5 44.5v4q-16 -10 -28.5 -30.5t-16.5 -37.5v-2q-8 -16 -22.5 -23 t-27 -5t-21.5 13t-5 32zM76 248q0 -41 5 -71t15 -30t28.5 26t45.5 91v-2l8 21q6 20 11.5 38.5t11.5 38.5q8 29 20 73t17 73l-25 26q-37 -6 -62.5 -35.5t-42 -71.5t-24.5 -89t-8 -88z" />
<glyph unicode="&#xe4;" horiz-adv-x="374" d="M-6 221q0 53 12 109.5t23 85.5q12 33 34.5 70.5t51 67.5t61.5 43t68 -1q12 123 65 109q12 -4 19.5 -8.5t9.5 -13.5t0 -25.5t-6 -45.5q-4 -27 -10.5 -68.5t-14.5 -107.5q-2 -29 -3 -55.5t-1 -54.5q0 -78 11.5 -144.5t39.5 -101.5h-2q4 -4 15 -4l24 -10l-2 2 q33 -18 22.5 -46t-44.5 -28l-25 10q-10 4 -21.5 8t-19.5 11q-29 23 -45 73.5t-25 114.5q-16 -33 -33.5 -60.5t-39 -46t-46 -26.5t-51.5 0q-37 10 -52 51t-15 92zM39 809q0 23 14 38t55 22h2q23 0 34 -17.5t9 -40.5v-4q0 -2 2 -2q-6 -31 -23 -44t-34 -13q-23 0 -41 19.5 t-18 41.5zM76 248q0 -41 5 -71t15 -30t28.5 26t45.5 91v-2l8 21q6 20 11.5 38.5t11.5 38.5q8 29 20 73t17 73l-25 26q-37 -6 -62.5 -35.5t-42 -71.5t-24.5 -89t-8 -88zM239.5 805q6.5 25 32.5 51q23 23 47 21q0 -2 2 -2h7l4 -2l8 -2q27 -14 33 -33t-1.5 -36t-24.5 -31.5 t-36 -20.5h2q-25 -12 -44 -7t-27.5 21t-2 41z" />
<glyph unicode="&#xe5;" horiz-adv-x="374" d="M-6 221q0 53 12 109.5t23 85.5q12 33 34.5 70.5t51 67.5t61.5 43t68 -1q12 123 65 109q12 -4 19.5 -8.5t9.5 -13.5t0 -25.5t-6 -45.5q-4 -27 -10.5 -68.5t-14.5 -107.5q-2 -29 -3 -55.5t-1 -54.5q0 -78 11.5 -144.5t39.5 -101.5h-2q4 -4 15 -4l24 -10l-2 2 q33 -18 22.5 -46t-44.5 -28l-25 10q-10 4 -21.5 8t-19.5 11q-29 23 -45 73.5t-25 114.5q-16 -33 -33.5 -60.5t-39 -46t-46 -26.5t-51.5 0q-37 10 -52 51t-15 92zM76 248q0 -41 5 -71t15 -30t28.5 26t45.5 91v-2l8 21q6 20 11.5 38.5t11.5 38.5q8 29 20 73t17 73l-25 26 q-37 -6 -62.5 -35.5t-42 -71.5t-24.5 -89t-8 -88zM84 792q0 25 9 48.5t24.5 43t38 32.5t51.5 13q31 0 41 -23.5t-7 -39.5q25 -10 36.5 -27.5t11.5 -36.5q0 -20 -13.5 -41.5t-35 -37t-46 -22.5t-45.5 -1q-66 25 -65 92zM166 815q0 -14 7 -27.5t17 -13.5q6 0 15 20l-23 4 q-12 6 -16 17z" />
<glyph unicode="&#xe6;" horiz-adv-x="616" d="M-4 221q0 51 13.5 108.5t23.5 86.5q10 31 31.5 67.5t49 65.5t60.5 44t68 5v16q2 23 18 32t31 5q51 72 115 84q33 4 54 -10t33.5 -37.5t16.5 -54.5t4 -62t-5 -59.5t-9 -38.5v2q-37 -104 -80 -184t-107 -148q14 -35 35 -61.5t55 -20.5q51 8 89 46t67 73q20 35 53 17l6 -4 q16 -16 15 -35q-8 -25 -19 -29q-53 -59 -109 -105.5t-97 -41.5q-68 8 -115 53q-2 -18 -13.5 -28.5t-24.5 -10.5t-25.5 9t-14.5 28v143q-29 -53 -66.5 -81.5t-85.5 -16.5q-37 10 -52 51t-15 92zM78 248q0 -41 5 -71t15 -30t28.5 26t45.5 91l-2 -4q2 8 4 11t4 10l27 77l-2 -2 l28 156v4l-16 16q-37 -6 -62.5 -35.5t-42 -71.5t-24.5 -89t-8 -88zM289 273.5q0 -19.5 2 -35.5q47 63 82 131.5t53 128.5q6 23 10 41t4 36q0 23 -6 42.5t-24 33.5q-33 -20 -55.5 -59t-37 -86t-21.5 -98.5t-7 -96.5v-37.5z" />
<glyph unicode="&#xe7;" horiz-adv-x="675" d="M-6 221q0 106 31.5 213t76.5 193q10 18 29 40.5t43.5 43t51 34t50.5 13.5q55 0 86 -58v-2q14 -27 17.5 -48t5.5 -42q0 -8 1 -11t3 -11l8 -23q0 -8 -4 -16l2 4q-6 -35 -31.5 -41t-41.5 22q-10 23 -11.5 40.5t-1.5 33.5q0 14 -2 28.5t-10 24.5q-14 18 -32.5 15.5t-37 -17 t-34 -35t-21.5 -32.5q-47 -90 -73.5 -202t-20.5 -214q6 -72 35.5 -116t79.5 -44q47 0 106 41q41 29 81 70t73 78l10 12l104 127q18 25 40 50.5t42 51.5q16 12 30.5 11.5t24 -12t10.5 -27t-12 -29.5q-25 -27 -53 -65q-23 -31 -54.5 -70t-78.5 -92q-35 -41 -80 -87t-92 -79 q-76 -53 -154 -53q-59 0 -107 33.5t-71 105.5q-18 63 -18 141zM152 -53q0 6 1 16t1 14l79 7q-4 -37 -4 -67t9 -50q-4 4 10 5t31 5q35 6 73.5 4t53.5 -31q12 -33 -7.5 -79.5t-52.5 -91t-70.5 -75t-62.5 -30.5q-18 2 -28.5 13.5t-11.5 24.5t6 24.5t24 15.5q2 4 12 4 q6 6 14.5 11t16.5 14q29 27 60.5 61.5t31.5 64.5q-16 4 -34.5 1t-35.5 -7q-25 -6 -47 -7t-37.5 13.5t-24.5 47t-7 92.5z" />
<glyph unicode="&#xe8;" horiz-adv-x="423" d="M-10 326q0 72 14 141.5t40 126.5t62.5 95t83.5 46q33 4 54.5 -10t34 -37.5t16.5 -54.5t4 -62t-5 -59.5t-9 -38.5v2q-37 -104 -80 -184t-107 -148q14 -35 35 -61.5t55 -20.5q51 8 89 46t67 73q20 35 53 17l6 -4q16 -16 15 -35q-8 -25 -19 -29q-53 -59 -109.5 -105.5 t-96.5 -41.5q-59 6 -98.5 39.5t-63.5 87.5l-17 43q-25 74 -24 174zM70 1071l2 2q10 16 24.5 20.5t26.5 -1t19.5 -18.5t3.5 -30q18 -47 52 -91t73 -79q12 -16 11 -29.5t-10.5 -22.5t-23.5 -11t-31 6q-12 12 -41.5 46t-56.5 74t-44 78t-5 56zM74 286.5q0 -24.5 4 -46.5 q47 63 81 130.5t52 127.5q6 23 10 41t4 36q0 23 -8 42.5t-24 33.5q-35 -16 -57.5 -51t-37 -78t-19.5 -92t-5 -94v-49.5z" />
<glyph unicode="&#xe9;" horiz-adv-x="423" d="M-10 326q0 72 14 141.5t40 126.5t62.5 95t83.5 46q33 4 54.5 -10t34 -37.5t16.5 -54.5t4 -62t-5 -59.5t-9 -38.5v2q-37 -104 -80 -184t-107 -148q14 -35 35 -61.5t55 -20.5q51 8 89 46t67 73q20 35 53 17l6 -4q16 -16 15 -35q-8 -25 -19 -29q-53 -59 -109.5 -105.5 t-96.5 -41.5q-59 6 -98.5 39.5t-63.5 87.5l-17 43q-25 74 -24 174zM57 818.5q-2 13.5 6 27.5l55 61q25 27 51.5 53.5t55.5 49.5q14 10 29.5 8t24.5 -11t10 -24.5t-11 -29.5q-27 -20 -54.5 -49t-49.5 -52l-52 -55l-4 -4q-14 -8 -27.5 -6t-22.5 10t-11 21.5zM74 286.5 q0 -24.5 4 -46.5q47 63 81 130.5t52 127.5q6 23 10 41t4 36q0 23 -8 42.5t-24 33.5q-35 -16 -57.5 -51t-37 -78t-19.5 -92t-5 -94v-49.5z" />
<glyph unicode="&#xea;" horiz-adv-x="423" d="M-10 326q0 72 14 141.5t40 126.5t62.5 95t83.5 46q33 4 54.5 -10t34 -37.5t16.5 -54.5t4 -62t-5 -59.5t-9 -38.5v2q-37 -104 -80 -184t-107 -148q14 -35 35 -61.5t55 -20.5q51 8 89 46t67 73q20 35 53 17l6 -4q16 -16 15 -35q-8 -25 -19 -29q-53 -59 -109.5 -105.5 t-96.5 -41.5q-59 6 -98.5 39.5t-63.5 87.5l-17 43q-25 74 -24 174zM-8 850q10 23 24.5 43t30.5 41l15 18q37 51 62.5 72.5t47.5 21.5q25 0 43.5 -21.5t40.5 -55.5q10 -16 24.5 -37t37.5 -45q14 -16 12 -31.5t-13.5 -25t-28.5 -9.5t-32 16l-28 43q-16 23 -35 50t-29 37 q-27 -23 -53.5 -66t-42.5 -74q-2 -2 -2 -4q-2 -2 -2 -4q-10 -14 -23.5 -19.5t-25 0t-19.5 17.5t-4 33zM31 835l14 -4l-14 11v-7zM74 286.5q0 -24.5 4 -46.5q47 63 81 130.5t52 127.5q6 23 10 41t4 36q0 23 -8 42.5t-24 33.5q-35 -16 -57.5 -51t-37 -78t-19.5 -92t-5 -94 v-49.5z" />
<glyph unicode="&#xeb;" horiz-adv-x="423" d="M-10 326q0 72 14 141.5t40 126.5t62.5 95t83.5 46q33 4 54.5 -10t34 -37.5t16.5 -54.5t4 -62t-5 -59.5t-9 -38.5v2q-37 -104 -80 -184t-107 -148q14 -35 35 -61.5t55 -20.5q51 8 89 46t67 73q20 35 53 17l6 -4q16 -16 15 -35q-8 -25 -19 -29q-53 -59 -109.5 -105.5 t-96.5 -41.5q-59 6 -98.5 39.5t-63.5 87.5l-17 43q-25 74 -24 174zM6 926q0 23 14 38t55 22h2q23 0 34 -17.5t9 -40.5v-4q0 -2 2 -2q-6 -31 -23 -44t-34 -13q-23 0 -41 19.5t-18 41.5zM74 286.5q0 -24.5 4 -46.5q47 63 81 130.5t52 127.5q6 23 10 41t4 36q0 23 -8 42.5 t-24 33.5q-35 -16 -57.5 -51t-37 -78t-19.5 -92t-5 -94v-49.5zM206.5 922q6.5 25 32.5 51q23 23 47 21q0 -2 2 -2h7l4 -2l8 -2q27 -14 33 -33t-1.5 -36t-24.5 -31.5t-36 -20.5h2q-25 -12 -44 -7t-27.5 21t-2 41z" />
<glyph unicode="&#xec;" horiz-adv-x="325" d="M-16 1034l2 2q10 16 24.5 20.5t26.5 -1t19.5 -18.5t3.5 -30q18 -47 52 -91t73 -79q12 -16 11 -29.5t-10.5 -22.5t-23.5 -11t-31 6q-12 12 -41.5 46t-56.5 74t-44 78t-5 56zM-8 -2l57 620q12 23 40 24t38 -34v-90q0 -29 -1 -55.5t-1 -54.5q0 -63 4 -127t14 -127 q0 -8 2 -17q2 -16 6.5 -38.5t10.5 -43t14 -36t21 -15.5q31 -2 61.5 27.5t54.5 56.5l19 25q16 12 31.5 11t24.5 -12.5t9 -26.5t-12 -30l-18 -22q-10 -10 -24.5 -25.5t-25.5 -25.5q-31 -29 -62.5 -43.5t-53.5 -14.5q-43 0 -74 35t-47 98v2q-6 18 -6 33q-2 -23 -2 -44v-44 q-6 -37 -35 -36t-45 30z" />
<glyph unicode="&#xed;" horiz-adv-x="325" d="M-8 -2l57 620q12 23 40 24t38 -34v-90q0 -29 -1 -55.5t-1 -54.5q0 -63 4 -127t14 -127q0 -8 2 -17q2 -16 6.5 -38.5t10.5 -43t14 -36t21 -15.5q31 -2 61.5 27.5t54.5 56.5l19 25q16 12 31.5 11t24.5 -12.5t9 -26.5t-12 -30l-18 -22q-10 -10 -24.5 -25.5t-25.5 -25.5 q-31 -29 -62.5 -43.5t-53.5 -14.5q-43 0 -74 35t-47 98v2q-6 18 -6 33q-2 -23 -2 -44v-44q-6 -37 -35 -36t-45 30zM41 838.5q-2 13.5 6 27.5l55 61q25 27 51.5 53.5t55.5 49.5q14 10 29.5 8t24.5 -11t10 -24.5t-11 -29.5q-27 -20 -54.5 -49t-49.5 -52l-52 -55l-4 -4 q-14 -8 -27.5 -6t-22.5 10t-11 21.5z" />
<glyph unicode="&#xee;" horiz-adv-x="325" d="M-72 854q10 23 24.5 43t30.5 41l15 18q37 51 62.5 72.5t47.5 21.5q25 0 43.5 -21.5t40.5 -55.5q10 -16 24.5 -37t37.5 -45q14 -16 12 -31.5t-13.5 -25t-28.5 -9.5t-32 16l-28 43q-16 23 -35 50t-29 37q-27 -23 -53.5 -66t-42.5 -74q-2 -2 -2 -4q-2 -2 -2 -4 q-10 -14 -23.5 -19.5t-25 0t-19.5 17.5t-4 33zM-33 839l14 -4l-14 11v-7zM-8 -2l57 620q12 23 40 24t38 -34v-90q0 -29 -1 -55.5t-1 -54.5q0 -63 4 -127t14 -127q0 -8 2 -17q2 -16 6.5 -38.5t10.5 -43t14 -36t21 -15.5q31 -2 61.5 27.5t54.5 56.5l19 25q16 12 31.5 11 t24.5 -12.5t9 -26.5t-12 -30l-18 -22q-10 -10 -24.5 -25.5t-25.5 -25.5q-31 -29 -62.5 -43.5t-53.5 -14.5q-43 0 -74 35t-47 98v2q-6 18 -6 33q-2 -23 -2 -44v-44q-6 -37 -35 -36t-45 30z" />
<glyph unicode="&#xef;" horiz-adv-x="325" d="M-45 911q0 23 14 38t55 22h2q23 0 34 -17.5t9 -40.5v-4q0 -2 2 -2q-6 -31 -23 -44t-34 -13q-23 0 -41 19.5t-18 41.5zM-8 -2l57 620q12 23 40 24t38 -34v-90q0 -29 -1 -55.5t-1 -54.5q0 -63 4 -127t14 -127q0 -8 2 -17q2 -16 6.5 -38.5t10.5 -43t14 -36t21 -15.5 q31 -2 61.5 27.5t54.5 56.5l19 25q16 12 31.5 11t24.5 -12.5t9 -26.5t-12 -30l-18 -22q-10 -10 -24.5 -25.5t-25.5 -25.5q-31 -29 -62.5 -43.5t-53.5 -14.5q-43 0 -74 35t-47 98v2q-6 18 -6 33q-2 -23 -2 -44v-44q-6 -37 -35 -36t-45 30zM155.5 907q6.5 25 32.5 51 q23 23 47 21q0 -2 2 -2h7l4 -2l8 -2q27 -14 33 -33t-1.5 -36t-24.5 -31.5t-36 -20.5h2q-25 -12 -44 -7t-27.5 21t-2 41z" />
<glyph unicode="&#xf0;" horiz-adv-x="499" d="M-8 122.5q0 16.5 2 33.5q0 6 1 13t1 11q0 43 33.5 92.5t81 95.5t99.5 81.5t91 50.5q25 0 39 -15q-10 61 -24.5 126t-30.5 130q-33 -31 -69 -54t-83 -34h-2q-20 -4 -31.5 5.5t-14.5 22.5t4 27.5t26 24.5q43 8 76.5 33t66.5 55q-29 86 -68.5 165t-87.5 144q-33 45 -41 53.5 t-12 10.5q-6 2 -15 6t-26 17q-20 23 -11 46t40 23q12 0 23.5 -7t15.5 -15l20 -17q16 -10 33.5 -25.5t40.5 -50.5h-2q41 -61 79 -137t68 -160q23 16 45.5 35t51.5 33q39 0 44 -28.5t-28 -51.5q-20 -10 -41.5 -27.5t-42.5 -35.5q39 -119 63.5 -236t24.5 -219q0 -59 -1 -115.5 t-14.5 -106.5t-43 -93t-84.5 -78l2 2q-16 -12 -34.5 -12t-35.5 4q-20 4 -26 4q-27 0 -58 11t-59.5 31.5t-51 45t-30.5 53.5h2q-6 16 -6 32.5zM76 170q-10 -37 5 -66.5t45 -50t65.5 -28t68.5 1.5q35 8 54.5 47t28.5 89t10 100t-1 85l-8 98q-4 -12 -22 -22q-39 -14 -78 -40 t-73 -59.5t-59.5 -73.5t-35.5 -81z" />
<glyph unicode="&#xf1;" horiz-adv-x="505" d="M47 326q0 55 1 108t3 94q0 14 1 36t1 28q0 20 11.5 31.5t24.5 12.5t25.5 -8.5t16.5 -29.5v-262q0 -27 -1 -33t-1 -8v-8t2 -33q25 70 57.5 137.5t75.5 126.5q16 18 37 19q4 0 9 -1t9 -1l23 -3q4 -4 11 -12t9 -8q20 -45 29.5 -87t18.5 -85q10 -63 26.5 -122.5t61.5 -98.5 q12 -14 10 -28.5t-11.5 -24t-24.5 -12.5t-30 7q-27 23 -44 52.5t-28.5 63.5t-18.5 69l-13 65q-6 35 -13.5 69t-17.5 64q-45 -70 -71.5 -141.5t-49.5 -148.5l-39 -121q-16 -35 -59 -8q-12 10 -20.5 39.5t-12.5 70.5t-6 90t-2 101zM72 735q18 49 35 71q29 41 52 57.5t40 16.5 q25 0 39 -20.5t26 -44.5l31 -52q16 16 24.5 35t16.5 35q8 20 17.5 39.5t21.5 36.5q12 12 27.5 12t27 -6t15.5 -19.5t-4 -29.5v4q0 -2 -1.5 -3t-1.5 -3v-2q-12 -12 -14 -19q-14 -20 -26 -51q-16 -31 -33 -59.5t-35 -46t-39.5 -17.5t-46.5 29q-14 20 -26.5 41.5t-24.5 44.5v4 q-16 -10 -28.5 -30.5t-16.5 -37.5v-2q-8 -16 -22.5 -23t-27 -5t-21.5 13t-5 32zM362 512v2v-2z" />
<glyph unicode="&#xf2;" horiz-adv-x="520" d="M-4 240q0 51 6 113.5t20.5 117.5t39 97t61.5 57l61 22q20 6 33.5 -1t19 -20.5t0 -28.5t-23.5 -26l-25 -4h7q-25 -8 -33 -12q-25 -18 -42.5 -51t-28.5 -72t-15 -82t-4 -84q0 -29 1 -55.5t5 -46.5t11 -42t17.5 -40.5t27 -30.5t40.5 -14q41 -4 77 22.5t61.5 68.5t40 93 t14.5 98q0 53 -21 89q-10 20 -41 27t-63 16l-47 12q-25 16 -25 41.5t29 34.5q92 10 176 25.5t170 33.5q18 0 30.5 -9t15.5 -21.5t-2 -26t-22 -21.5l-69 -14q-20 -4 -32.5 -7t-24 -6.5t-26 -5.5t-34.5 -4q20 -14 35 -37q0 -2 6 -13t10 -21l12 -31v2q8 -16 11.5 -34.5 t3.5 -35.5q0 -55 -25.5 -117.5t-66.5 -115.5t-93.5 -88t-103.5 -35q-39 0 -67.5 17.5t-49 45t-33 60.5t-18.5 61q-6 33 -6 99zM115 1018l2 2q10 16 24.5 20.5t26.5 -1t19.5 -18.5t3.5 -30q18 -47 52 -91t73 -79q12 -16 11 -29.5t-10.5 -22.5t-23.5 -11t-31 6 q-12 12 -41.5 46t-56.5 74t-44 78t-5 56z" />
<glyph unicode="&#xf3;" horiz-adv-x="520" d="M-4 240q0 51 6 113.5t20.5 117.5t39 97t61.5 57l61 22q20 6 33.5 -1t19 -20.5t0 -28.5t-23.5 -26l-25 -4h7q-25 -8 -33 -12q-25 -18 -42.5 -51t-28.5 -72t-15 -82t-4 -84q0 -29 1 -55.5t5 -46.5t11 -42t17.5 -40.5t27 -30.5t40.5 -14q41 -4 77 22.5t61.5 68.5t40 93 t14.5 98q0 53 -21 89q-10 20 -41 27t-63 16l-47 12q-25 16 -25 41.5t29 34.5q92 10 176 25.5t170 33.5q18 0 30.5 -9t15.5 -21.5t-2 -26t-22 -21.5l-69 -14q-20 -4 -32.5 -7t-24 -6.5t-26 -5.5t-34.5 -4q20 -14 35 -37q0 -2 6 -13t10 -21l12 -31v2q8 -16 11.5 -34.5 t3.5 -35.5q0 -55 -25.5 -117.5t-66.5 -115.5t-93.5 -88t-103.5 -35q-39 0 -67.5 17.5t-49 45t-33 60.5t-18.5 61q-6 33 -6 99zM139 758.5q-2 13.5 6 27.5l55 61q25 27 51.5 53.5t55.5 49.5q14 10 29.5 8t24.5 -11t10 -24.5t-11 -29.5q-27 -20 -54.5 -49t-49.5 -52l-52 -55 l-4 -4q-14 -8 -27.5 -6t-22.5 10t-11 21.5z" />
<glyph unicode="&#xf4;" horiz-adv-x="520" d="M-4 240q0 51 6 113.5t20.5 117.5t39 97t61.5 57l61 22q20 6 33.5 -1t19 -20.5t0 -28.5t-23.5 -26l-25 -4h7q-25 -8 -33 -12q-25 -18 -42.5 -51t-28.5 -72t-15 -82t-4 -84q0 -29 1 -55.5t5 -46.5t11 -42t17.5 -40.5t27 -30.5t40.5 -14q41 -4 77 22.5t61.5 68.5t40 93 t14.5 98q0 53 -21 89q-10 20 -41 27t-63 16l-47 12q-25 16 -25 41.5t29 34.5q92 10 176 25.5t170 33.5q18 0 30.5 -9t15.5 -21.5t-2 -26t-22 -21.5l-69 -14q-20 -4 -32.5 -7t-24 -6.5t-26 -5.5t-34.5 -4q20 -14 35 -37q0 -2 6 -13t10 -21l12 -31v2q8 -16 11.5 -34.5 t3.5 -35.5q0 -55 -25.5 -117.5t-66.5 -115.5t-93.5 -88t-103.5 -35q-39 0 -67.5 17.5t-49 45t-33 60.5t-18.5 61q-6 33 -6 99zM70 754q10 23 24.5 43t30.5 41l15 18q37 51 62.5 72.5t47.5 21.5q25 0 43.5 -21.5t40.5 -55.5q10 -16 24.5 -37t37.5 -45q14 -16 12 -31.5 t-13.5 -25t-28.5 -9.5t-32 16l-28 43q-16 23 -35 50t-29 37q-27 -23 -53.5 -66t-42.5 -74q-2 -2 -2 -4q-2 -2 -2 -4q-10 -14 -23.5 -19.5t-25 0t-19.5 17.5t-4 33zM109 739l14 -4l-14 11v-7z" />
<glyph unicode="&#xf5;" horiz-adv-x="520" d="M-4 240q0 51 6 113.5t20.5 117.5t39 97t61.5 57l61 22q20 6 33.5 -1t19 -20.5t0 -28.5t-23.5 -26l-25 -4h7q-25 -8 -33 -12q-25 -18 -42.5 -51t-28.5 -72t-15 -82t-4 -84q0 -29 1 -55.5t5 -46.5t11 -42t17.5 -40.5t27 -30.5t40.5 -14q41 -4 77 22.5t61.5 68.5t40 93 t14.5 98q0 53 -21 89q-10 20 -41 27t-63 16l-47 12q-25 16 -25 41.5t29 34.5q92 10 176 25.5t170 33.5q18 0 30.5 -9t15.5 -21.5t-2 -26t-22 -21.5l-69 -14q-20 -4 -32.5 -7t-24 -6.5t-26 -5.5t-34.5 -4q20 -14 35 -37q0 -2 6 -13t10 -21l12 -31v2q8 -16 11.5 -34.5 t3.5 -35.5q0 -55 -25.5 -117.5t-66.5 -115.5t-93.5 -88t-103.5 -35q-39 0 -67.5 17.5t-49 45t-33 60.5t-18.5 61q-6 33 -6 99zM55 778q18 49 35 71q29 41 52 57.5t40 16.5q25 0 39 -20.5t26 -44.5l31 -52q16 16 24.5 35t16.5 35q8 20 17.5 39.5t21.5 36.5q12 12 27.5 12 t27 -6t15.5 -19.5t-4 -29.5v4q0 -2 -1.5 -3t-1.5 -3v-2q-12 -12 -14 -19q-14 -20 -26 -51q-16 -31 -33 -59.5t-35 -46t-39.5 -17.5t-46.5 29q-14 20 -26.5 41.5t-24.5 44.5v4q-16 -10 -28.5 -30.5t-16.5 -37.5v-2q-8 -16 -22.5 -23t-27 -5t-21.5 13t-5 32z" />
<glyph unicode="&#xf6;" horiz-adv-x="520" d="M-4 240q0 51 6 113.5t20.5 117.5t39 97t61.5 57l61 22q20 6 33.5 -1t19 -20.5t0 -28.5t-23.5 -26l-25 -4h7q-25 -8 -33 -12q-25 -18 -42.5 -51t-28.5 -72t-15 -82t-4 -84q0 -29 1 -55.5t5 -46.5t11 -42t17.5 -40.5t27 -30.5t40.5 -14q41 -4 77 22.5t61.5 68.5t40 93 t14.5 98q0 53 -21 89q-10 20 -41 27t-63 16l-47 12q-25 16 -25 41.5t29 34.5q92 10 176 25.5t170 33.5q18 0 30.5 -9t15.5 -21.5t-2 -26t-22 -21.5l-69 -14q-20 -4 -32.5 -7t-24 -6.5t-26 -5.5t-34.5 -4q20 -14 35 -37q0 -2 6 -13t10 -21l12 -31v2q8 -16 11.5 -34.5 t3.5 -35.5q0 -55 -25.5 -117.5t-66.5 -115.5t-93.5 -88t-103.5 -35q-39 0 -67.5 17.5t-49 45t-33 60.5t-18.5 61q-6 33 -6 99zM92 835q0 23 14 38t55 22h2q23 0 34 -17.5t9 -40.5v-4q0 -2 2 -2q-6 -31 -23 -44t-34 -13q-23 0 -41 19.5t-18 41.5zM292.5 831q6.5 25 32.5 51 q23 23 47 21q0 -2 2 -2h7l4 -2l8 -2q27 -14 33 -33t-1.5 -36t-24.5 -31.5t-36 -20.5h2q-25 -12 -44 -7t-27.5 21t-2 41z" />
<glyph unicode="&#xf7;" horiz-adv-x="552" d="M-3 620.5q-3 -12.5 2 -25.5t19 -22l7 -2q55 -14 109 -19t108 -5q63 0 127.5 7t130.5 17q20 4 28.5 16.5t6 27t-14.5 24.5t-33 10q-66 -10 -127 -16t-120 -6q-49 0 -97.5 6t-101.5 16q-18 0 -29.5 -8t-14.5 -20.5zM204 471q-7 -29 11 -51q12 -12 21.5 -14.5t23.5 -2.5 q10 2 15.5 8.5t9.5 10.5l6 8q16 16 8 36.5t-27 29.5l-9 6t-13 2h-2q-37 -4 -44 -33zM211 786q8 51 30.5 52.5t39 -21t15.5 -52.5t-40 -40q-4 0 -10 9t-13.5 21.5l-13.5 22.5t-8 8z" />
<glyph unicode="&#xf8;" horiz-adv-x="520" d="M2 260q0 51 6 113.5t20.5 118t39 97.5t61.5 56l61 23q20 6 34 -1.5t19 -20.5t0 -28.5t-24 -25.5l-24 -4h6q-25 -8 -33 -13q-25 -18 -42 -50.5t-28.5 -71.5t-15.5 -82t-4 -84q0 -29 1 -55.5t5 -47.5q4 -20 11 -41.5t17.5 -40t27 -31t40.5 -14.5q41 -4 77 22.5t61.5 68.5 t40 93.5t14.5 98.5q0 53 -21 88q-10 20 -40.5 27.5t-63.5 15.5l-47 12q-25 16 -25 42t29 34q92 10 176 25.5t170 33.5q18 0 30.5 -9t15.5 -21.5t-2 -25.5t-22 -21l-69 -15q-20 -4 -32.5 -7t-24 -6t-25.5 -5t-35 -4q20 -14 35 -37q0 -2 6 -13.5t10 -21.5l13 -31v2 q8 -16 11 -34.5t3 -34.5q0 -55 -25.5 -117.5t-66.5 -116t-93.5 -88.5t-103.5 -35q-39 0 -67.5 17.5t-49 45.5t-33 60.5t-18.5 61.5q-6 33 -6 98zM88 -154q8 45 21.5 117t30 157t37 175t44 171t49 144.5t52.5 96.5l4 4q14 12 29.5 11t24.5 -10.5t10 -24.5t-11 -32 q-23 -33 -44.5 -95t-43 -140t-41 -165t-34.5 -167t-28.5 -148.5t-19.5 -109.5q-10 -18 -24.5 -25.5t-28 -4.5t-22.5 14.5t-5 31.5z" />
<glyph unicode="&#xf9;" horiz-adv-x="479" d="M-6 242q0 63 5 125.5t11 117.5q2 25 5 50.5t5 52.5v2q4 16 16.5 25.5t26 9.5t23.5 -10.5t14 -28.5l-6 -80q-6 -57 -12 -131t-6 -142q0 -53 3 -91t17 -58q35 14 63.5 57t52.5 100.5t42 122t33 119.5l28 103q18 23 45 21.5t33 -34.5q0 -23 -2 -45t-6 -53q-4 -43 -9 -96 t-5 -100q0 -39 4 -75t14 -60.5t27.5 -36t46.5 -1.5q18 6 33.5 0t21.5 -18t2 -26.5t-20 -24.5q-59 -18 -98.5 -10t-62 37.5t-32.5 74.5t-12 99q-33 -84 -80 -151t-117 -87q-10 0 -18 1t-21 7q-41 37 -53 99.5t-12 134.5zM119 920l2 2q10 16 24.5 20.5t26.5 -1t19.5 -18.5 t3.5 -30q18 -47 52 -91t73 -79q12 -16 11 -29.5t-10.5 -22.5t-23.5 -11t-31 6q-12 12 -41.5 46t-56.5 74t-44 78t-5 56z" />
<glyph unicode="&#xfa;" horiz-adv-x="479" d="M-6 242q0 63 5 125.5t11 117.5q2 25 5 50.5t5 52.5v2q4 16 16.5 25.5t26 9.5t23.5 -10.5t14 -28.5l-6 -80q-6 -57 -12 -131t-6 -142q0 -53 3 -91t17 -58q35 14 63.5 57t52.5 100.5t42 122t33 119.5l28 103q18 23 45 21.5t33 -34.5q0 -23 -2 -45t-6 -53q-4 -43 -9 -96 t-5 -100q0 -39 4 -75t14 -60.5t27.5 -36t46.5 -1.5q18 6 33.5 0t21.5 -18t2 -26.5t-20 -24.5q-59 -18 -98.5 -10t-62 37.5t-32.5 74.5t-12 99q-33 -84 -80 -151t-117 -87q-10 0 -18 1t-21 7q-41 37 -53 99.5t-12 134.5zM100 713.5q-2 13.5 6 27.5l55 61q25 27 51.5 53.5 t55.5 49.5q14 10 29.5 8t24.5 -11t10 -24.5t-11 -29.5q-27 -20 -54.5 -49t-49.5 -52l-52 -55l-4 -4q-14 -8 -27.5 -6t-22.5 10t-11 21.5z" />
<glyph unicode="&#xfb;" horiz-adv-x="479" d="M-6 242q0 63 5 125.5t11 117.5q2 25 5 50.5t5 52.5v2q4 16 16.5 25.5t26 9.5t23.5 -10.5t14 -28.5l-6 -80q-6 -57 -12 -131t-6 -142q0 -53 3 -91t17 -58q35 14 63.5 57t52.5 100.5t42 122t33 119.5l28 103q18 23 45 21.5t33 -34.5q0 -23 -2 -45t-6 -53q-4 -43 -9 -96 t-5 -100q0 -39 4 -75t14 -60.5t27.5 -36t46.5 -1.5q18 6 33.5 0t21.5 -18t2 -26.5t-20 -24.5q-59 -18 -98.5 -10t-62 37.5t-32.5 74.5t-12 99q-33 -84 -80 -151t-117 -87q-10 0 -18 1t-21 7q-41 37 -53 99.5t-12 134.5zM59 715q10 23 24.5 43t30.5 41l15 18q37 51 62.5 72.5 t47.5 21.5q25 0 43.5 -21.5t40.5 -55.5q10 -16 24.5 -37t37.5 -45q14 -16 12 -31.5t-13.5 -25t-28.5 -9.5t-32 16l-28 43q-16 23 -35 50t-29 37q-27 -23 -53.5 -66t-42.5 -74q-2 -2 -2 -4q-2 -2 -2 -4q-10 -14 -23.5 -19.5t-25 0t-19.5 17.5t-4 33zM98 700l14 -4l-14 11v-7z " />
<glyph unicode="&#xfc;" horiz-adv-x="479" d="M-6 242q0 63 5 125.5t11 117.5q2 25 5 50.5t5 52.5v2q4 16 16.5 25.5t26 9.5t23.5 -10.5t14 -28.5l-6 -80q-6 -57 -12 -131t-6 -142q0 -53 3 -91t17 -58q35 14 63.5 57t52.5 100.5t42 122t33 119.5l28 103q18 23 45 21.5t33 -34.5q0 -23 -2 -45t-6 -53q-4 -43 -9 -96 t-5 -100q0 -39 4 -75t14 -60.5t27.5 -36t46.5 -1.5q18 6 33.5 0t21.5 -18t2 -26.5t-20 -24.5q-59 -18 -98.5 -10t-62 37.5t-32.5 74.5t-12 99q-33 -84 -80 -151t-117 -87q-10 0 -18 1t-21 7q-41 37 -53 99.5t-12 134.5zM66 782q0 23 14 38t55 22h2q23 0 34 -17.5t9 -40.5v-4 q0 -2 2 -2q-6 -31 -23 -44t-34 -13q-23 0 -41 19.5t-18 41.5zM266.5 778q6.5 25 32.5 51q23 23 47 21q0 -2 2 -2h7l4 -2l8 -2q27 -14 33 -33t-1.5 -36t-24.5 -31.5t-36 -20.5h2q-25 -12 -44 -7t-27.5 21t-2 41z" />
<glyph unicode="&#xfd;" horiz-adv-x="641" d="M-6 453v2q0 20 11 31.5t24.5 12.5t26 -8.5t16.5 -29.5q4 -25 13 -53.5t19 -53.5q29 -70 48 -69q12 0 25 47t28 102q14 59 27.5 107.5t33.5 58.5q25 8 34 6t19 -12q53 -49 89 -126t65 -161q45 31 92 52.5t119 41.5q29 0 39 -14t6 -33q0 -4 2 -11t2 -9q-20 -8 -24 -8 q-10 -6 -25.5 -14.5t-32.5 -14.5q-16 0 -24 4q-35 -14 -65 -29.5t-60 -38.5q6 -16 11 -32.5t9 -32.5h-2q29 -78 49.5 -158t24.5 -157q4 -88 -17.5 -155t-66.5 -144q-20 -31 -52 -55.5t-61 -41.5q-78 -45 -151 -45q-57 0 -104.5 28t-88.5 91q-23 37 -22 92q0 57 18.5 117.5 t34.5 97.5q14 33 40 77t54.5 87t60 82t58.5 66q31 29 56.5 55t52.5 49l-19 53q-16 51 -36.5 102.5t-49.5 92.5q0 -4 -2 -11.5t-2 -11.5q-10 -45 -23.5 -102.5t-35 -103.5t-50 -67.5t-69.5 7.5q-35 23 -54.5 51.5t-35.5 63.5q-12 35 -21.5 63.5t-13.5 61.5zM45 760.5 q-2 13.5 6 27.5l55 61q25 27 51.5 53.5t55.5 49.5q14 10 29.5 8t24.5 -11t10 -24.5t-11 -29.5q-27 -20 -54.5 -49t-49.5 -52l-52 -55l-4 -4q-14 -8 -27.5 -6t-22.5 10t-11 21.5zM113 -330q-10 -98 21.5 -140t84.5 -42q37 0 79 15.5t80 41t68.5 58t45.5 69.5q16 41 21 86 t3 88v2q-4 92 -28.5 170t-53.5 160q-18 -16 -39.5 -37.5t-42.5 -46.5q-53 -55 -107.5 -135t-88.5 -152q-14 -29 -26.5 -65.5t-16.5 -71.5z" />
<glyph unicode="&#xfe;" horiz-adv-x="567" d="M35 -662q8 109 13 276t9 364.5t7.5 414.5t5.5 428t3 402.5t1 339.5v166q2 18 13 27t24.5 9t26 -8t16.5 -24v-353q0 -158 -1 -343t-2 -378.5t-4.5 -388t-7.5 -369.5t-11 -321.5t-15 -247.5q-14 -33 -43 -30.5t-35 36.5zM70 61q90 14 171 70.5t141 136.5t96 176.5t36 190.5 q0 76 -25.5 145.5t-78.5 122.5q-45 45 -81 71.5t-72 41t-77 21.5t-94 16l27 -80q35 -6 65.5 -13.5t59 -20.5t56.5 -34.5t56 -56.5q45 -51 63.5 -106.5t18.5 -112.5q0 -76 -28.5 -151t-76.5 -140.5t-109.5 -116.5t-129.5 -78z" />
<glyph unicode="&#xff;" horiz-adv-x="641" d="M-33 735q0 23 14 38t55 22h2q23 0 34 -17.5t9 -40.5v-4q0 -2 2 -2q-6 -31 -23 -44t-34 -13q-23 0 -41 19.5t-18 41.5zM-6 453v2q0 20 11 31.5t24.5 12.5t26 -8.5t16.5 -29.5q4 -25 13 -53.5t19 -53.5q29 -70 48 -69q12 0 25 47t28 102q14 59 27.5 107.5t33.5 58.5 q25 8 34 6t19 -12q53 -49 89 -126t65 -161q45 31 92 52.5t119 41.5q29 0 39 -14t6 -33q0 -4 2 -11t2 -9q-20 -8 -24 -8q-10 -6 -25.5 -14.5t-32.5 -14.5q-16 0 -24 4q-35 -14 -65 -29.5t-60 -38.5q6 -16 11 -32.5t9 -32.5h-2q29 -78 49.5 -158t24.5 -157q4 -88 -17.5 -155 t-66.5 -144q-20 -31 -52 -55.5t-61 -41.5q-78 -45 -151 -45q-57 0 -104.5 28t-88.5 91q-23 37 -22 92q0 57 18.5 117.5t34.5 97.5q14 33 40 77t54.5 87t60 82t58.5 66q31 29 56.5 55t52.5 49l-19 53q-16 51 -36.5 102.5t-49.5 92.5q0 -4 -2 -11.5t-2 -11.5 q-10 -45 -23.5 -102.5t-35 -103.5t-50 -67.5t-69.5 7.5q-35 23 -54.5 51.5t-35.5 63.5q-12 35 -21.5 63.5t-13.5 61.5zM113 -330q-10 -98 21.5 -140t84.5 -42q37 0 79 15.5t80 41t68.5 58t45.5 69.5q16 41 21 86t3 88v2q-4 92 -28.5 170t-53.5 160q-18 -16 -39.5 -37.5 t-42.5 -46.5q-53 -55 -107.5 -135t-88.5 -152q-14 -29 -26.5 -65.5t-16.5 -71.5zM167.5 731q6.5 25 32.5 51q23 23 47 21q0 -2 2 -2h7l4 -2l8 -2q27 -14 33 -33t-1.5 -36t-24.5 -31.5t-36 -20.5h2q-25 -12 -44 -7t-27.5 21t-2 41z" />
<glyph unicode="&#x152;" horiz-adv-x="1495" d="M16 479q0 147 28 282.5t83 282.5q25 61 59.5 135t75.5 130q59 82 128 160.5t159 132.5q14 8 54 20t75 12t48 -18.5t-26 -69.5q-18 -25 -39.5 -17.5t-29.5 25.5q-16 -4 -36 -17t-38 -26l-10 -8q-61 -49 -120.5 -111.5t-100.5 -127.5h2q-104 -170 -170 -370t-70 -398 q0 -43 6 -96.5t22.5 -102.5t45 -89t76.5 -61q61 -23 122 -22q88 0 180.5 36t179.5 95t162.5 138t130 166t81 176t16.5 169q-12 84 -60.5 165t-118 143.5t-150.5 101.5t-156 39q-53 0 -97 -21q-20 -4 -32.5 5.5t-15.5 23.5t4.5 28.5t25.5 22.5q55 12 111 12q106 0 203.5 -44 t174 -115.5t128 -163.5t65.5 -191v2q4 -16 4 -33.5v-35.5q0 -117 -54.5 -229.5t-137 -209t-185 -172t-196.5 -120.5q-61 -25 -125 -46.5t-138 -21.5q-70 0 -153 29q-35 12 -66.5 41.5t-57.5 66.5t-42 77t-18 73q-6 76 -7 147zM576 721q-8 84 12.5 185.5t70.5 210t132 223 t195 227.5q59 59 133.5 99t146.5 40q61 0 110.5 -35t78.5 -121q6 -18 -1.5 -32.5t-20.5 -20.5t-28.5 -1t-25.5 26q-16 37 -29.5 59.5t-24 33.5t-18.5 13t-16 2q-33 -2 -67 -14t-66.5 -29.5t-63.5 -39t-55 -40.5q-63 -57 -132 -144t-126.5 -188.5t-95 -210t-37.5 -206.5 q0 -92 36 -166q29 -59 85.5 -83t127.5 -24q59 0 126 12.5t133 26.5q72 14 138 24.5t113 4.5q20 -8 30.5 -17.5t10.5 -29.5q-16 -84 -63 -147.5t-98 -125.5q-41 -49 -82 -104t-64 -115q-10 -29 0 -63.5t39 -48.5q18 -6 48 -8.5t59 -6.5l63 -6q16 -4 24.5 -16t8.5 -25.5 t-10.5 -25t-30.5 -13.5l-59 6q-31 4 -66 7.5t-64 11.5q-55 16 -79.5 49t-24.5 80q0 45 24.5 100.5t59.5 109.5t73 102t66 83l33 39q16 20 29.5 43t23.5 45q-33 2 -74.5 -8t-82.5 -20l-48 -13q-70 -14 -135 -25.5t-127 -11.5q-61 0 -114.5 14.5t-95.5 51.5t-68.5 99.5 t-36.5 156.5z" />
<glyph unicode="&#x153;" horiz-adv-x="696" d="M-4 240q0 51 6 113.5t21.5 117.5t39 97t60.5 57l63 22q20 6 33.5 -1t18 -20.5t-1 -28.5t-23.5 -26l-23 -4h7q-10 -4 -20.5 -6t-14.5 -6q-49 -39 -69.5 -123t-20.5 -166q0 -29 2 -55.5t6 -46.5t10 -42t17.5 -40.5t27 -30.5t39.5 -14q49 -4 94 40t78 111l41 -79 q-45 -63 -101.5 -107.5t-115.5 -44.5q-39 0 -67.5 17.5t-49 45t-33 60.5t-18.5 61q-6 33 -6 99zM172 505.5q0 24.5 29 33.5q41 4 84 10t86 14l-4 -84l-9 -2l-10 -59q-35 16 -57.5 22t-42.5 11l-51 14q-25 16 -25 40.5zM281 346q0 72 14 141.5t39.5 127t62.5 95.5t84 46 q33 4 54.5 -10.5t34 -38t16.5 -54t4 -61.5t-5 -59.5t-10 -38.5v2q-37 -104 -79.5 -184.5t-106.5 -147.5q14 -35 34.5 -61.5t55.5 -20.5q51 8 89 46t67 73q20 35 53 16l6 -4q16 -16 15 -35q-8 -25 -19 -28q-53 -59 -109.5 -105.5t-97.5 -42.5q-59 6 -98 40t-63 87l-17 43 q-25 74 -24 174zM365 307q0 -24 4 -47q47 63 80.5 131t52.5 127q6 23 10 41.5t4 36.5q0 23 -8 42t-25 34q-35 -16 -57.5 -51t-36.5 -78t-19 -92.5t-5 -94.5v-49z" />
<glyph unicode="&#x178;" d="M2 -274q0 47 6 81v-2q8 53 46 105.5t94.5 100.5t124 91t136 78t131 60.5t109.5 40.5q23 8 50.5 14t52.5 10q-20 141 -50 284.5t-65 297.5q-29 -147 -74 -290.5t-106 -283.5q-12 -25 -31.5 -54.5t-45.5 -54t-56.5 -41t-65.5 -16.5q-51 0 -84 40t-53.5 96.5t-30.5 116 t-14 96.5v-2q-2 4 -2 11t-2 13q-2 8 -2 12q-12 84 -17.5 176.5t-5.5 190.5q0 78 2 157t6 156l6 205v2q2 20 14.5 30.5t27 9.5t25.5 -13t11 -33q0 -35 -1 -71.5t-3 -73.5q-2 -72 -3 -154t-1 -154q0 -104 4 -209.5t17 -211.5q2 -29 8 -67t13 -77t18.5 -74.5t27.5 -60.5v2 q4 -4 11.5 -8t17.5 -10h-2l18 -11l17 7q8 4 19 7t17 7q55 57 100.5 161.5t79 222.5t56 233.5t35.5 193.5q0 12 4 24q-10 51 -17.5 104.5t-7.5 96.5q0 37 7.5 64.5t25.5 40.5q25 16 41 8t25.5 -26.5t13.5 -41t4 -33.5v-38v-46.5t-1 -37t-3 -37t-6 -43.5l43 -193 q4 -20 15 -72.5t23.5 -111.5t22.5 -111.5t15 -72.5q25 -121 38 -236q4 -2 11.5 -4t13.5 -4q72 -25 96 -127q0 -39 -30.5 -44t-49.5 25q0 4 -1 7.5t-1 7.5q-2 2 -6 16.5t-6 24.5q-4 4 -5 6t-5 4l-4 2q12 -135 12 -266q0 -137 -16.5 -271.5t-55.5 -273.5q-12 -43 -39.5 -108.5 t-68.5 -127t-93.5 -106.5t-113.5 -45q-68 -8 -128 22.5t-112.5 88t-94.5 133t-71.5 157.5t-45 162t-15.5 146zM78 -301q0 -61 20.5 -137t55.5 -168q20 -49 47.5 -103.5t64.5 -99.5t85 -71.5t108 -22.5q53 2 93 38t70.5 86t51.5 106.5t33 99.5q39 135 55 265t16 259 q0 66 -5 134.5t-11 135.5q-49 -6 -108.5 -23.5t-113 -39t-95.5 -41t-58 -27.5q-82 -51 -140.5 -97t-96 -93t-55 -96.5t-17.5 -104.5zM189 1759q0 23 14 38t55 22h2q23 0 34 -17.5t9 -40.5v-4q0 -2 2 -2q-6 -31 -23 -44t-34 -13q-23 0 -41 19.5t-18 41.5zM389.5 1755 q6.5 25 32.5 51q23 23 47 21q0 -2 2 -2h7l4 -2l8 -2q27 -14 33 -33t-1.5 -36t-24.5 -31.5t-36 -20.5h2q-25 -12 -44 -7t-27.5 21t-2 41z" />
<glyph unicode="&#x2c6;" horiz-adv-x="344" d="M0 1057q10 23 24.5 43t30.5 41l15 18q37 51 62.5 72.5t47.5 21.5q25 0 43.5 -21.5t40.5 -55.5q10 -16 24.5 -37t37.5 -45q14 -16 12 -31.5t-13.5 -25t-28.5 -9.5t-32 16l-28 43q-16 23 -35 50t-29 37q-27 -23 -53.5 -66t-42.5 -74q-2 -2 -2 -4q-2 -2 -2 -4 q-10 -14 -23.5 -19.5t-25 0t-19.5 17.5t-4 33zM39 1042l14 -4l-14 11v-7z" />
<glyph unicode="&#x2dc;" horiz-adv-x="368" d="M-4 1057q18 49 35 71q29 41 52 57.5t40 16.5q25 0 39 -20.5t26 -44.5l31 -52q16 16 24.5 35t16.5 35q8 20 17.5 39.5t21.5 36.5q12 12 27.5 12t27 -6t15.5 -19.5t-4 -29.5v4q0 -2 -1.5 -3t-1.5 -3v-2q-12 -12 -14 -19q-14 -20 -26 -51q-16 -31 -33 -59.5t-35 -46 t-39.5 -17.5t-46.5 29q-14 20 -26.5 41.5t-24.5 44.5v4q-16 -10 -28.5 -30.5t-16.5 -37.5v-2q-8 -16 -22.5 -23t-27 -5t-21.5 13t-5 32z" />
<glyph unicode="&#x2000;" horiz-adv-x="1004" />
<glyph unicode="&#x2001;" horiz-adv-x="2009" />
<glyph unicode="&#x2002;" horiz-adv-x="1004" />
<glyph unicode="&#x2003;" horiz-adv-x="2009" />
<glyph unicode="&#x2004;" horiz-adv-x="669" />
<glyph unicode="&#x2005;" horiz-adv-x="502" />
<glyph unicode="&#x2006;" horiz-adv-x="334" />
<glyph unicode="&#x2007;" horiz-adv-x="334" />
<glyph unicode="&#x2008;" horiz-adv-x="251" />
<glyph unicode="&#x2009;" horiz-adv-x="401" />
<glyph unicode="&#x200a;" horiz-adv-x="111" />
<glyph unicode="&#x2010;" horiz-adv-x="458" d="M-7 458.5q-1 28.5 34 43.5q49 4 104 11t109 15l133 15q20 0 31.5 -11.5t13.5 -24.5t-7.5 -26.5t-29.5 -15.5l-84 -12q-68 -10 -132.5 -17.5t-129.5 -11.5h-6q-35 6 -36 34.5z" />
<glyph unicode="&#x2011;" horiz-adv-x="458" d="M-7 458.5q-1 28.5 34 43.5q49 4 104 11t109 15l133 15q20 0 31.5 -11.5t13.5 -24.5t-7.5 -26.5t-29.5 -15.5l-84 -12q-68 -10 -132.5 -17.5t-129.5 -11.5h-6q-35 6 -36 34.5z" />
<glyph unicode="&#x2012;" horiz-adv-x="458" d="M-7 458.5q-1 28.5 34 43.5q49 4 104 11t109 15l133 15q20 0 31.5 -11.5t13.5 -24.5t-7.5 -26.5t-29.5 -15.5l-84 -12q-68 -10 -132.5 -17.5t-129.5 -11.5h-6q-35 6 -36 34.5z" />
<glyph unicode="&#x2013;" horiz-adv-x="1055" d="M-7 458.5q-2 28.5 82 43.5q118 4 250.5 11t262.5 15l320 15q48 0 75.5 -11.5t32.5 -24.5t-18 -26.5t-71 -15.5l-202 -12q-164 -10 -319 -17.5t-312 -11.5h-14q-85 6 -87 34.5z" />
<glyph unicode="&#x2014;" horiz-adv-x="2079" d="M-7 458.5q-5 28.5 164 43.5q236 4 500.5 11t524.5 15l641 15q96 0 151.5 -11.5t65 -24.5t-36.5 -26.5t-142 -15.5l-404 -12q-328 -10 -638.5 -17.5t-623.5 -11.5h-29q-168 6 -173 34.5z" />
<glyph unicode="&#x2022;" horiz-adv-x="417" d="M-10 393q0 70 40 139.5t101 98.5q31 0 41 -19l12 -20l2 -2q8 -29 -11 -46.5t-48 -0.5q-29 -14 -44 -55.5t-15 -81.5q0 -35 14 -57.5t49 -22.5q29 0 64 20q-39 23 -46.5 63t13.5 74q6 41 38.5 76t80.5 31q53 -6 76.5 -33t23.5 -63q0 -37 -23.5 -80t-60.5 -81t-81 -62.5 t-83 -24.5q-78 0 -110.5 44t-32.5 103zM231 451q0 -6 7 -13q4 -4 7 0.5t5 10.5q-8 4 -6 4q-4 2 -13 -2z" />
<glyph unicode="&#x202f;" horiz-adv-x="401" />
<glyph unicode="&#x205f;" horiz-adv-x="502" />
<glyph unicode="&#x20ac;" horiz-adv-x="751" d="M-47 374.5q-6 28.5 24 43.5l27 8q35 10 75 23.5t91 35.5q14 98 40 175t66.5 141.5t99 123t140.5 117.5q16 8 29.5 4t19.5 -16t5 -27.5t-13 -27.5q-61 -47 -110.5 -92t-87 -96.5t-64.5 -115t-41 -145.5q16 8 30.5 15.5t30.5 15.5h-2q43 23 90.5 45.5t112.5 46.5 q37 0 44 -27.5t-25 -48.5q-41 -16 -91.5 -39.5t-95.5 -48.5q-16 -8 -49 -23.5t-55 -25.5q0 -82 26 -137l70 41q27 18 61.5 35.5t71.5 38.5q39 0 45 -29t-26 -51q-25 -10 -60 -30.5t-70 -41.5l-47 -29q33 -31 74 -43t84 -12q31 0 66.5 5t72.5 12l47 8q20 0 31.5 -11.5 t14 -25.5t-7 -26.5t-29.5 -14.5l-64 -8q-33 -4 -68.5 -8.5t-68.5 -4.5q-63 0 -119.5 16.5t-107.5 72.5q-41 -20 -85 -35t-92 -21h-6q-35 6 -36 35t32 45q72 8 140 41q-14 31 -21.5 69t-9.5 72q-39 -14 -83 -30.5t-83 -28.5q-37 6 -43 34.5z" />
<glyph unicode="&#x25fc;" horiz-adv-x="624" d="M0 0v625h625v-625h-625z" />
</font>
</defs>
</svg>
